<svg id="stage-background" xmlns="http://www.w3.org/2000/svg" xmlns:xlink="http://www.w3.org/1999/xlink" viewBox="0 0 2544.88 1080">
  <defs>
    <style>
      .cls-1 {
        fill: #7321e8;
      }

      .cls-2 {
        fill: #6d6e70;
      }

      .cls-10, .cls-12, .cls-13, .cls-14, .cls-15, .cls-16, .cls-17, .cls-19, .cls-2, .cls-20, .cls-21, .cls-22, .cls-23, .cls-24, .cls-25, .cls-26, .cls-28, .cls-29, .cls-3, .cls-30, .cls-31, .cls-33, .cls-4, .cls-5, .cls-7, .cls-8, .cls-9 {
        fill-rule: evenodd;
      }

      .cls-3 {
        fill: #00656f;
      }

      .cls-4 {
        fill: #51bd9a;
      }

      .cls-5 {
        fill: #89cb9d;
      }

      .cls-6 {
        fill: #378da5;
      }

      .cls-27, .cls-7 {
        fill: #4e9cb3;
      }

      .cls-8 {
        fill: #2d3393;
      }

      .cls-9 {
        fill: #aeb2d0;
      }

      .cls-10 {
        fill: #a1bfe2;
      }

      .cls-11 {
        fill: #f06477;
      }

      .cls-12 {
        fill: #fffdf8;
      }

      .cls-13 {
        fill: #5d1668;
      }

      .cls-14 {
        fill: #f4897b;
      }

      .cls-15 {
        fill: #f6f08b;
      }

      .cls-16 {
        fill: #ed346b;
      }

      .cls-17 {
        fill: #f06174;
      }

      .cls-18, .cls-19 {
        fill: #9e2484;
      }

      .cls-20 {
        fill: #fcc787;
      }

      .cls-21 {
        fill: #690f63;
      }

      .cls-22 {
        fill: #333091;
      }

      .cls-23 {
        fill: #5e89c6;
      }

      .cls-24 {
        fill: #829cd0;
      }

      .cls-25 {
        fill: #f4cabc;
      }

      .cls-26 {
        fill: #5f2b8c;
      }

      .cls-28 {
        fill: #f8ddb0;
      }

      .cls-29 {
        fill: #ed3071;
      }

      .cls-30 {
        fill: #f4896a;
      }

      .cls-31 {
        fill: #fcc074;
      }

      .cls-32 {
        fill: #00aab2;
      }

      .cls-33 {
        fill: #611669;
      }

      .cls-34 {
        fill: #250049;
      }

      .cls-35 {
        fill: #8bcdff;
      }

      .cls-36, .cls-39 {
        fill: none;
      }

      .cls-36, .cls-37 {
        stroke: #000;
        stroke-miterlimit: 10;
      }

      .cls-36 {
        stroke-width: 3px;
      }

      .cls-37 {
        fill: #f70606;
      }

      .cls-38 {
        fill: url(#radial-gradient);
      }

      .cls-40 {
        fill: url(#linear-gradient);
      }

      .cls-41 {
        fill: url(#linear-gradient-2);
      }

      .cls-42 {
        fill: url(#linear-gradient-3);
      }

      .cls-43 {
        fill: url(#linear-gradient-4);
      }
    </style>
    <radialGradient id="radial-gradient" cx="1272.44" cy="81.95" r="62.72" gradientUnits="userSpaceOnUse">
      <stop offset="0"/>
      <stop offset="1" stop-color="#fff" stop-opacity="0"/>
    </radialGradient>
    <linearGradient id="linear-gradient" x1="766.22" y1="1025.76" x2="766.51" y2="1025.76" gradientTransform="translate(-73831.78 -37646.93) scale(98 36.76)" gradientUnits="userSpaceOnUse">
      <stop offset="0" stop-color="#e78200"/>
      <stop offset="1" stop-color="#650d88"/>
    </linearGradient>
    <linearGradient id="linear-gradient-2" x1="768.87" y1="1042.16" x2="769.17" y2="1042.16" gradientTransform="matrix(164.91, 0, 0, -176.3, -125549.62, 183777.22)" gradientUnits="userSpaceOnUse">
      <stop offset="0" stop-color="#650d88"/>
      <stop offset="1" stop-color="#650d88"/>
    </linearGradient>
    <linearGradient id="linear-gradient-3" x1="771.23" y1="1044.72" x2="771.52" y2="1044.72" gradientTransform="matrix(413.02, 0, 0, -122.92, -317318.5, 128535.69)" gradientUnits="userSpaceOnUse">
      <stop offset="0" stop-color="#e78200"/>
      <stop offset="1" stop-color="#e78200"/>
    </linearGradient>
    <linearGradient id="linear-gradient-4" x1="770.79" y1="1050.01" x2="771.08" y2="1050.01" gradientTransform="matrix(303.83, 0, 0, -54.1, -232962.09, 56896.41)" xlink:href="#linear-gradient-2"/>
  </defs>
  <g id="Ground">
    <rect class="cls-1" x="-835.68" y="680.39" width="4216.25" height="939.95"/>
  </g>
  <g id="Tents">
    <g id="Tents-2" data-name="Tents">
      <g id="Tent_8" data-name="Tent 8">
        <g>
          <path class="cls-2" d="M1045.19,666.89a.55.55,0,0,0-.68.29L1011.79,749a.54.54,0,0,0,.31.7.53.53,0,0,0,.69-.31h0l32.72-81.77a.52.52,0,0,0-.3-.67Z"/>
          <g>
            <path class="cls-3" d="M1011.83,749.11a1.55,1.55,0,0,1,1.53,1.54l.08,8.57h-3.14v-8.57A1.55,1.55,0,0,1,1011.83,749.11Z"/>
            <path class="cls-2" d="M1142.19,585.36h0a.84.84,0,0,0-1.19.13h0L1011.25,748.83a.89.89,0,0,0,.14,1.23h0a.87.87,0,0,0,1.22-.13l129.73-163.34A.88.88,0,0,0,1142.19,585.36Z"/>
            <path class="cls-2" d="M1141.93,585.36h0a.86.86,0,0,1,1.21.13h0l129.73,163.33a.88.88,0,0,1-.13,1.23h0a.86.86,0,0,1-1.21-.13h0L1141.79,586.59A.89.89,0,0,1,1141.93,585.36Z"/>
            <path class="cls-3" d="M1142.12,584.75h0a.89.89,0,0,1,.89.89h0v2.21h0v2.38h-1.82v-2.38h0v-2.21a.89.89,0,0,1,.88-.9Z"/>
          </g>
          <path class="cls-4" d="M1142.25,589.12l98.56,76.63-10.34,93.51H1054l-10.34-93.51Z"/>
          <polygon class="cls-5" points="1142.25 589.12 1043.68 665.71 1054.02 759.22 1143.2 759.22 1143.2 589.86 1142.25 589.12"/>
          <rect class="cls-6" x="1053.76" y="754.51" width="176.97" height="4.71"/>
          <polygon class="cls-7" points="1142.27 657.2 1091.91 742.51 1109.19 759.22 1142.27 657.2"/>
          <polygon class="cls-7" points="1143.99 657.2 1194.34 742.51 1177.06 759.22 1143.99 657.2"/>
          <polygon class="cls-8" points="1109.19 759.22 1177.34 759.22 1143.16 655.59 1109.19 759.22"/>
        </g>
      </g>
      <g id="Tent_7" data-name="Tent 7">
        <path class="cls-2" d="M805.47,675.13a.49.49,0,0,0-.62.26l-29.63,74a.48.48,0,0,0,.26.62.49.49,0,0,0,.62-.27l29.63-74A.48.48,0,0,0,805.47,675.13Z"/>
        <path class="cls-2" d="M981.25,675.13a.49.49,0,0,1,.62.26l29.63,74a.48.48,0,0,1-.26.62.49.49,0,0,1-.62-.27l-29.63-74A.49.49,0,0,1,981.25,675.13Z"/>
        <g>
          <path class="cls-3" d="M775.25,749.57a1.4,1.4,0,0,1,1.39,1.4l.06,7.76h-2.83V751A1.4,1.4,0,0,1,775.25,749.57Z"/>
          <path class="cls-3" d="M1011.36,749.57h0a1.39,1.39,0,0,1,1.38,1.4h0l.07,7.76H1010V751A1.4,1.4,0,0,1,1011.36,749.57Z"/>
          <path class="cls-2" d="M893.3,601.3h0a.8.8,0,0,0-1.1.12L774.73,749.32a.8.8,0,0,0,.12,1.12h0a.78.78,0,0,0,1.1-.12l117.47-147.9A.8.8,0,0,0,893.3,601.3Z"/>
          <path class="cls-2" d="M893.05,601.3h0a.8.8,0,0,1,1.1.12l117.47,147.9a.79.79,0,0,1-.12,1.12h0a.78.78,0,0,1-1.1-.12L892.93,602.42A.8.8,0,0,1,893.05,601.3Z"/>
          <path class="cls-3" d="M893.19,600.75h0a.81.81,0,0,1,.81.81h0v2h0v2.19h-1.62V603.6h0v-2a.8.8,0,0,1,.75-.85Z"/>
        </g>
        <path class="cls-9" d="M893.34,604.75l89.25,69.35-9.4,84.65H813.45l-9.36-84.67Z"/>
        <polygon class="cls-10" points="893.34 604.71 804.09 674.06 813.45 758.73 894.2 758.73 894.2 605.38 893.34 604.71"/>
        <rect class="cls-11" x="813.7" y="756.28" width="159.28" height="0.67"/>
        <rect class="cls-11" x="813.7" y="754.21" width="159.28" height="0.67"/>
        <rect class="cls-11" x="812.76" y="747.92" width="161.15" height="0.67"/>
        <path class="cls-12" d="M893.34,672.48c23.95,0,43.37,38.51,43.37,86v.27H850v-.23C850,711,869.39,672.48,893.34,672.48Z"/>
        <path class="cls-13" d="M852.81,758.75h81.06c-4.12-8-7.33-20.74-4.12-40.21l-.23-.23-35.33-45.24-.17-.28H892.7l-.17.28-35.34,45.22-.23.23C860.19,738,856.93,750.75,852.81,758.75Z"/>
      </g>
      <g id="Tent_6" data-name="Tent 6">
        <g>
          <path class="cls-3" d="M538.65,748.18h0a1.48,1.48,0,0,1,1.39,1.56l.07,8.62h-2.84v-8.61A1.49,1.49,0,0,1,538.65,748.18Z"/>
          <path class="cls-3" d="M774.76,748.18h0a1.5,1.5,0,0,1,1.43,1.55v0l.06,8.62h-2.83v-8.62A1.48,1.48,0,0,1,774.76,748.18Z"/>
          <path class="cls-2" d="M656.7,583.37a.72.72,0,0,0-1,0l-.07.09L538.12,747.92a1,1,0,0,0,.13,1.22.73.73,0,0,0,1,0l.07-.09L656.83,584.59A.93.93,0,0,0,656.7,583.37Z"/>
          <path class="cls-2" d="M656.45,583.37a.73.73,0,0,1,1,0,.27.27,0,0,1,.07.08L775,747.92a1,1,0,0,1-.13,1.22.73.73,0,0,1-1,0l-.07-.09L656.32,584.59A1,1,0,0,1,656.45,583.37Z"/>
          <path class="cls-3" d="M656.63,582.75h0a.87.87,0,0,1,.8.9v2.23h0v2.39h-1.61v-2.39h0v-2.23A.87.87,0,0,1,656.63,582.75Z"/>
        </g>
        <polygon class="cls-14" points="548.51 688.33 656.74 587.7 764.14 688.33 548.51 688.33"/>
        <polygon class="cls-15" points="577.72 675.72 657.05 600.31 735.77 675.72 577.72 675.72"/>
        <path class="cls-2" d="M549.28,687.94h0a.38.38,0,0,0-.42.29h0l-10.55,60.59a.36.36,0,0,0,.29.42h0A.36.36,0,0,0,539,749h0l10.55-60.59a.36.36,0,0,0-.29-.42Z"/>
        <path class="cls-16" d="M656.74,604.34l87.63,84-7.74,70H576.86l-7.75-70C597.73,662.15,630,631.33,656.74,604.34Z"/>
        <path class="cls-2" d="M763,688.11h0a.39.39,0,0,1,.44.28l12.31,60.26a.37.37,0,0,1-.28.43h0a.37.37,0,0,1-.44-.28L762.7,688.54A.38.38,0,0,1,763,688.11Z"/>
        <path class="cls-17" d="M656.19,758.36H576.84l-7.75-70c28.43-26,60.5-56.59,87.1-83.46Z"/>
        <rect class="cls-18" x="576.26" y="752.99" width="160.87" height="0.78"/>
        <rect class="cls-18" x="576.26" y="755.76" width="160.87" height="0.78"/>
        <path class="cls-19" d="M656.74,668.68c25.48,0,46.12,40,46.12,89.44v.24H610.62v-.24C610.62,708.75,631.27,668.68,656.74,668.68Z"/>
        <path class="cls-20" d="M656.74,672.11c24,0,43.37,38.51,43.37,86v.23H613.37v-.23C613.37,710.62,632.79,672.11,656.74,672.11Z"/>
        <path class="cls-21" d="M616.19,758.36h81.06c-4.12-8-7.33-20.74-4.12-40.21l-.23-.23-35.33-45.17-.16-.28h-1.33l-.17.28L620.56,718l-.22.23C623.54,737.62,620.34,750.33,616.19,758.36Z"/>
      </g>
      <g id="Tent_5" data-name="Tent 5">
        <g>
          <path class="cls-3" d="M257.61,749h0a1.55,1.55,0,0,1,1.64,1.41l.09,7.78H256v-7.78A1.56,1.56,0,0,1,257.61,749Z"/>
          <path class="cls-3" d="M538.3,749h0a1.55,1.55,0,0,1,1.65,1.41l.08,7.78h-3.37v-7.78A1.56,1.56,0,0,1,538.3,749Z"/>
          <path class="cls-2" d="M398,600.31a1.07,1.07,0,0,0-1.34.15L257,748.75a.75.75,0,0,0,0,1l.13.1a1.07,1.07,0,0,0,1.34-.15l139.6-148.31a.72.72,0,0,0,0-1A.58.58,0,0,0,398,600.31Z"/>
          <path class="cls-2" d="M397.65,600.31a1.07,1.07,0,0,1,1.34.15l139.6,148.29a.75.75,0,0,1,0,1l-.13.1a1.06,1.06,0,0,1-1.29-.15L397.54,601.45a.73.73,0,0,1,0-1A.69.69,0,0,1,397.65,600.31Z"/>
          <path class="cls-3" d="M397.86,599.75h0a.9.9,0,0,1,.95.81v2h0v2.19h-1.92V602.6h0v-2a.91.91,0,0,1,.95-.85Z"/>
        </g>
        <path class="cls-22" d="M398.1,604.75c65.55,0,118.68,54.26,118.68,121.19v.33l-15.87,13.12H295.29l-15.86-13.12v-.33C279.42,659,332.56,604.75,398.1,604.75Z"/>
        <path class="cls-23" d="M398.1,604.33c56.79,0,102.82,68.72,102.82,153.48v.42H295.29v-.42C295.29,673.05,341.32,604.33,398.1,604.33Z"/>
        <path class="cls-24" d="M397.3,604.34c-56.42.65-102,69.11-102,153.47v.42h102Z"/>
        <path class="cls-22" d="M398.1,668.75c25.31,0,45.83,40,45.83,89.22v.24H352.27V758C352.27,708.75,372.79,668.75,398.1,668.75Z"/>
        <path class="cls-25" d="M398.1,672c24,0,43.37,38.51,43.37,86v.23H354.73V758C354.73,710.49,374.19,672,398.1,672Z"/>
        <path class="cls-26" d="M357.57,758.23h81.06c-4.12-8-7.33-20.74-4.12-40.21l-.23-.23-35.35-45.22-.17-.28h-1.32l-.17.28-35.35,45.18-.22.23C364.9,737.49,361.7,750.2,357.57,758.23Z"/>
      </g>
      <g id="Tent_4" data-name="Tent 4">
        <path class="cls-4" d="M133,600.53l92.37,143.56-9.49,14.52H50.11l-9.49-14.52Z"/>
        <path class="cls-3" d="M10.9,749.25a1.43,1.43,0,0,1,1.43,1.43l.07,8H9.46v-8A1.44,1.44,0,0,1,10.9,749.25Z"/>
        <path class="cls-3" d="M255.26,749.25a1.44,1.44,0,0,1,1.44,1.43l.07,8h-2.94v-8A1.45,1.45,0,0,1,255.26,749.25Z"/>
        <path class="cls-2" d="M133.08,597.32h0a.83.83,0,0,0-1.14.12L10.36,749a.81.81,0,0,0,.12,1.14h0a.81.81,0,0,0,1.14-.12h0L133.19,598.46A.8.8,0,0,0,133.08,597.32Z"/>
        <path class="cls-2" d="M132.82,597.32h0a.83.83,0,0,1,1.14.12L255.54,749a.81.81,0,0,1-.13,1.14h0a.81.81,0,0,1-1.14-.12h0L132.69,598.46a.81.81,0,0,1,.13-1.14Z"/>
        <path class="cls-3" d="M133,596.75h0a.83.83,0,0,1,.83.83h0v2.06h0v2.2h-1.64v-2.2h0v-2.06A.84.84,0,0,1,133,596.75Z"/>
        <polygon class="cls-5" points="132.89 758.61 50.28 758.61 40.79 744.09 132.89 600.97 132.89 758.61"/>
        <rect class="cls-27" x="47.35" y="754.13" width="171.41" height="4.47"/>
        <rect class="cls-27" x="45.33" y="748.48" width="175.29" height="2.53"/>
        <polygon class="cls-28" points="132.7 672.45 90.17 744.49 104.76 758.61 132.7 672.45"/>
        <polygon class="cls-28" points="134.15 672.45 176.67 744.49 162.08 758.61 134.15 672.45"/>
        <polygon class="cls-3" points="104.76 758.61 162.32 758.61 133.45 671.09 104.76 758.61"/>
      </g>
      <g id="Tent_3" data-name="Tent 3">
        <g>
          <path class="cls-3" d="M10.29,748.23h0a1.59,1.59,0,0,1,1.59,1.58l.08,8.78H8.7v-8.78A1.6,1.6,0,0,1,10.29,748.23Z"/>
          <path class="cls-2" d="M-125.44,580.38h0a.91.91,0,0,1,1.27.14h0L10.59,747.94a.9.9,0,0,1-.13,1.26h0a.9.9,0,0,1-1.26-.13L-125.58,581.64a.89.89,0,0,1,.13-1.25Z"/>
        </g>
        <path class="cls-2" d="M-3.22,685.21a.43.43,0,0,1,.49.32h0L11.4,754.67a.42.42,0,0,1-.32.5.42.42,0,0,1-.5-.33L-3.55,685.75a.41.41,0,0,1,.28-.52Z"/>
      </g>
    </g>
    <g id="Tents-3" data-name="Tents">
      <g id="Tent_5-2" data-name="Tent 5">
        <g>
          <path class="cls-3" d="M2273.36,749.78h0a1.56,1.56,0,0,1,1.64,1.41l.09,7.78h-3.38v-7.78A1.55,1.55,0,0,1,2273.36,749.78Z"/>
          <path class="cls-2" d="M2413.7,601.05a1.07,1.07,0,0,0-1.34.15l-139.6,148.29a.74.74,0,0,0,0,1l.13.1a1.08,1.08,0,0,0,1.34-.15l139.6-148.31a.74.74,0,0,0,0-1Z"/>
          <path class="cls-2" d="M2413.4,601.05a1.08,1.08,0,0,1,1.34.15l139.6,148.29a.74.74,0,0,1,0,1,.58.58,0,0,1-.12.1,1.06,1.06,0,0,1-1.29-.15l-139.65-148.3a.73.73,0,0,1,0-1A.69.69,0,0,1,2413.4,601.05Z"/>
          <path class="cls-3" d="M2413.61,600.49h0a.9.9,0,0,1,.95.81v2h0v2.19h-1.92v-2.15h0v-2a.9.9,0,0,1,.94-.85Z"/>
        </g>
        <path class="cls-22" d="M2413.85,605.49c65.55,0,118.68,54.26,118.68,121.19V727l-15.87,13.12H2311L2295.18,727v-.33C2295.17,659.77,2348.31,605.49,2413.85,605.49Z"/>
        <path class="cls-23" d="M2413.85,605.07c56.79,0,102.82,68.72,102.82,153.48V759H2311v-.42C2311,673.79,2357.07,605.07,2413.85,605.07Z"/>
        <path class="cls-24" d="M2413.05,605.08c-56.42.65-102,69.11-102,153.47V759h102Z"/>
        <path class="cls-22" d="M2413.85,669.49c25.31,0,45.83,40,45.83,89.22V759H2368v-.24C2368,709.49,2388.54,669.49,2413.85,669.49Z"/>
        <path class="cls-25" d="M2413.85,672.72c24,0,43.37,38.51,43.37,86V759h-86.74v-.23C2370.48,711.23,2389.94,672.72,2413.85,672.72Z"/>
        <path class="cls-26" d="M2373.32,759h81.06c-4.12-8-7.33-20.74-4.12-40.21l-.23-.23-35.35-45.22-.17-.28h-1.32l-.17.28-35.35,45.18-.22.23C2380.65,738.23,2377.45,750.94,2373.32,759Z"/>
      </g>
      <g id="Tent_4-2" data-name="Tent 4">
        <path class="cls-4" d="M2148.75,601.27l92.37,143.56-9.49,14.52H2065.86l-9.49-14.52Z"/>
        <path class="cls-3" d="M2026.65,750a1.43,1.43,0,0,1,1.43,1.43l.07,8h-2.94v-8A1.44,1.44,0,0,1,2026.65,750Z"/>
        <path class="cls-3" d="M2271,750a1.44,1.44,0,0,1,1.44,1.43l.07,8h-2.94v-8A1.44,1.44,0,0,1,2271,750Z"/>
        <path class="cls-2" d="M2148.83,598.06h0a.83.83,0,0,0-1.14.12L2026.11,749.73a.81.81,0,0,0,.12,1.14h0a.81.81,0,0,0,1.14-.12h0L2148.94,599.2A.82.82,0,0,0,2148.83,598.06Z"/>
        <path class="cls-2" d="M2148.57,598.06h0a.83.83,0,0,1,1.14.12l121.58,151.55a.81.81,0,0,1-.13,1.14h0a.81.81,0,0,1-1.14-.12h0L2148.44,599.2a.81.81,0,0,1,.13-1.14Z"/>
        <path class="cls-3" d="M2148.75,597.49h0a.83.83,0,0,1,.83.83h0v2.06h0v2.2h-1.64v-2.2h0v-2.06A.84.84,0,0,1,2148.75,597.49Z"/>
        <polygon class="cls-5" points="2148.64 759.35 2066.03 759.35 2056.54 744.83 2148.64 601.71 2148.64 759.35"/>
        <rect class="cls-27" x="2063.1" y="754.87" width="171.41" height="4.47"/>
        <rect class="cls-27" x="2061.08" y="749.22" width="175.29" height="2.53"/>
        <polygon class="cls-28" points="2148.45 673.19 2105.92 745.23 2120.51 759.35 2148.45 673.19"/>
        <polygon class="cls-28" points="2149.9 673.19 2192.42 745.23 2177.83 759.35 2149.9 673.19"/>
        <polygon class="cls-3" points="2120.51 759.35 2178.07 759.35 2149.2 671.83 2120.51 759.35"/>
      </g>
      <g id="Tent_3-2" data-name="Tent 3">
        <g>
          <path class="cls-3" d="M1755.16,749a1.6,1.6,0,0,1,1.59,1.58l.08,8.78h-3.25v-8.78a1.58,1.58,0,0,1,1.58-1.58Z"/>
          <path class="cls-3" d="M2026,749h0a1.6,1.6,0,0,1,1.59,1.58l.08,8.78h-3.26v-8.78A1.59,1.59,0,0,1,2026,749Z"/>
          <path class="cls-2" d="M1890.6,581.12h0a.9.9,0,0,0-1.27.14h0L1754.57,748.68a.9.9,0,0,0,.12,1.26h0a.9.9,0,0,0,1.27-.13l134.77-167.43A.91.91,0,0,0,1890.6,581.12Z"/>
          <path class="cls-2" d="M1890.31,581.12h0a.89.89,0,0,1,1.26.14h0l134.76,167.42a.9.9,0,0,1-.13,1.26h0a.9.9,0,0,1-1.26-.13L1890.17,582.38a.89.89,0,0,1,.13-1.25Z"/>
          <path class="cls-3" d="M1890.51,580.49h0a.92.92,0,0,1,.92.92v2.27h0v2.43h-1.85v-2.43h0v-2.27A.93.93,0,0,1,1890.51,580.49Z"/>
        </g>
        <polygon class="cls-29" points="1766.47 686.07 1890.64 585.1 2013.86 686.07 1982.29 756.33 1798.99 756.33 1766.47 686.07"/>
        <path class="cls-2" d="M1767.36,685.76a.42.42,0,0,0-.49.34h0l-12.1,69.52a.41.41,0,0,0,.34.48.42.42,0,0,0,.49-.33h0l12.1-69.52A.43.43,0,0,0,1767.36,685.76Z"/>
        <path class="cls-30" d="M1890.64,601.79l100.54,84.28-8.89,70.26H1799l-8.89-70.26C1822.94,659.79,1860,628.87,1890.64,601.79Z"/>
        <path class="cls-2" d="M2012.53,686a.41.41,0,0,1,.48.32h0l14.13,69.13a.42.42,0,1,1-.82.17l-14.13-69.09a.41.41,0,0,1,.27-.52Z"/>
        <path class="cls-31" d="M1890,756.33h-91l-8.89-70.26c32.62-26.1,69.41-56.79,99.93-83.74Z"/>
        <rect class="cls-32" x="1798.52" y="751.78" width="184.34" height="0.86"/>
        <path class="cls-16" d="M1890.64,679.33c29.53,0,53.47,34.38,53.47,76.79v.21H1837.17v-.21C1837.17,713.71,1861.11,679.33,1890.64,679.33Z"/>
        <path class="cls-28" d="M1890.64,682.93c27.48,0,49.76,32.77,49.76,73.2v.2h-99.52v-.2C1840.88,715.7,1863.16,682.93,1890.64,682.93Z"/>
        <path class="cls-21" d="M1844.14,756.33h93c-4.73-6.83-8.41-17.65-4.73-34.22l-.26-.2-40.56-38.48-.19-.23h-1.52l-.19.23-40.56,38.48-.26.2C1852.55,738.68,1848.87,749.49,1844.14,756.33Z"/>
      </g>
      <g id="Tent_2" data-name="Tent 2">
        <path class="cls-22" d="M1642.63,613.93c36.7,57.46,23.88,37,92.74,145.18H1537.45l92.62-145C1636.33,614,1635,614,1642.63,613.93Z"/>
        <g>
          <path class="cls-3" d="M1518.32,750.49h0a1.37,1.37,0,0,1,1.39,1.32l.06,7.35h-2.83v-7.35a1.35,1.35,0,0,1,1.38-1.32Z"/>
          <path class="cls-3" d="M1754.43,750.49h0a1.36,1.36,0,0,1,1.38,1.32h0l.07,7.35H1753v-7.35A1.37,1.37,0,0,1,1754.43,750.49Z"/>
          <path class="cls-2" d="M1636.37,610h0a.83.83,0,0,0-1.11.13L1517.8,750.2a.73.73,0,0,0,.08,1l0,0h0a.81.81,0,0,0,1.11-.13l117.46-140a.72.72,0,0,0,0-1Z"/>
          <path class="cls-2" d="M1636.12,610h0a.83.83,0,0,1,1.11.13L1754.69,750.2a.74.74,0,0,1-.08,1l0,0h0a.8.8,0,0,1-1.1-.13L1636,611.13a.72.72,0,0,1,0-1Z"/>
          <path class="cls-3" d="M1636.29,609.49h0a.81.81,0,0,1,.81.77v1.9h0v2h-1.62v-2h0v-1.9a.79.79,0,0,1,.81-.77Z"/>
        </g>
        <path class="cls-23" d="M1642,613.93c33.1,57.46,21.54,37,83.64,145.18h-178.5c28.37-49.24,57.12-99.14,83.53-145C1636.34,614,1635.13,614,1642,613.93Z"/>
        <path class="cls-24" d="M1630.8,613.93c-33.1,57.46-21.54,37-83.64,145.18h89.6V614Z"/>
        <polygon class="cls-25" points="1636.12 648.5 1595.03 740.99 1609.13 759.11 1636.12 648.5"/>
        <polygon class="cls-25" points="1637.52 648.5 1678.61 740.99 1664.51 759.11 1637.52 648.5"/>
        <polygon class="cls-26" points="1609.13 759.11 1664.74 759.11 1636.85 646.76 1609.13 759.11"/>
      </g>
      <g id="Tent_1" data-name="Tent 1">
        <g>
          <path class="cls-3" d="M1518.37,749.79h0a1.43,1.43,0,0,1,1.44,1.4h0l.08,7.78h-3v-7.78a1.43,1.43,0,0,1,1.46-1.4Z"/>
          <path class="cls-2" d="M1395.45,601.05h0a.84.84,0,0,0-1.15.12L1272,749.49a.78.78,0,0,0,.11,1.11h0a.82.82,0,0,0,1.15-.13l122.31-148.31a.79.79,0,0,0-.11-1.11Z"/>
          <path class="cls-2" d="M1395.19,601.05h0a.84.84,0,0,1,1.15.12l122.31,148.32a.79.79,0,0,1-.12,1.11h0a.82.82,0,0,1-1.15-.13l-122.3-148.31a.78.78,0,0,1,.09-1.1Z"/>
          <path class="cls-3" d="M1395.37,600.49h0a.83.83,0,0,1,.83.81h0v2h0v2.19h-1.68v-2.15h0v-2a.83.83,0,0,1,.81-.85Z"/>
        </g>
        <path class="cls-16" d="M1395.59,605.07c56.79,0,102.82,68.72,102.82,153.48V759H1292.78v-.42C1292.78,673.79,1338.81,605.07,1395.59,605.07Z"/>
        <path class="cls-17" d="M1394.79,605.08c-56.41.65-102,69.11-102,153.47V759h102Z"/>
        <path class="cls-19" d="M1395.59,652.13c30.07,0,54.44,47.7,54.44,106.55V759H1341.16v-.29C1341.16,699.83,1365.53,652.13,1395.59,652.13Z"/>
        <path class="cls-14" d="M1395.59,656c28.6,0,51.78,46,51.78,102.69V759H1343.82v-.28C1343.82,702,1367,656,1395.59,656Z"/>
        <g>
          <polygon class="cls-20" points="1394.89 656 1353.81 742.1 1367.9 758.97 1394.89 656"/>
          <polygon class="cls-20" points="1396.29 656 1437.38 742.1 1423.28 758.97 1396.29 656"/>
        </g>
        <polygon class="cls-33" points="1367.17 758.82 1424.02 758.82 1396.35 656.23 1394.83 656.23 1367.17 758.82"/>
      </g>
    </g>
  </g>
  <g id="Stage">
    <polygon id="Dark_Purple_Base" data-name="Dark Purple Base" class="cls-34" points="512.44 993.89 2032.44 987.42 2032.44 903 512.44 903 512.44 993.89"/>
    <polygon class="cls-35" points="2032.44 903 512.44 903 691.44 753 1857.48 753 2032.44 903"/>
  </g>
  <g id="Towers">
    <g id="Top_Tower" data-name="Top Tower">
      <line class="cls-36" x1="664.42" y1="43.38" x2="664.42" y2="116.15"/>
      <line class="cls-36" x1="741.36" y1="44.43" x2="741.36" y2="117.2"/>
      <line class="cls-36" x1="589.61" y1="43.91" x2="664.42" y2="116.67"/>
      <line class="cls-36" x1="741.36" y1="116.67" x2="664.42" y2="43.91"/>
      <line class="cls-36" x1="665.49" y1="116.67" x2="741.36" y2="43.91"/>
      <line class="cls-36" x1="816.17" y1="43.38" x2="816.17" y2="116.15"/>
      <line class="cls-36" x1="893.12" y1="44.43" x2="893.12" y2="117.2"/>
      <line class="cls-36" x1="741.36" y1="43.91" x2="816.17" y2="116.67"/>
      <line class="cls-36" x1="816.17" y1="43.91" x2="741.36" y2="116.67"/>
      <line class="cls-36" x1="893.12" y1="116.67" x2="816.17" y2="43.91"/>
      <line class="cls-36" x1="817.24" y1="116.67" x2="893.12" y2="43.91"/>
      <line class="cls-36" x1="967.92" y1="43.38" x2="967.92" y2="116.15"/>
      <line class="cls-36" x1="1044.87" y1="44.43" x2="1044.87" y2="117.2"/>
      <line class="cls-36" x1="893.12" y1="43.91" x2="967.92" y2="116.67"/>
      <line class="cls-36" x1="967.92" y1="43.91" x2="893.12" y2="116.67"/>
      <line class="cls-36" x1="1044.87" y1="116.67" x2="967.92" y2="43.91"/>
      <line class="cls-36" x1="968.99" y1="116.67" x2="1044.87" y2="43.91"/>
      <line class="cls-36" x1="1119.68" y1="43.38" x2="1119.68" y2="116.15"/>
      <line class="cls-36" x1="1196.62" y1="44.43" x2="1196.62" y2="117.2"/>
      <line class="cls-36" x1="1044.87" y1="43.91" x2="1119.68" y2="116.67"/>
      <line class="cls-36" x1="1119.68" y1="43.91" x2="1044.87" y2="116.67"/>
      <line class="cls-36" x1="1196.62" y1="116.67" x2="1119.68" y2="43.91"/>
      <line class="cls-36" x1="1120.74" y1="116.67" x2="1196.62" y2="43.91"/>
      <line class="cls-36" x1="1272.5" y1="44.43" x2="1272.5" y2="117.2"/>
      <line class="cls-36" x1="1272.5" y1="116.67" x2="1195.55" y2="43.91"/>
      <line class="cls-36" x1="1196.62" y1="116.67" x2="1272.5" y2="43.91"/>
      <line class="cls-36" x1="589.61" y1="116.67" x2="1272.5" y2="116.67"/>
      <line class="cls-36" x1="1880.46" y1="43.5" x2="1880.46" y2="116.27"/>
      <line class="cls-36" x1="1803.52" y1="44.56" x2="1803.52" y2="117.33"/>
      <line class="cls-36" x1="1955.27" y1="44.03" x2="1880.46" y2="116.8"/>
      <line class="cls-36" x1="1803.52" y1="116.8" x2="1880.46" y2="44.03"/>
      <line class="cls-36" x1="1879.39" y1="116.8" x2="1803.52" y2="44.03"/>
      <line class="cls-36" x1="1728.71" y1="43.5" x2="1728.71" y2="116.27"/>
      <line class="cls-36" x1="1651.76" y1="44.56" x2="1651.76" y2="117.33"/>
      <line class="cls-36" x1="1803.52" y1="44.03" x2="1728.71" y2="116.8"/>
      <line class="cls-36" x1="1728.71" y1="44.03" x2="1803.52" y2="116.8"/>
      <line class="cls-36" x1="1651.76" y1="116.8" x2="1728.71" y2="44.03"/>
      <line class="cls-36" x1="1727.64" y1="116.8" x2="1651.76" y2="44.03"/>
      <line class="cls-36" x1="1576.96" y1="43.5" x2="1576.96" y2="116.27"/>
      <line class="cls-36" x1="1500.01" y1="44.56" x2="1500.01" y2="117.33"/>
      <line class="cls-36" x1="1651.76" y1="44.03" x2="1576.96" y2="116.8"/>
      <line class="cls-36" x1="1576.96" y1="44.03" x2="1651.76" y2="116.8"/>
      <line class="cls-36" x1="1500.01" y1="116.8" x2="1576.96" y2="44.03"/>
      <line class="cls-36" x1="1575.89" y1="116.8" x2="1500.01" y2="44.03"/>
      <line class="cls-36" x1="1425.2" y1="43.5" x2="1425.2" y2="116.27"/>
      <line class="cls-36" x1="1348.26" y1="44.56" x2="1348.26" y2="117.33"/>
      <line class="cls-36" x1="1500.01" y1="44.03" x2="1425.2" y2="116.8"/>
      <line class="cls-36" x1="1425.2" y1="44.03" x2="1500.01" y2="116.8"/>
      <line class="cls-36" x1="1348.26" y1="116.8" x2="1425.2" y2="44.03"/>
      <line class="cls-36" x1="1424.14" y1="116.8" x2="1348.26" y2="44.03"/>
      <line class="cls-36" x1="1272.38" y1="44.56" x2="1272.38" y2="117.33"/>
      <line class="cls-36" x1="1272.38" y1="116.8" x2="1349.33" y2="44.03"/>
      <line class="cls-36" x1="1348.26" y1="116.8" x2="1272.38" y2="44.03"/>
      <line class="cls-36" x1="1955.27" y1="116.8" x2="1272.38" y2="116.8"/>
      <line class="cls-36" x1="1956.34" y1="44.03" x2="1272.38" y2="44.03"/>
      <line class="cls-36" x1="1880.46" y1="44.03" x2="1955.27" y2="116.8"/>
      <line class="cls-36" x1="1957.06" y1="45.36" x2="2030.35" y2="115.32"/>
      <line class="cls-36" x1="2030.35" y1="45.36" x2="1956.04" y2="116.29"/>
      <rect class="cls-36" x="1956.04" y="44.39" width="76.4" height="71.9"/>
      <line class="cls-36" x1="588.54" y1="43.91" x2="1272.5" y2="43.91"/>
      <line class="cls-36" x1="664.42" y1="43.91" x2="589.61" y2="116.67"/>
      <line class="cls-36" x1="587.82" y1="45.24" x2="514.53" y2="115.2"/>
      <line class="cls-36" x1="514.53" y1="45.24" x2="588.84" y2="116.17"/>
      <rect class="cls-36" x="512.44" y="44.27" width="76.4" height="71.9"/>
    </g>
    <g id="Right_Tower" data-name="Right Tower">
      <rect class="cls-36" x="1956.15" y="691.58" width="76.11" height="70.65"/>
      <line class="cls-36" x1="2031.24" y1="692.55" x2="1956.63" y2="762.23"/>
      <line class="cls-36" x1="1957.19" y1="692.55" x2="2031.24" y2="762.5"/>
      <rect class="cls-36" x="1956.15" y="619.68" width="76.11" height="71.9"/>
      <line class="cls-36" x1="2031.24" y1="620.65" x2="1956.16" y2="691.57"/>
      <line class="cls-36" x1="1957.19" y1="620.65" x2="2031.24" y2="690.6"/>
      <rect class="cls-36" x="1956.15" y="547.78" width="76.11" height="71.9"/>
      <line class="cls-36" x1="2031.24" y1="548.75" x2="1956.16" y2="619.67"/>
      <line class="cls-36" x1="1957.19" y1="548.75" x2="2031.24" y2="618.7"/>
      <rect class="cls-36" x="1956.15" y="475.88" width="76.11" height="71.9"/>
      <line class="cls-36" x1="2031.24" y1="476.85" x2="1956.16" y2="547.77"/>
      <line class="cls-36" x1="1957.19" y1="476.85" x2="2031.24" y2="546.8"/>
      <rect class="cls-36" x="1956.15" y="403.98" width="76.11" height="71.9"/>
      <line class="cls-36" x1="2031.24" y1="404.95" x2="1956.16" y2="475.87"/>
      <line class="cls-36" x1="1957.19" y1="404.95" x2="2031.24" y2="474.9"/>
      <rect class="cls-36" x="1956.15" y="332.08" width="76.11" height="71.9"/>
      <line class="cls-36" x1="2031.24" y1="333.05" x2="1956.16" y2="403.97"/>
      <line class="cls-36" x1="1957.19" y1="333.05" x2="2031.24" y2="403"/>
      <rect class="cls-36" x="1956.15" y="260.18" width="76.11" height="71.9"/>
      <line class="cls-36" x1="2031.24" y1="261.15" x2="1956.16" y2="332.07"/>
      <line class="cls-36" x1="1957.19" y1="261.15" x2="2031.24" y2="331.1"/>
      <rect class="cls-36" x="1956.15" y="188.28" width="76.11" height="71.9"/>
      <line class="cls-36" x1="2031.24" y1="189.25" x2="1956.16" y2="260.17"/>
      <line class="cls-36" x1="1957.19" y1="189.25" x2="2031.24" y2="259.2"/>
      <polyline class="cls-36" points="1956.33 188.19 1956.33 116.29 2032.44 116.29 2032.44 188.19"/>
      <line class="cls-36" x1="2031.41" y1="117.26" x2="1956.33" y2="188.19"/>
      <line class="cls-36" x1="1957.36" y1="117.26" x2="2031.41" y2="187.22"/>
      <rect class="cls-36" x="1956.05" y="761.62" width="76.11" height="70.65"/>
      <line class="cls-36" x1="2031.13" y1="762.58" x2="1956.51" y2="832.26"/>
      <line class="cls-36" x1="1957.07" y1="762.58" x2="2031.13" y2="832.54"/>
      <rect class="cls-36" x="1956.05" y="832.62" width="76.11" height="70.65"/>
      <line class="cls-36" x1="2031.13" y1="833.58" x2="1956.51" y2="903.26"/>
      <line class="cls-36" x1="1957.07" y1="833.58" x2="2031.13" y2="903.54"/>
    </g>
    <g id="Left_Tower" data-name="Left Tower">
      <rect class="cls-36" x="512.83" y="691.45" width="76" height="70.65"/>
      <line class="cls-36" x1="513.64" y1="692.42" x2="588.15" y2="762.1"/>
      <line class="cls-36" x1="587.59" y1="692.42" x2="513.64" y2="762.38"/>
      <rect class="cls-36" x="512.61" y="619.55" width="76" height="71.9"/>
      <line class="cls-36" x1="513.64" y1="620.52" x2="588.62" y2="691.45"/>
      <line class="cls-36" x1="587.59" y1="620.52" x2="513.64" y2="690.48"/>
      <rect class="cls-36" x="512.61" y="547.65" width="76" height="71.9"/>
      <line class="cls-36" x1="513.64" y1="548.62" x2="588.62" y2="619.55"/>
      <line class="cls-36" x1="587.59" y1="548.62" x2="513.64" y2="618.58"/>
      <rect class="cls-36" x="512.61" y="475.75" width="76" height="71.9"/>
      <line class="cls-36" x1="513.64" y1="476.72" x2="588.62" y2="547.65"/>
      <line class="cls-36" x1="587.59" y1="476.72" x2="513.64" y2="546.68"/>
      <rect class="cls-36" x="512.61" y="403.85" width="76" height="71.9"/>
      <line class="cls-36" x1="513.64" y1="404.82" x2="588.62" y2="475.75"/>
      <line class="cls-36" x1="587.59" y1="404.82" x2="513.64" y2="474.78"/>
      <rect class="cls-36" x="512.61" y="331.95" width="76" height="71.9"/>
      <line class="cls-36" x1="513.64" y1="332.92" x2="588.62" y2="403.85"/>
      <line class="cls-36" x1="587.59" y1="332.92" x2="513.64" y2="402.88"/>
      <rect class="cls-36" x="512.61" y="260.05" width="76" height="71.9"/>
      <line class="cls-36" x1="513.64" y1="261.02" x2="588.62" y2="331.95"/>
      <line class="cls-36" x1="587.59" y1="261.02" x2="513.64" y2="330.98"/>
      <rect class="cls-36" x="512.61" y="188.15" width="76" height="71.9"/>
      <line class="cls-36" x1="513.64" y1="189.12" x2="588.62" y2="260.05"/>
      <line class="cls-36" x1="587.59" y1="189.12" x2="513.64" y2="259.08"/>
      <polyline class="cls-36" points="588.44 188.07 588.44 116.17 512.44 116.17 512.44 188.07"/>
      <line class="cls-36" x1="513.47" y1="117.14" x2="588.44" y2="188.07"/>
      <line class="cls-36" x1="587.42" y1="117.14" x2="513.47" y2="187.1"/>
      <rect class="cls-36" x="512.84" y="762.18" width="76" height="70.65"/>
      <line class="cls-36" x1="587.81" y1="763.15" x2="513.3" y2="832.83"/>
      <line class="cls-36" x1="513.86" y1="763.15" x2="587.81" y2="833.1"/>
      <rect class="cls-36" x="512.84" y="833.18" width="76" height="70.65"/>
      <line class="cls-36" x1="587.81" y1="834.15" x2="513.3" y2="903.83"/>
      <line class="cls-36" x1="513.86" y1="834.15" x2="587.81" y2="904.1"/>
    </g>
  </g>
  <g id="Speakers">
    <g id="Right_Speakers" data-name="Right Speakers">
      <g id="Bottom">
        <rect id="Background" class="cls-34" x="1992.44" y="544.17" width="97.53" height="133.28" rx="3.12"/>
        <g id="Bass">
          <g>
            <path class="cls-35" d="M2041.11,600.87c18.66,0,33.75,14,33.75,31.34s-15.09,31.34-33.75,31.34-33.76-14-33.76-31.34S2022.44,600.87,2041.11,600.87Zm24.56,31.34c0-12.6-11-22.8-24.56-22.8s-24.57,10.2-24.57,22.8,11,22.81,24.57,22.81,24.56-10.2,24.56-22.81Z"/>
            <path class="cls-34" d="M2041.11,609.41c13.57,0,24.56,10.2,24.56,22.8s-11,22.81-24.56,22.81-24.57-10.2-24.57-22.81S2027.53,609.41,2041.11,609.41Zm8.06,23c.09-4.14-3.45-7.55-7.91-7.64a7.52,7.52,0,0,0-1.37,15,7.36,7.36,0,0,0,1,0c4.5,0,8.14-3.26,8.23-7.4Z"/>
            <path class="cls-35" d="M2041.26,624.73c4.46.09,8,3.5,7.91,7.64s-3.77,7.42-8.23,7.35a7.52,7.52,0,0,1-.73-15,7.36,7.36,0,0,1,1,0Z"/>
          </g>
        </g>
        <g id="Tweeter">
          <g>
            <path class="cls-35" d="M2041.1,553.64c10.67,0,19.29,8,19.29,17.9s-8.62,17.91-19.29,17.91-19.29-8-19.29-17.91S2030.44,553.64,2041.1,553.64Zm14,17.9c0-7.2-6.28-13-14-13s-14,5.83-14,13,6.28,13,14,13,14-5.8,14-13Z"/>
            <path class="cls-34" d="M2041.1,558.51c7.76,0,14,5.83,14,13s-6.28,13-14,13-14-5.83-14-13S2033.34,558.51,2041.1,558.51Zm4.61,13a4.63,4.63,0,1,0-5,4.28h.35a4.44,4.44,0,0,0,4.61-4.26Z"/>
            <path class="cls-35" d="M2041.1,567.27a4.29,4.29,0,1,1-4.62,4.27A4.46,4.46,0,0,1,2041.1,567.27Z"/>
          </g>
        </g>
      </g>
      <g id="Middle">
        <rect id="Background-2" class="cls-34" x="1994.91" y="339.37" width="97.53" height="133.28" rx="3.12"/>
        <g id="Bass-2">
          <g>
            <path class="cls-35" d="M2043.58,396.06c18.66,0,33.76,14,33.76,31.35s-15.1,31.33-33.76,31.33-33.76-14-33.76-31.33S2024.92,396.06,2043.58,396.06Zm24.57,31.35c0-12.6-11-22.8-24.57-22.8s-24.57,10.2-24.57,22.8,11,22.8,24.57,22.8S2068.15,440,2068.15,427.41Z"/>
            <path class="cls-34" d="M2043.58,404.61c13.58,0,24.57,10.2,24.57,22.8s-11,22.8-24.57,22.8S2019,440,2019,427.41,2030,404.61,2043.58,404.61Zm8.06,23c.1-4.14-3.45-7.56-7.91-7.64a7.51,7.51,0,0,0-1,15c.23,0,.47,0,.7,0,4.46,0,8.14-3.28,8.23-7.4Z"/>
            <path class="cls-35" d="M2043.73,419.93a7.76,7.76,0,0,1,7.91,7.64c-.09,4.14-3.77,7.41-8.23,7.33a7.51,7.51,0,1,1-.38-15c.23,0,.47,0,.7,0Z"/>
          </g>
        </g>
        <g id="Tweeter-2">
          <g>
            <path class="cls-35" d="M2043.58,348.84c10.65,0,19.29,8,19.29,17.91s-8.64,17.9-19.29,17.9-19.29-8-19.29-17.9S2032.91,348.84,2043.58,348.84Zm14,17.91c0-7.22-6.28-13-14-13s-14,5.82-14,13,6.28,13,14,13,14-5.75,14-13Z"/>
            <path class="cls-34" d="M2043.58,353.71c7.76,0,14,5.82,14,13s-6.28,13-14,13-14-5.82-14-13S2035.81,353.71,2043.58,353.71Zm4.61,13a4.63,4.63,0,1,0-5,4.26h.36a4.46,4.46,0,0,0,4.61-4.23Z"/>
            <path class="cls-35" d="M2043.58,362.46a4.29,4.29,0,1,1-4.62,4.29A4.46,4.46,0,0,1,2043.58,362.46Z"/>
          </g>
        </g>
      </g>
      <g id="Top">
        <rect id="Background-3" class="cls-34" x="1994.91" y="137.45" width="97.53" height="133.28" rx="3.12"/>
        <g id="Bass-3">
          <g>
            <path class="cls-35" d="M2043.58,194.15c18.66,0,33.76,14,33.76,31.33s-15.1,31.35-33.76,31.35-33.76-14-33.76-31.35S2024.92,194.15,2043.58,194.15Zm24.57,31.35c0-12.6-11-22.8-24.57-22.8S2019,212.9,2019,225.5s11,22.8,24.57,22.8S2068.15,238.1,2068.15,225.5Z"/>
            <path class="cls-34" d="M2043.58,202.7c13.58,0,24.57,10.2,24.57,22.8s-11,22.8-24.57,22.8S2019,238.1,2019,225.5,2030,202.7,2043.58,202.7Zm8.06,23c.1-4.15-3.45-7.57-7.91-7.64a7.51,7.51,0,0,0-1,15c.23,0,.47,0,.7,0,4.46,0,8.14-3.28,8.23-7.4Z"/>
            <path class="cls-35" d="M2043.73,218a7.75,7.75,0,0,1,7.91,7.64c-.09,4.15-3.77,7.41-8.23,7.33a7.51,7.51,0,1,1-.38-15c.23,0,.47,0,.7,0Z"/>
          </g>
        </g>
        <g id="Tweeter-3">
          <g>
            <path class="cls-35" d="M2043.57,146.93c10.66,0,19.29,8,19.29,17.9s-8.63,17.9-19.29,17.9-19.29-8-19.29-17.9S2032.91,146.93,2043.57,146.93Zm14,17.9c0-7.2-6.28-13-14-13s-14,5.83-14,13,6.28,13,14,13,14-5.83,14-13Z"/>
            <path class="cls-34" d="M2043.57,151.8c7.76,0,14,5.83,14,13s-6.28,13-14,13-14-5.83-14-13S2035.81,151.8,2043.57,151.8Zm4.62,13a4.63,4.63,0,1,0-5,4.27h.35a4.45,4.45,0,0,0,4.62-4.25Z"/>
            <path class="cls-35" d="M2043.57,160.55a4.29,4.29,0,1,1-4.61,4.28A4.47,4.47,0,0,1,2043.57,160.55Z"/>
          </g>
        </g>
      </g>
    </g>
    <g id="Left_Speakers" data-name="Left Speakers">
      <g id="Bottom-2">
        <rect id="Background-4" class="cls-34" x="452.44" y="537.17" width="97.53" height="133.28" rx="3.12"/>
        <g id="Bass-4">
          <g>
            <path class="cls-35" d="M501.11,593.87c18.66,0,33.75,14,33.75,31.34s-15.09,31.34-33.75,31.34-33.76-14-33.76-31.34S482.44,593.87,501.11,593.87Zm24.56,31.34c0-12.6-11-22.8-24.56-22.8s-24.57,10.2-24.57,22.8,11,22.81,24.57,22.81S525.67,637.82,525.67,625.21Z"/>
            <path class="cls-34" d="M501.11,602.41c13.57,0,24.56,10.2,24.56,22.8S514.68,648,501.11,648s-24.57-10.2-24.57-22.81S487.53,602.41,501.11,602.41Zm8.06,23c.09-4.14-3.45-7.55-7.91-7.64a7.52,7.52,0,0,0-1.37,15,7.36,7.36,0,0,0,1.05,0c4.5,0,8.14-3.26,8.23-7.4Z"/>
            <path class="cls-35" d="M501.26,617.73c4.46.09,8,3.5,7.91,7.64s-3.77,7.42-8.23,7.35a7.52,7.52,0,0,1-.73-15,7.36,7.36,0,0,1,1.05,0Z"/>
          </g>
        </g>
        <g id="Tweeter-4">
          <g>
            <path class="cls-35" d="M501.1,546.64c10.67,0,19.29,8,19.29,17.9s-8.62,17.91-19.29,17.91-19.29-8-19.29-17.91S490.44,546.64,501.1,546.64Zm14,17.9c0-7.2-6.28-13-14-13s-14,5.83-14,13,6.28,13,14,13,14-5.8,14-13Z"/>
            <path class="cls-34" d="M501.1,551.51c7.76,0,14,5.83,14,13s-6.28,13-14,13-14-5.83-14-13S493.34,551.51,501.1,551.51Zm4.61,13a4.63,4.63,0,1,0-5,4.28h.35a4.44,4.44,0,0,0,4.61-4.26Z"/>
            <path class="cls-35" d="M501.1,560.27a4.29,4.29,0,1,1-4.62,4.27A4.46,4.46,0,0,1,501.1,560.27Z"/>
          </g>
        </g>
      </g>
      <g id="Middle-2">
        <rect id="Background-5" class="cls-34" x="454.91" y="332.37" width="97.53" height="133.28" rx="3.12"/>
        <g id="Bass-5">
          <g>
            <path class="cls-35" d="M503.58,389.06c18.66,0,33.76,14,33.76,31.35s-15.1,31.33-33.76,31.33-33.76-14-33.76-31.33S484.92,389.06,503.58,389.06Zm24.57,31.35c0-12.6-11-22.8-24.57-22.8S479,407.81,479,420.41s11,22.8,24.57,22.8,24.57-10.21,24.57-22.8Z"/>
            <path class="cls-34" d="M503.58,397.61c13.58,0,24.57,10.2,24.57,22.8s-11,22.8-24.57,22.8S479,433,479,420.41,490,397.61,503.58,397.61Zm8.06,23c.1-4.14-3.45-7.56-7.91-7.64a7.51,7.51,0,0,0-1,15c.23,0,.47,0,.7,0,4.46,0,8.14-3.28,8.23-7.4Z"/>
            <path class="cls-35" d="M503.73,412.93a7.51,7.51,0,1,1-.29,15,7.51,7.51,0,1,1-.38-15c.23,0,.47,0,.7,0Z"/>
          </g>
        </g>
        <g id="Tweeter-5">
          <g>
            <path class="cls-35" d="M503.58,341.84c10.65,0,19.29,8,19.29,17.91s-8.64,17.9-19.29,17.9-19.29-8-19.29-17.9S492.91,341.84,503.58,341.84Zm14,17.91c0-7.22-6.28-13-14-13s-14,5.82-14,13,6.28,13,14,13,14-5.75,14-13Z"/>
            <path class="cls-34" d="M503.58,346.71c7.76,0,14,5.82,14,13s-6.28,13-14,13-14-5.82-14-13S495.81,346.71,503.58,346.71Zm4.61,13a4.63,4.63,0,1,0-5,4.26h.36a4.46,4.46,0,0,0,4.61-4.23Z"/>
            <path class="cls-35" d="M503.58,355.46a4.29,4.29,0,1,1-4.62,4.29A4.46,4.46,0,0,1,503.58,355.46Z"/>
          </g>
        </g>
      </g>
      <g id="Top-2">
        <rect id="Background-6" class="cls-34" x="454.91" y="130.45" width="97.53" height="133.28" rx="3.12"/>
        <g id="Bass-6">
          <g>
            <path class="cls-35" d="M503.58,187.15c18.66,0,33.76,14,33.76,31.33s-15.1,31.35-33.76,31.35-33.76-14-33.76-31.35S484.92,187.15,503.58,187.15Zm24.57,31.35c0-12.6-11-22.8-24.57-22.8S479,205.9,479,218.5s11,22.8,24.57,22.8,24.57-10.2,24.57-22.8Z"/>
            <path class="cls-34" d="M503.58,195.7c13.58,0,24.57,10.2,24.57,22.8s-11,22.8-24.57,22.8S479,231.1,479,218.5,490,195.7,503.58,195.7Zm8.06,23c.1-4.15-3.45-7.57-7.91-7.64a7.51,7.51,0,0,0-1,15c.23,0,.47,0,.7,0,4.46,0,8.14-3.28,8.23-7.4Z"/>
            <path class="cls-35" d="M503.73,211a7.75,7.75,0,0,1,7.91,7.64c-.09,4.15-3.77,7.41-8.23,7.33a7.51,7.51,0,1,1-.38-15c.23,0,.47,0,.7,0Z"/>
          </g>
        </g>
        <g id="Tweeter-6">
          <g>
            <path class="cls-35" d="M503.57,139.93c10.66,0,19.29,8,19.29,17.9s-8.63,17.9-19.29,17.9-19.29-8-19.29-17.9S492.91,139.93,503.57,139.93Zm14,17.9c0-7.2-6.28-13-14-13s-14,5.83-14,13,6.28,13,14,13,14-5.83,14-13Z"/>
            <path class="cls-34" d="M503.57,144.8c7.76,0,14,5.83,14,13s-6.28,13-14,13-14-5.83-14-13S495.81,144.8,503.57,144.8Zm4.62,13a4.63,4.63,0,1,0-5,4.27h.35a4.45,4.45,0,0,0,4.62-4.25Z"/>
            <path class="cls-35" d="M503.57,153.55a4.29,4.29,0,1,1-4.61,4.28A4.47,4.47,0,0,1,503.57,153.55Z"/>
          </g>
        </g>
      </g>
    </g>
  </g>
  <g id="Logo">
    <rect class="cls-38" x="1209.72" y="19.23" width="125.45" height="125.45"/>
    <g id="Inner_Sine" data-name="Inner Sine">
      <rect class="cls-39" x="1255.88" y="55.04" width="31.46" height="13.17"/>
      <path class="cls-40" d="M1285.89,66.56h-4.19c-.57,0-.9-.39-1.24-1-.28.32-.5.55-.72.55l-1.43,0c-.3.38-.59.64-.94.64-1.42,0-3.2,0-3.22,0-1.69,0-2.7-1.71-3.69-3.35-.84-1.42-1.72-2.86-2.85-2.86h0c-1.18,0-2,1.25-2.81,2.71-1,1.69-2,3.3-3.82,3.3h-3.63V65.41h1.37c1-.52,2.24-2.57,3.15-4.37,1.21-2.37,2.46-4.79,4.55-4.79h0a2.51,2.51,0,0,1,1.25.35l.1.07a2.32,2.32,0,0,1,.63.15h0l.1,0a2.6,2.6,0,0,1,1-.23h0a2.74,2.74,0,0,1,1.57.59,5.7,5.7,0,0,1,1.17,1.22,24.05,24.05,0,0,1,1.89,3.18,14.08,14.08,0,0,0,2.73,4.07l.06.05h.35a8.59,8.59,0,0,0,.68-1c.59-.92,1-1.64,1.72-1.61a1.57,1.57,0,0,1,1.19.87l0,0c.6-.8,1.24-1.52,1.87-1.52h.06l.21,0,.14,0h.15c1.11.07,1.6,1.14,2,2.1.15.36.31.83.47.83h.14Zm-18.39-10a2.41,2.41,0,0,0-1.09-.31c-2,0-3.28,2.4-4.48,4.75-.9,1.77-1.82,3.52-3.08,4.38h.77c.07,0,.19,0,.25,0,1.29-.68,2.16-2.28,3.06-4,1.19-2.3,2.42-4.67,4.52-4.67h.16S1267.55,56.61,1267.5,56.59Zm.55.37a2.1,2.1,0,0,0-.6-.14h0c-1.91,0-3.1,2.3-4.24,4.53a11.67,11.67,0,0,1-2.84,4.06h.61c1.19,0,2-1.27,2.82-2.74a11.7,11.7,0,0,1,1.63-2.34.65.65,0,0,1,.09-.08l.08-.14a8.08,8.08,0,0,1,2.51-3.1Zm.18.15,0,0a7,7,0,0,0-2.32,2.78l0,0s0,0,0,0a2.69,2.69,0,0,1,1.74-.59h0c1.78,0,2.82,1.74,3.83,3.43.83,1.38,1.68,2.79,2.73,2.82h0c-1.3-.74-2.29-2.62-3.26-4.45a15.42,15.42,0,0,0-2.66-4Zm.12,0,.07.06a16.15,16.15,0,0,1,2.6,4c1,1.84,2,3.73,3.28,4.44l.09,0h.3l-.07,0c-1.13-.82-2-2.48-2.89-4.1C1270.73,59.64,1269.71,57.73,1268.35,57.12Zm8.26,8.49a14.85,14.85,0,0,1-2.64-4,25.79,25.79,0,0,0-1.87-3.14,5.67,5.67,0,0,0-1.18-1.17,2.47,2.47,0,0,0-1.45-.48h0a2.56,2.56,0,0,0-.79.11h0c1.35.74,2.35,2.6,3.32,4.42s1.91,3.56,3.16,4.21l.15.08h1.37Zm3-1.35a7.41,7.41,0,0,0-.75,1c-.13.2-.25.39-.37.56h.76a3.09,3.09,0,0,0,.78-.84l0-.05A3.83,3.83,0,0,0,1279.64,64.26Zm.64,1.06-.14-.28,0,0a3.75,3.75,0,0,1-.7.78h.33c.13,0,.34-.21.57-.49Zm2.64-2.82h-.19c-.61,0-1.26.74-1.84,1.51l0,0,.19.32,0,0a4.66,4.66,0,0,1,1.82-1.77l0,0Zm.65.3h-.06a1.9,1.9,0,0,0-.25,0c-.62,0-1.38,1-2,1.83l0,0c0,.06.06,0,.09.08.14.28.36.72.49.72h3.27c-.14,0-.26-.48-.4-.8a5.66,5.66,0,0,0-.92-1.65Zm1.44,1.89a4.14,4.14,0,0,0-1.12-1.75l-.13-.06.13.15a5.83,5.83,0,0,1,.85,1.55c.14.33.27.83.41.83h.24C1285.26,65.41,1285.14,65,1285,64.69Z"/>
    </g>
    <g id="Headphones">
      <rect class="cls-39" x="1245.51" y="20.04" width="51.77" height="54.53"/>
      <path class="cls-41" d="M1271.6,22.08a23.15,23.15,0,0,0-21.95,15.46h-.42l-.84-3.75a.42.42,0,0,0-.49-.32h0a.41.41,0,0,0-.31.49h0l.82,3.65v7.25a1.62,1.62,0,0,0,.82,1.4v.23a12,12,0,0,0,.52,3.29h0l1.49,4.63h0a12.05,12.05,0,0,1,.48,3V59.8a4.86,4.86,0,0,0,.83,9.41v2.72a.63.63,0,0,0,.62.61h3.73a.63.63,0,0,0,.62-.61V56.87a.63.63,0,0,0-.62-.61h-3.73a.63.63,0,0,0-.62.61v.62a12,12,0,0,0-.52-3.3h0l-1.49-4.63h0a12,12,0,0,1-.48-3,1.65,1.65,0,0,0,1.66-1.63,19.88,19.88,0,0,1,39.76,0,1.64,1.64,0,0,0,1.65,1.63,11.55,11.55,0,0,1-.48,3h0l-1.49,4.63h0a12,12,0,0,0-.51,3.3v-.62a.63.63,0,0,0-.62-.61h-3.73a.63.63,0,0,0-.62.61V71.93a.63.63,0,0,0,.62.61H1290a.63.63,0,0,0,.62-.61V69.21a4.86,4.86,0,0,0,.83-9.41V57.48a12,12,0,0,1,.47-3h0l1.49-4.63h0a12,12,0,0,0,.52-3.29v-.23a1.63,1.63,0,0,0,.83-1.4V37.62l.81-3.65a.4.4,0,0,0-.3-.49.37.37,0,0,0-.18,0,.42.42,0,0,0-.32.32l-.84,3.75h-.41a23.17,23.17,0,0,0-22-15.46Z"/>
    </g>
    <g id="Party">
      <path class="cls-39" d="M1209.72,128.42c55-.38,70.43-.38,125.44,0"/>
      <path class="cls-42" d="M1239.45,106.32v2.18a9.48,9.48,0,0,1-.42,2.94,8.08,8.08,0,0,1-1.12,2.28,8,8,0,0,1-1.62,1.7,9.8,9.8,0,0,1-4,1.79,10.46,10.46,0,0,1-1.93.2h-11.07v-4.8h11.07a6,6,0,0,0,1.7-.38,4.18,4.18,0,0,0,1.31-.83,3.58,3.58,0,0,0,.84-1.24,4.35,4.35,0,0,0,.3-1.66h0v-2.18a6.19,6.19,0,0,0-.39-1.67,3.9,3.9,0,0,0-.82-1.29,3.53,3.53,0,0,0-1.25-.84,4.43,4.43,0,0,0-1.69-.3h-11a2.06,2.06,0,0,0-1.49.49,2,2,0,0,0-.51,1.44h0v19.77h-4.89V104.15a6.62,6.62,0,0,1,.69-3.14,6.47,6.47,0,0,1,1.71-2.09,6.87,6.87,0,0,1,2.23-1.15,7.76,7.76,0,0,1,2.22-.36h11.07a10.11,10.11,0,0,1,3,.41,8.75,8.75,0,0,1,2.32,1.11,7.75,7.75,0,0,1,1.72,1.6,9.87,9.87,0,0,1,1.16,1.9,9,9,0,0,1,.67,2,9.43,9.43,0,0,1,.21,1.9Zm24,4.23v6.75a7.28,7.28,0,0,1-.36,2.16,6.48,6.48,0,0,1-1.16,2.14,6.33,6.33,0,0,1-2.09,1.65,6.67,6.67,0,0,1-3.13.67h-8.82a7.9,7.9,0,0,1-2.2-.35,6.61,6.61,0,0,1-2.18-1.14,6.34,6.34,0,0,1-1.68-2.05,6.49,6.49,0,0,1-.68-3.08h0a7.33,7.33,0,0,1,.36-2.16,6.14,6.14,0,0,1,1.15-2.15,6.46,6.46,0,0,1,2.09-1.66,6.84,6.84,0,0,1,3.14-.67h8.82v4.59h-8.82a2,2,0,0,0-1.55.6,2.15,2.15,0,0,0-.54,1.49h0a1.81,1.81,0,0,0,.63,1.47,2.26,2.26,0,0,0,1.49.53h8.79a2,2,0,0,0,1.54-.6,2.06,2.06,0,0,0,.55-1.48h0v-6.71a2,2,0,0,0-.59-1.5,2.17,2.17,0,0,0-1.5-.55H1246v-4.56h10.74a7.75,7.75,0,0,1,2.19.34,6.7,6.7,0,0,1,2.18,1.14,6.25,6.25,0,0,1,2.37,5.13Zm22-6.61v4.8h-11a2.07,2.07,0,0,0-1.5.49,1.91,1.91,0,0,0-.51,1.43h0v13.26h-4.89V110.66a7.19,7.19,0,0,1,.32-2.21,6.09,6.09,0,0,1,.86-1.73,6,6,0,0,1,1.23-1.28,7,7,0,0,1,1.46-.86,8.09,8.09,0,0,1,1.54-.49,7.78,7.78,0,0,1,1.46-.15h11Zm21.72,0v4.8h-8.54v15.18h-4.95V108.74h-6.36v-4.8h6.36V97.41h4.95v6.53Zm25.64,0v21.9a7,7,0,0,1-.32,2.23,6.39,6.39,0,0,1-.84,1.74,5.76,5.76,0,0,1-1.23,1.28,7.46,7.46,0,0,1-1.46.86,7.78,7.78,0,0,1-1.53.49,7.62,7.62,0,0,1-1.46.15h-8.83v-4.8H1326a2,2,0,0,0,1.46-.5,2,2,0,0,0,.49-1.45h0v-21.9ZM1326,119.11v4.81h-8.83a8.18,8.18,0,0,1-2.25-.35,6.7,6.7,0,0,1-2.23-1.16,6.23,6.23,0,0,1-1.71-2.09,6.67,6.67,0,0,1-.68-3.15h0V103.94h4.89v13.23a2,2,0,0,0,.51,1.45,2.08,2.08,0,0,0,1.51.49H1326Z"/>
    </g>
    <g id="Stream">
      <path class="cls-39" d="M1227,96.32c40.92-.22,49.92-.22,90.84,0"/>
      <path class="cls-43" d="M1243.82,89.13h0a4.94,4.94,0,0,1-.21,1.5,4.55,4.55,0,0,1-.57,1.17,3.78,3.78,0,0,1-.82.87,5.48,5.48,0,0,1-1,.58,4.94,4.94,0,0,1-1,.33,4.33,4.33,0,0,1-1,.11h-11V90.88h11a1.68,1.68,0,0,0,1.28-.47,1.78,1.78,0,0,0,.45-1.28h0a2.08,2.08,0,0,0-.12-.71,1.68,1.68,0,0,0-.34-.56,1.53,1.53,0,0,0-.55-.37,2.09,2.09,0,0,0-.72-.13h-6.57a5.25,5.25,0,0,1-1.5-.24,4.54,4.54,0,0,1-1.49-.78,4.16,4.16,0,0,1-1.14-1.42,4.61,4.61,0,0,1-.46-2.14h0a4.59,4.59,0,0,1,.46-2.13,4.22,4.22,0,0,1,1.14-1.41,4.38,4.38,0,0,1,1.49-.79,5.28,5.28,0,0,1,1.5-.25h9.72V81h-9.72a1.66,1.66,0,0,0-1.27.49,1.76,1.76,0,0,0-.46,1.28h0a1.73,1.73,0,0,0,.46,1.28,1.65,1.65,0,0,0,1.27.47h6.59a5.08,5.08,0,0,1,1,.13,4.64,4.64,0,0,1,1,.35,5.19,5.19,0,0,1,1,.6,4,4,0,0,1,.82.87,4.3,4.3,0,0,1,.56,1.16A4.92,4.92,0,0,1,1243.82,89.13ZM1256.18,82v2.8h-5v8.87h-2.89V84.82h-3.72V82h3.72V78.2h2.89V82Zm12.21,0v2.8H1262a1.23,1.23,0,0,0-.88.29,1.1,1.1,0,0,0-.3.84h0v7.74h-2.86V86a4,4,0,0,1,.19-1.3,3.53,3.53,0,0,1,.5-1,3.38,3.38,0,0,1,.72-.74,3.51,3.51,0,0,1,.85-.5,4.37,4.37,0,0,1,1.76-.38h6.45ZM1283,85.88h0a4.26,4.26,0,0,1-.21,1.26,3.53,3.53,0,0,1-.67,1.25,3.72,3.72,0,0,1-1.22,1,3.93,3.93,0,0,1-1.83.39h-5.16V87.08h5.16a1.13,1.13,0,0,0,.9-.35,1.24,1.24,0,0,0,.32-.87h0a1.07,1.07,0,0,0-.36-.86,1.26,1.26,0,0,0-.86-.31h-5.16a1.18,1.18,0,0,0-.9.34,1.28,1.28,0,0,0-.32.87h0v3.93a1.1,1.1,0,0,0,.36.87,1.29,1.29,0,0,0,.89.31h5.13v2.68h-5.16a4.77,4.77,0,0,1-1.28-.2,3.79,3.79,0,0,1-1.27-.67,3.71,3.71,0,0,1-1-1.2,3.79,3.79,0,0,1-.39-1.79h0v-4a4.19,4.19,0,0,1,.21-1.25,3.84,3.84,0,0,1,.67-1.26,3.8,3.8,0,0,1,1.22-1,4,4,0,0,1,1.83-.39h5.16a4.77,4.77,0,0,1,1.28.2,3.79,3.79,0,0,1,1.27.67,3.58,3.58,0,0,1,1,1.2A3.79,3.79,0,0,1,1283,85.88Zm14.1,0v4a4.25,4.25,0,0,1-.21,1.25A3.61,3.61,0,0,1,1295,93.3a3.93,3.93,0,0,1-1.83.39H1288a4.77,4.77,0,0,1-1.28-.2,3.89,3.89,0,0,1-1.27-.67,3.56,3.56,0,0,1-1-1.2,3.67,3.67,0,0,1-.4-1.79h0a4.37,4.37,0,0,1,.21-1.27,3.84,3.84,0,0,1,.67-1.26,3.94,3.94,0,0,1,1.22-1A4,4,0,0,1,1288,86h5.16v2.68H1288a1.15,1.15,0,0,0-.9.35,1.24,1.24,0,0,0-.32.87h0a1.1,1.1,0,0,0,.37.86,1.36,1.36,0,0,0,.88.3h5.13a1.15,1.15,0,0,0,.9-.34,1.24,1.24,0,0,0,.32-.87h0V85.88A1.15,1.15,0,0,0,1294,85a1.2,1.2,0,0,0-.87-.32h-6.28V82h6.28a4.71,4.71,0,0,1,1.28.2,3.79,3.79,0,0,1,1.27.67,3.58,3.58,0,0,1,1,1.2,3.79,3.79,0,0,1,.39,1.79Zm13.05.07v7.74h-2.86V86a1.1,1.1,0,0,0-.3-.84,1.2,1.2,0,0,0-.87-.29h-3.72v8.87h-2.86V83.41a1.37,1.37,0,0,1,.11-.54,1.35,1.35,0,0,1,.77-.74A1.36,1.36,0,0,1,1301,82h5.16a4.64,4.64,0,0,1,1.27.2,4.32,4.32,0,0,1,1.3.66h0L1306.2,82h6.38a4.49,4.49,0,0,1,.86.09,4.4,4.4,0,0,1,.89.29,3.51,3.51,0,0,1,.85.5,3.38,3.38,0,0,1,.72.74,3.79,3.79,0,0,1,.49,1,4,4,0,0,1,.19,1.3h0v7.74h-2.86V86a1.14,1.14,0,0,0-.28-.84,1.16,1.16,0,0,0-.86-.29H1310a4.54,4.54,0,0,1,.14,1.13Z"/>
    </g>
  </g>
</svg>
