<svg id="stage-background" xmlns="http://www.w3.org/2000/svg" xmlns:xlink="http://www.w3.org/1999/xlink" viewBox="0 0 1920 1080">
  <defs>
    <style>
      .cls-1 {
        fill: #9e86fc;
      }

      .cls-2 {
        fill: #6d6e70;
      }

      .cls-10, .cls-12, .cls-13, .cls-14, .cls-15, .cls-16, .cls-17, .cls-19, .cls-2, .cls-20, .cls-21, .cls-22, .cls-23, .cls-24, .cls-25, .cls-26, .cls-28, .cls-29, .cls-3, .cls-30, .cls-31, .cls-33, .cls-4, .cls-5, .cls-7, .cls-8, .cls-9 {
        fill-rule: evenodd;
      }

      .cls-3 {
        fill: #00656f;
      }

      .cls-4 {
        fill: #51bd9a;
      }

      .cls-5 {
        fill: #89cb9d;
      }

      .cls-6 {
        fill: #378da5;
      }

      .cls-27, .cls-7 {
        fill: #4e9cb3;
      }

      .cls-8 {
        fill: #2d3393;
      }

      .cls-9 {
        fill: #aeb2d0;
      }

      .cls-10 {
        fill: #a1bfe2;
      }

      .cls-11 {
        fill: #f06477;
      }

      .cls-12 {
        fill: #fffdf8;
      }

      .cls-13 {
        fill: #5d1668;
      }

      .cls-14 {
        fill: #f4897b;
      }

      .cls-15 {
        fill: #f6f08b;
      }

      .cls-16 {
        fill: #ed346b;
      }

      .cls-17 {
        fill: #f06174;
      }

      .cls-18, .cls-19 {
        fill: #9e2484;
      }

      .cls-20 {
        fill: #fcc787;
      }

      .cls-21 {
        fill: #690f63;
      }

      .cls-22 {
        fill: #333091;
      }

      .cls-23 {
        fill: #5e89c6;
      }

      .cls-24 {
        fill: #829cd0;
      }

      .cls-25 {
        fill: #f4cabc;
      }

      .cls-26 {
        fill: #5f2b8c;
      }

      .cls-28 {
        fill: #f8ddb0;
      }

      .cls-29 {
        fill: #ed3071;
      }

      .cls-30 {
        fill: #f4896a;
      }

      .cls-31 {
        fill: #fcc074;
      }

      .cls-32 {
        fill: #00aab2;
      }

      .cls-33 {
        fill: #611669;
      }

      .cls-34 {
        fill: #250049;
      }

      .cls-35 {
        fill: #8bcdff;
      }

      .cls-36, .cls-39 {
        fill: none;
      }

      .cls-36, .cls-37 {
        stroke: #000;
        stroke-miterlimit: 10;
      }

      .cls-36 {
        stroke-width: 3px;
      }

      .cls-37 {
        fill: #f70606;
      }

      .cls-38 {
        fill: url(#radial-gradient);
      }

      .cls-40 {
        fill: url(#linear-gradient);
      }

      .cls-41 {
        fill: url(#linear-gradient-2);
      }

      .cls-42 {
        fill: url(#linear-gradient-3);
      }

      .cls-43 {
        fill: url(#linear-gradient-4);
      }
    </style>
    <radialGradient id="radial-gradient" cx="960" cy="81.95" r="62.72" gradientUnits="userSpaceOnUse">
      <stop offset="0"/>
      <stop offset="1" stop-color="#fff" stop-opacity="0"/>
    </radialGradient>
    <linearGradient id="linear-gradient" x1="453.77" y1="1025.76" x2="454.07" y2="1025.76" gradientTransform="translate(-43525 -37646.93) scale(98 36.76)" gradientUnits="userSpaceOnUse">
      <stop offset="0" stop-color="#e78200"/>
      <stop offset="1" stop-color="#650d88"/>
    </linearGradient>
    <linearGradient id="linear-gradient-2" x1="456.43" y1="1042.16" x2="456.73" y2="1042.16" gradientTransform="matrix(164.91, 0, 0, -176.3, -74336.58, 183777.22)" gradientUnits="userSpaceOnUse">
      <stop offset="0" stop-color="#650d88"/>
      <stop offset="1" stop-color="#650d88"/>
    </linearGradient>
    <linearGradient id="linear-gradient-3" x1="458.79" y1="1044.72" x2="459.08" y2="1044.72" gradientTransform="matrix(413.02, 0, 0, -122.92, -188587.96, 128535.69)" gradientUnits="userSpaceOnUse">
      <stop offset="0" stop-color="#e78200"/>
      <stop offset="1" stop-color="#e78200"/>
    </linearGradient>
    <linearGradient id="linear-gradient-4" x1="458.34" y1="1050.01" x2="458.64" y2="1050.01" gradientTransform="matrix(303.83, 0, 0, -54.1, -138344.58, 56896.41)" xlink:href="#linear-gradient-2"/>
  </defs>
  <g id="Ground">
    <rect class="cls-1" x="-1148.12" y="680.39" width="4216.25" height="939.95"/>
  </g>
  <g id="Tents">
    <g id="Tents-2" data-name="Tents">
      <g id="Tent_8" data-name="Tent 8">
        <g>
          <path class="cls-2" d="M732.75,666.89a.55.55,0,0,0-.68.29L699.35,749a.54.54,0,1,0,1,.39h0l32.72-81.77a.52.52,0,0,0-.3-.67Z"/>
          <g>
            <path class="cls-3" d="M699.39,749.11a1.55,1.55,0,0,1,1.53,1.54l.08,8.57h-3.14v-8.57A1.55,1.55,0,0,1,699.39,749.11Z"/>
            <path class="cls-2" d="M829.75,585.36h0a.86.86,0,0,0-1.2.13h0L698.81,748.83a.89.89,0,0,0,.14,1.23h0a.87.87,0,0,0,1.22-.13L829.9,586.59A.88.88,0,0,0,829.75,585.36Z"/>
            <path class="cls-2" d="M829.49,585.36h0a.86.86,0,0,1,1.21.13h0L960.44,748.83a.88.88,0,0,1-.13,1.23h0a.86.86,0,0,1-1.21-.13h0L829.35,586.59A.89.89,0,0,1,829.49,585.36Z"/>
            <path class="cls-3" d="M829.68,584.75h0a.89.89,0,0,1,.89.89h0v2.21h0v2.38h-1.82v-2.38h0v-2.21a.89.89,0,0,1,.88-.9Z"/>
          </g>
          <path class="cls-4" d="M829.81,589.12l98.56,76.63L918,759.26H741.58l-10.34-93.51Z"/>
          <polygon class="cls-5" points="829.81 589.12 731.24 665.71 741.58 759.22 830.76 759.22 830.76 589.86 829.81 589.12"/>
          <rect class="cls-6" x="741.32" y="754.51" width="176.97" height="4.71"/>
          <polygon class="cls-7" points="829.83 657.2 779.47 742.51 796.75 759.22 829.83 657.2"/>
          <polygon class="cls-7" points="831.55 657.2 881.9 742.51 864.62 759.22 831.55 657.2"/>
          <polygon class="cls-8" points="796.75 759.22 864.9 759.22 830.72 655.59 796.75 759.22"/>
        </g>
      </g>
      <g id="Tent_7" data-name="Tent 7">
        <path class="cls-2" d="M493,675.13a.49.49,0,0,0-.62.26l-29.63,74a.48.48,0,0,0,.26.62.49.49,0,0,0,.62-.27l29.63-74A.48.48,0,0,0,493,675.13Z"/>
        <path class="cls-2" d="M668.81,675.13a.49.49,0,0,1,.62.26l29.63,74a.48.48,0,0,1-.26.62.49.49,0,0,1-.62-.27l-29.63-74A.48.48,0,0,1,668.81,675.13Z"/>
        <g>
          <path class="cls-3" d="M462.81,749.57a1.4,1.4,0,0,1,1.39,1.4l.06,7.76h-2.83V751A1.39,1.39,0,0,1,462.81,749.57Z"/>
          <path class="cls-3" d="M698.92,749.57h0a1.39,1.39,0,0,1,1.38,1.4h0l.07,7.76h-2.84V751A1.4,1.4,0,0,1,698.92,749.57Z"/>
          <path class="cls-2" d="M580.86,601.3h0a.8.8,0,0,0-1.1.12L462.29,749.32a.8.8,0,0,0,.12,1.12h0a.78.78,0,0,0,1.1-.12L581,602.42A.8.8,0,0,0,580.86,601.3Z"/>
          <path class="cls-2" d="M580.61,601.3h0a.8.8,0,0,1,1.1.12l117.47,147.9a.8.8,0,0,1-.12,1.12h0a.78.78,0,0,1-1.1-.12L580.49,602.42A.8.8,0,0,1,580.61,601.3Z"/>
          <path class="cls-3" d="M580.75,600.75h0a.81.81,0,0,1,.81.81h0v2h0v2.19h-1.62V603.6h0v-2a.8.8,0,0,1,.75-.85Z"/>
        </g>
        <path class="cls-9" d="M580.9,604.75l89.25,69.35-9.4,84.65H501l-9.36-84.67Z"/>
        <polygon class="cls-10" points="580.9 604.71 491.65 674.06 501.01 758.73 581.76 758.73 581.76 605.38 580.9 604.71"/>
        <rect class="cls-11" x="501.26" y="756.28" width="159.28" height="0.67"/>
        <rect class="cls-11" x="501.26" y="754.21" width="159.28" height="0.67"/>
        <rect class="cls-11" x="500.32" y="747.92" width="161.15" height="0.67"/>
        <path class="cls-12" d="M580.9,672.48c24,0,43.37,38.51,43.37,86v.27H537.53v-.23C537.53,711,557,672.48,580.9,672.48Z"/>
        <path class="cls-13" d="M540.37,758.75h81.06c-4.12-8-7.33-20.74-4.12-40.21l-.23-.23-35.33-45.24-.17-.28h-1.32l-.17.28-35.34,45.22-.23.23C547.75,738,544.49,750.75,540.37,758.75Z"/>
      </g>
      <g id="Tent_6" data-name="Tent 6">
        <g>
          <path class="cls-3" d="M226.21,748.18h0a1.48,1.48,0,0,1,1.39,1.56l.07,8.62h-2.84v-8.61A1.49,1.49,0,0,1,226.21,748.18Z"/>
          <path class="cls-3" d="M462.32,748.18h0a1.5,1.5,0,0,1,1.43,1.55v0l.06,8.62H461v-8.62A1.48,1.48,0,0,1,462.32,748.18Z"/>
          <path class="cls-2" d="M344.26,583.37a.72.72,0,0,0-1,0l-.07.09L225.68,747.92a1,1,0,0,0,.13,1.22.73.73,0,0,0,1,0l.07-.09L344.39,584.59A.93.93,0,0,0,344.26,583.37Z"/>
          <path class="cls-2" d="M344,583.37a.73.73,0,0,1,1,0,.27.27,0,0,1,.07.08L462.6,747.92a1,1,0,0,1-.13,1.22.73.73,0,0,1-1,0l-.07-.09L343.88,584.59A1,1,0,0,1,344,583.37Z"/>
          <path class="cls-3" d="M344.19,582.75h0a.87.87,0,0,1,.8.9v2.23h0v2.39h-1.61v-2.39h0v-2.23A.87.87,0,0,1,344.19,582.75Z"/>
        </g>
        <polygon class="cls-14" points="236.07 688.33 344.3 587.7 451.7 688.33 236.07 688.33"/>
        <polygon class="cls-15" points="265.28 675.72 344.61 600.31 423.33 675.72 265.28 675.72"/>
        <path class="cls-2" d="M236.84,687.94h0a.37.37,0,0,0-.42.29h0l-10.55,60.59a.35.35,0,0,0,.29.42h0a.36.36,0,0,0,.42-.29h0l10.55-60.59a.36.36,0,0,0-.29-.42Z"/>
        <path class="cls-16" d="M344.3,604.34l87.63,84-7.74,70H264.42l-7.75-70C285.29,662.15,317.6,631.33,344.3,604.34Z"/>
        <path class="cls-2" d="M450.54,688.11h0a.39.39,0,0,1,.44.28l12.31,60.26a.37.37,0,0,1-.28.43h0a.36.36,0,0,1-.44-.28l-12.31-60.26A.38.38,0,0,1,450.54,688.11Z"/>
        <path class="cls-17" d="M343.75,758.36H264.4l-7.75-70c28.43-26,60.5-56.59,87.1-83.46Z"/>
        <rect class="cls-18" x="263.82" y="752.99" width="160.87" height="0.78"/>
        <rect class="cls-18" x="263.82" y="755.76" width="160.87" height="0.78"/>
        <path class="cls-19" d="M344.3,668.68c25.48,0,46.12,40,46.12,89.44v.24H298.18v-.24C298.18,708.75,318.83,668.68,344.3,668.68Z"/>
        <path class="cls-20" d="M344.3,672.11c24,0,43.37,38.51,43.37,86v.23H300.93v-.23C300.93,710.62,320.35,672.11,344.3,672.11Z"/>
        <path class="cls-21" d="M303.75,758.36h81.06c-4.12-8-7.33-20.74-4.12-40.21l-.23-.23-35.33-45.17-.16-.28h-1.33l-.17.28L308.12,718l-.22.23C311.1,737.62,307.9,750.33,303.75,758.36Z"/>
      </g>
      <g id="Tent_5" data-name="Tent 5">
        <g>
          <path class="cls-3" d="M225.86,749h0a1.55,1.55,0,0,1,1.65,1.41l.08,7.78h-3.37v-7.78A1.55,1.55,0,0,1,225.86,749Z"/>
          <path class="cls-2" d="M85.51,600.31a1.07,1.07,0,0,0-1.34.15L-55.43,748.75a.75.75,0,0,0,0,1l.13.1a1.07,1.07,0,0,0,1.34-.15L85.63,601.44a.72.72,0,0,0,0-1Z"/>
          <path class="cls-2" d="M85.21,600.31a1.07,1.07,0,0,1,1.34.15l139.6,148.29a.75.75,0,0,1,0,1l-.13.1a1.06,1.06,0,0,1-1.29-.15L85.1,601.45a.73.73,0,0,1,0-1A.69.69,0,0,1,85.21,600.31Z"/>
          <path class="cls-3" d="M85.42,599.75h0a.9.9,0,0,1,1,.81v2h0v2.19H84.45V602.6h0v-2a.91.91,0,0,1,1-.85Z"/>
        </g>
        <path class="cls-22" d="M85.66,604.75c65.55,0,118.68,54.26,118.68,121.19v.33l-15.87,13.12H-17.15L-33,726.27v-.33C-33,659,20.12,604.75,85.66,604.75Z"/>
        <path class="cls-23" d="M85.66,604.33c56.79,0,102.82,68.72,102.82,153.48v.42H-17.15v-.42C-17.15,673.05,28.88,604.33,85.66,604.33Z"/>
        <path class="cls-24" d="M84.86,604.34c-56.42.65-102,69.11-102,153.47v.42h102Z"/>
        <path class="cls-22" d="M85.66,668.75c25.31,0,45.83,40,45.83,89.22v.24H39.83V758C39.83,708.75,60.35,668.75,85.66,668.75Z"/>
        <path class="cls-25" d="M85.66,672c24,0,43.37,38.51,43.37,86v.23H42.29V758C42.29,710.49,61.75,672,85.66,672Z"/>
        <path class="cls-26" d="M45.13,758.23h81.06c-4.12-8-7.33-20.74-4.12-40.21l-.23-.23L86.49,672.57l-.17-.28H85l-.17.28L49.48,717.75l-.22.23C52.46,737.49,49.26,750.2,45.13,758.23Z"/>
      </g>
    </g>
    <g id="Tents-3" data-name="Tents">
      <g id="Tent_4" data-name="Tent 4">
        <path class="cls-4" d="M1836.31,601.27l92.37,143.56-9.49,14.52H1753.42l-9.49-14.52Z"/>
        <path class="cls-3" d="M1714.21,750a1.43,1.43,0,0,1,1.43,1.43l.07,8h-2.94v-8A1.44,1.44,0,0,1,1714.21,750Z"/>
        <path class="cls-2" d="M1836.39,598.06h0a.83.83,0,0,0-1.14.12L1713.67,749.73a.8.8,0,0,0,.12,1.14h0a.81.81,0,0,0,1.14-.12h0L1836.5,599.2A.82.82,0,0,0,1836.39,598.06Z"/>
        <path class="cls-2" d="M1836.13,598.06h0a.83.83,0,0,1,1.14.12l121.58,151.55a.81.81,0,0,1-.13,1.14h0a.81.81,0,0,1-1.14-.12h0L1836,599.2a.81.81,0,0,1,.12-1.14Z"/>
        <path class="cls-3" d="M1836.31,597.49h0a.83.83,0,0,1,.83.83h0v2.06h0v2.2h-1.64v-2.2h0v-2.06A.84.84,0,0,1,1836.31,597.49Z"/>
        <polygon class="cls-5" points="1836.2 759.35 1753.59 759.35 1744.1 744.83 1836.2 601.71 1836.2 759.35"/>
        <rect class="cls-27" x="1750.66" y="754.87" width="171.41" height="4.47"/>
        <rect class="cls-27" x="1748.64" y="749.22" width="175.29" height="2.53"/>
        <polygon class="cls-28" points="1836.01 673.19 1793.48 745.23 1808.07 759.35 1836.01 673.19"/>
        <polygon class="cls-28" points="1837.46 673.19 1879.98 745.23 1865.39 759.35 1837.46 673.19"/>
        <polygon class="cls-3" points="1808.07 759.35 1865.63 759.35 1836.76 671.83 1808.07 759.35"/>
      </g>
      <g id="Tent_3" data-name="Tent 3">
        <g>
          <path class="cls-3" d="M1442.72,749a1.6,1.6,0,0,1,1.59,1.58l.08,8.78h-3.25v-8.78a1.58,1.58,0,0,1,1.58-1.58Z"/>
          <path class="cls-3" d="M1713.6,749h0a1.6,1.6,0,0,1,1.59,1.58l.08,8.78H1712v-8.78A1.59,1.59,0,0,1,1713.6,749Z"/>
          <path class="cls-2" d="M1578.16,581.12h0a.9.9,0,0,0-1.27.14h0L1442.13,748.68a.89.89,0,0,0,.12,1.26h0a.91.91,0,0,0,1.27-.13L1578.3,582.38A.91.91,0,0,0,1578.16,581.12Z"/>
          <path class="cls-2" d="M1577.87,581.12h0a.89.89,0,0,1,1.26.14h0L1713.9,748.68a.9.9,0,0,1-.13,1.26h0a.9.9,0,0,1-1.26-.13L1577.73,582.38a.89.89,0,0,1,.13-1.25Z"/>
          <path class="cls-3" d="M1578.07,580.49h0a.92.92,0,0,1,.92.92v2.27h0v2.43h-1.85v-2.43h0v-2.27A.93.93,0,0,1,1578.07,580.49Z"/>
        </g>
        <polygon class="cls-29" points="1454.03 686.07 1578.2 585.1 1701.42 686.07 1669.85 756.33 1486.55 756.33 1454.03 686.07"/>
        <path class="cls-2" d="M1454.92,685.76a.42.42,0,0,0-.49.34h0l-12.1,69.52a.41.41,0,0,0,.34.48.42.42,0,0,0,.49-.33h0l12.1-69.52A.43.43,0,0,0,1454.92,685.76Z"/>
        <path class="cls-30" d="M1578.2,601.79l100.54,84.28-8.89,70.26h-183.3l-8.89-70.26C1510.5,659.79,1547.56,628.87,1578.2,601.79Z"/>
        <path class="cls-2" d="M1700.09,686a.41.41,0,0,1,.48.32h0l14.13,69.13a.42.42,0,1,1-.82.17l-14.13-69.09a.41.41,0,0,1,.27-.52Z"/>
        <path class="cls-31" d="M1577.59,756.33h-91l-8.89-70.26c32.62-26.1,69.41-56.79,99.93-83.74Z"/>
        <rect class="cls-32" x="1486.08" y="751.78" width="184.34" height="0.86"/>
        <path class="cls-16" d="M1578.2,679.33c29.53,0,53.47,34.38,53.47,76.79v.21H1524.73v-.21C1524.73,713.71,1548.67,679.33,1578.2,679.33Z"/>
        <path class="cls-28" d="M1578.2,682.93c27.48,0,49.76,32.77,49.76,73.2v.2h-99.52v-.2C1528.44,715.7,1550.72,682.93,1578.2,682.93Z"/>
        <path class="cls-21" d="M1531.7,756.33h93c-4.73-6.83-8.41-17.65-4.73-34.22l-.26-.2-40.56-38.48-.19-.23h-1.52l-.19.23-40.56,38.48-.26.2C1540.11,738.68,1536.43,749.49,1531.7,756.33Z"/>
      </g>
      <g id="Tent_2" data-name="Tent 2">
        <path class="cls-22" d="M1330.19,613.93c36.7,57.46,23.88,37,92.74,145.18H1225l92.62-145C1323.89,614,1322.55,614,1330.19,613.93Z"/>
        <g>
          <path class="cls-3" d="M1205.88,750.49h0a1.38,1.38,0,0,1,1.39,1.32l.06,7.35h-2.83v-7.35a1.35,1.35,0,0,1,1.38-1.32Z"/>
          <path class="cls-3" d="M1442,750.49h0a1.36,1.36,0,0,1,1.38,1.32h0l.07,7.35h-2.84v-7.35A1.37,1.37,0,0,1,1442,750.49Z"/>
          <path class="cls-2" d="M1323.93,610h0a.83.83,0,0,0-1.11.13L1205.36,750.2a.72.72,0,0,0,.08,1l0,0h0a.81.81,0,0,0,1.11-.13l117.46-140a.73.73,0,0,0,0-1Z"/>
          <path class="cls-2" d="M1323.68,610h0a.83.83,0,0,1,1.11.13L1442.25,750.2a.74.74,0,0,1-.08,1l0,0h0a.8.8,0,0,1-1.1-.13l-117.46-140a.72.72,0,0,1,0-1Z"/>
          <path class="cls-3" d="M1323.85,609.49h0a.81.81,0,0,1,.81.77v1.9h0v2H1323v-2h0v-1.9a.79.79,0,0,1,.81-.77Z"/>
        </g>
        <path class="cls-23" d="M1329.58,613.93c33.1,57.46,21.54,37,83.64,145.18h-178.5c28.37-49.24,57.12-99.14,83.53-145C1323.9,614,1322.69,614,1329.58,613.93Z"/>
        <path class="cls-24" d="M1318.36,613.93c-33.1,57.46-21.54,37-83.64,145.18h89.6V614Z"/>
        <polygon class="cls-25" points="1323.68 648.5 1282.59 740.99 1296.69 759.11 1323.68 648.5"/>
        <polygon class="cls-25" points="1325.08 648.5 1366.17 740.99 1352.07 759.11 1325.08 648.5"/>
        <polygon class="cls-26" points="1296.69 759.11 1352.3 759.11 1324.41 646.76 1296.69 759.11"/>
      </g>
      <g id="Tent_1" data-name="Tent 1">
        <g>
          <path class="cls-3" d="M1205.93,749.79h0a1.43,1.43,0,0,1,1.44,1.4h0l.08,7.78h-3v-7.78a1.43,1.43,0,0,1,1.46-1.4Z"/>
          <path class="cls-2" d="M1083,601.05h0a.84.84,0,0,0-1.15.12L959.55,749.49a.78.78,0,0,0,.11,1.11h0a.82.82,0,0,0,1.15-.13l122.31-148.31a.8.8,0,0,0-.11-1.11Z"/>
          <path class="cls-2" d="M1082.75,601.05h0a.84.84,0,0,1,1.15.12l122.31,148.32a.79.79,0,0,1-.12,1.11h0a.82.82,0,0,1-1.15-.13l-122.3-148.31a.78.78,0,0,1,.09-1.1Z"/>
          <path class="cls-3" d="M1082.93,600.49h0a.83.83,0,0,1,.83.81h0v2h0v2.19h-1.68v-2.15h0v-2a.83.83,0,0,1,.81-.85Z"/>
        </g>
        <path class="cls-16" d="M1083.15,605.07c56.79,0,102.82,68.72,102.82,153.48V759H980.34v-.42C980.34,673.79,1026.37,605.07,1083.15,605.07Z"/>
        <path class="cls-17" d="M1082.35,605.08c-56.41.65-102,69.11-102,153.47V759h102Z"/>
        <path class="cls-19" d="M1083.15,652.13c30.07,0,54.44,47.7,54.44,106.55V759H1028.72v-.29C1028.72,699.83,1053.09,652.13,1083.15,652.13Z"/>
        <path class="cls-14" d="M1083.15,656c28.6,0,51.78,46,51.78,102.69V759H1031.38v-.28C1031.38,702,1054.56,656,1083.15,656Z"/>
        <g>
          <polygon class="cls-20" points="1082.45 656 1041.37 742.1 1055.46 758.97 1082.45 656"/>
          <polygon class="cls-20" points="1083.85 656 1124.94 742.1 1110.84 758.97 1083.85 656"/>
        </g>
        <polygon class="cls-33" points="1054.73 758.82 1111.58 758.82 1083.91 656.23 1082.39 656.23 1054.73 758.82"/>
      </g>
    </g>
  </g>
  <g id="Stage">
    <polygon id="Dark_Purple_Base" data-name="Dark Purple Base" class="cls-34" points="200 993.89 1720 987.42 1720 903 200 903 200 993.89"/>
    <polygon class="cls-35" points="1720 903 200 903 379 753 1545.04 753 1720 903"/>
  </g>
  <g id="Towers">
    <g id="Top_Tower" data-name="Top Tower">
      <line class="cls-36" x1="351.98" y1="43.38" x2="351.98" y2="116.15"/>
      <line class="cls-36" x1="428.92" y1="44.43" x2="428.92" y2="117.2"/>
      <line class="cls-36" x1="277.17" y1="43.91" x2="351.98" y2="116.67"/>
      <line class="cls-36" x1="428.92" y1="116.67" x2="351.98" y2="43.91"/>
      <line class="cls-36" x1="353.05" y1="116.67" x2="428.92" y2="43.91"/>
      <line class="cls-36" x1="503.73" y1="43.38" x2="503.73" y2="116.15"/>
      <line class="cls-36" x1="580.68" y1="44.43" x2="580.68" y2="117.2"/>
      <line class="cls-36" x1="428.92" y1="43.91" x2="503.73" y2="116.67"/>
      <line class="cls-36" x1="503.73" y1="43.91" x2="428.92" y2="116.67"/>
      <line class="cls-36" x1="580.68" y1="116.67" x2="503.73" y2="43.91"/>
      <line class="cls-36" x1="504.8" y1="116.67" x2="580.68" y2="43.91"/>
      <line class="cls-36" x1="655.48" y1="43.38" x2="655.48" y2="116.15"/>
      <line class="cls-36" x1="732.43" y1="44.43" x2="732.43" y2="117.2"/>
      <line class="cls-36" x1="580.68" y1="43.91" x2="655.48" y2="116.67"/>
      <line class="cls-36" x1="655.48" y1="43.91" x2="580.68" y2="116.67"/>
      <line class="cls-36" x1="732.43" y1="116.67" x2="655.48" y2="43.91"/>
      <line class="cls-36" x1="656.55" y1="116.67" x2="732.43" y2="43.91"/>
      <line class="cls-36" x1="807.24" y1="43.38" x2="807.24" y2="116.15"/>
      <line class="cls-36" x1="884.18" y1="44.43" x2="884.18" y2="117.2"/>
      <line class="cls-36" x1="732.43" y1="43.91" x2="807.24" y2="116.67"/>
      <line class="cls-36" x1="807.24" y1="43.91" x2="732.43" y2="116.67"/>
      <line class="cls-36" x1="884.18" y1="116.67" x2="807.24" y2="43.91"/>
      <line class="cls-36" x1="808.3" y1="116.67" x2="884.18" y2="43.91"/>
      <line class="cls-36" x1="960.06" y1="44.43" x2="960.06" y2="117.2"/>
      <line class="cls-36" x1="960.06" y1="116.67" x2="883.11" y2="43.91"/>
      <line class="cls-36" x1="884.18" y1="116.67" x2="960.06" y2="43.91"/>
      <line class="cls-36" x1="277.17" y1="116.67" x2="960.06" y2="116.67"/>
      <line class="cls-36" x1="1568.02" y1="43.5" x2="1568.02" y2="116.27"/>
      <line class="cls-36" x1="1491.08" y1="44.56" x2="1491.08" y2="117.33"/>
      <line class="cls-36" x1="1642.83" y1="44.03" x2="1568.02" y2="116.8"/>
      <line class="cls-36" x1="1491.08" y1="116.8" x2="1568.02" y2="44.03"/>
      <line class="cls-36" x1="1566.95" y1="116.8" x2="1491.08" y2="44.03"/>
      <line class="cls-36" x1="1416.27" y1="43.5" x2="1416.27" y2="116.27"/>
      <line class="cls-36" x1="1339.32" y1="44.56" x2="1339.32" y2="117.33"/>
      <line class="cls-36" x1="1491.08" y1="44.03" x2="1416.27" y2="116.8"/>
      <line class="cls-36" x1="1416.27" y1="44.03" x2="1491.08" y2="116.8"/>
      <line class="cls-36" x1="1339.32" y1="116.8" x2="1416.27" y2="44.03"/>
      <line class="cls-36" x1="1415.2" y1="116.8" x2="1339.32" y2="44.03"/>
      <line class="cls-36" x1="1264.52" y1="43.5" x2="1264.52" y2="116.27"/>
      <line class="cls-36" x1="1187.57" y1="44.56" x2="1187.57" y2="117.33"/>
      <line class="cls-36" x1="1339.32" y1="44.03" x2="1264.52" y2="116.8"/>
      <line class="cls-36" x1="1264.52" y1="44.03" x2="1339.32" y2="116.8"/>
      <line class="cls-36" x1="1187.57" y1="116.8" x2="1264.52" y2="44.03"/>
      <line class="cls-36" x1="1263.45" y1="116.8" x2="1187.57" y2="44.03"/>
      <line class="cls-36" x1="1112.76" y1="43.5" x2="1112.76" y2="116.27"/>
      <line class="cls-36" x1="1035.82" y1="44.56" x2="1035.82" y2="117.33"/>
      <line class="cls-36" x1="1187.57" y1="44.03" x2="1112.76" y2="116.8"/>
      <line class="cls-36" x1="1112.76" y1="44.03" x2="1187.57" y2="116.8"/>
      <line class="cls-36" x1="1035.82" y1="116.8" x2="1112.76" y2="44.03"/>
      <line class="cls-36" x1="1111.7" y1="116.8" x2="1035.82" y2="44.03"/>
      <line class="cls-36" x1="959.94" y1="44.56" x2="959.94" y2="117.33"/>
      <line class="cls-36" x1="959.94" y1="116.8" x2="1036.89" y2="44.03"/>
      <line class="cls-36" x1="1035.82" y1="116.8" x2="959.94" y2="44.03"/>
      <line class="cls-36" x1="1642.83" y1="116.8" x2="959.94" y2="116.8"/>
      <line class="cls-36" x1="1643.9" y1="44.03" x2="959.94" y2="44.03"/>
      <line class="cls-36" x1="1568.02" y1="44.03" x2="1642.83" y2="116.8"/>
      <line class="cls-36" x1="1644.62" y1="45.36" x2="1717.91" y2="115.32"/>
      <line class="cls-36" x1="1717.91" y1="45.36" x2="1643.6" y2="116.29"/>
      <rect class="cls-36" x="1643.6" y="44.39" width="76.4" height="71.9"/>
      <line class="cls-36" x1="276.1" y1="43.91" x2="960.06" y2="43.91"/>
      <line class="cls-36" x1="351.98" y1="43.91" x2="277.17" y2="116.67"/>
      <line class="cls-36" x1="275.38" y1="45.24" x2="202.09" y2="115.2"/>
      <line class="cls-36" x1="202.09" y1="45.24" x2="276.4" y2="116.17"/>
      <rect class="cls-36" x="200" y="44.27" width="76.4" height="71.9"/>
    </g>
    <g id="Right_Tower" data-name="Right Tower">
      <rect class="cls-36" x="1643.71" y="691.58" width="76.11" height="70.65"/>
      <line class="cls-36" x1="1718.8" y1="692.55" x2="1644.19" y2="762.23"/>
      <line class="cls-36" x1="1644.75" y1="692.55" x2="1718.8" y2="762.5"/>
      <rect class="cls-36" x="1643.71" y="619.68" width="76.11" height="71.9"/>
      <line class="cls-36" x1="1718.8" y1="620.65" x2="1643.72" y2="691.57"/>
      <line class="cls-36" x1="1644.75" y1="620.65" x2="1718.8" y2="690.6"/>
      <rect class="cls-36" x="1643.71" y="547.78" width="76.11" height="71.9"/>
      <line class="cls-36" x1="1718.8" y1="548.75" x2="1643.72" y2="619.67"/>
      <line class="cls-36" x1="1644.75" y1="548.75" x2="1718.8" y2="618.7"/>
      <rect class="cls-36" x="1643.71" y="475.88" width="76.11" height="71.9"/>
      <line class="cls-36" x1="1718.8" y1="476.85" x2="1643.72" y2="547.77"/>
      <line class="cls-36" x1="1644.75" y1="476.85" x2="1718.8" y2="546.8"/>
      <rect class="cls-36" x="1643.71" y="403.98" width="76.11" height="71.9"/>
      <line class="cls-36" x1="1718.8" y1="404.95" x2="1643.72" y2="475.87"/>
      <line class="cls-36" x1="1644.75" y1="404.95" x2="1718.8" y2="474.9"/>
      <rect class="cls-36" x="1643.71" y="332.08" width="76.11" height="71.9"/>
      <line class="cls-36" x1="1718.8" y1="333.05" x2="1643.72" y2="403.97"/>
      <line class="cls-36" x1="1644.75" y1="333.05" x2="1718.8" y2="403"/>
      <rect class="cls-36" x="1643.71" y="260.18" width="76.11" height="71.9"/>
      <line class="cls-36" x1="1718.8" y1="261.15" x2="1643.72" y2="332.07"/>
      <line class="cls-36" x1="1644.75" y1="261.15" x2="1718.8" y2="331.1"/>
      <rect class="cls-36" x="1643.71" y="188.28" width="76.11" height="71.9"/>
      <line class="cls-36" x1="1718.8" y1="189.25" x2="1643.72" y2="260.17"/>
      <line class="cls-36" x1="1644.75" y1="189.25" x2="1718.8" y2="259.2"/>
      <polyline class="cls-36" points="1643.89 188.19 1643.89 116.29 1720 116.29 1720 188.19"/>
      <line class="cls-36" x1="1718.97" y1="117.26" x2="1643.89" y2="188.19"/>
      <line class="cls-36" x1="1644.92" y1="117.26" x2="1718.97" y2="187.22"/>
      <rect class="cls-36" x="1643.61" y="761.62" width="76.11" height="70.65"/>
      <line class="cls-36" x1="1718.69" y1="762.58" x2="1644.07" y2="832.26"/>
      <line class="cls-36" x1="1644.63" y1="762.58" x2="1718.69" y2="832.54"/>
      <rect class="cls-36" x="1643.61" y="832.62" width="76.11" height="70.65"/>
      <line class="cls-36" x1="1718.69" y1="833.58" x2="1644.07" y2="903.26"/>
      <line class="cls-36" x1="1644.63" y1="833.58" x2="1718.69" y2="903.54"/>
    </g>
    <g id="Left_Tower" data-name="Left Tower">
      <rect class="cls-36" x="200.39" y="691.45" width="76" height="70.65"/>
      <line class="cls-36" x1="201.2" y1="692.42" x2="275.71" y2="762.1"/>
      <line class="cls-36" x1="275.15" y1="692.42" x2="201.2" y2="762.38"/>
      <rect class="cls-36" x="200.17" y="619.55" width="76" height="71.9"/>
      <line class="cls-36" x1="201.2" y1="620.52" x2="276.18" y2="691.45"/>
      <line class="cls-36" x1="275.15" y1="620.52" x2="201.2" y2="690.48"/>
      <rect class="cls-36" x="200.17" y="547.65" width="76" height="71.9"/>
      <line class="cls-36" x1="201.2" y1="548.62" x2="276.18" y2="619.55"/>
      <line class="cls-36" x1="275.15" y1="548.62" x2="201.2" y2="618.58"/>
      <rect class="cls-36" x="200.17" y="475.75" width="76" height="71.9"/>
      <line class="cls-36" x1="201.2" y1="476.72" x2="276.18" y2="547.65"/>
      <line class="cls-36" x1="275.15" y1="476.72" x2="201.2" y2="546.68"/>
      <rect class="cls-36" x="200.17" y="403.85" width="76" height="71.9"/>
      <line class="cls-36" x1="201.2" y1="404.82" x2="276.18" y2="475.75"/>
      <line class="cls-36" x1="275.15" y1="404.82" x2="201.2" y2="474.78"/>
      <rect class="cls-36" x="200.17" y="331.95" width="76" height="71.9"/>
      <line class="cls-36" x1="201.2" y1="332.92" x2="276.18" y2="403.85"/>
      <line class="cls-36" x1="275.15" y1="332.92" x2="201.2" y2="402.88"/>
      <rect class="cls-36" x="200.17" y="260.05" width="76" height="71.9"/>
      <line class="cls-36" x1="201.2" y1="261.02" x2="276.18" y2="331.95"/>
      <line class="cls-36" x1="275.15" y1="261.02" x2="201.2" y2="330.98"/>
      <rect class="cls-36" x="200.17" y="188.15" width="76" height="71.9"/>
      <line class="cls-36" x1="201.2" y1="189.12" x2="276.18" y2="260.05"/>
      <line class="cls-36" x1="275.15" y1="189.12" x2="201.2" y2="259.08"/>
      <polyline class="cls-36" points="276 188.07 276 116.17 200 116.17 200 188.07"/>
      <line class="cls-36" x1="201.03" y1="117.14" x2="276" y2="188.07"/>
      <line class="cls-36" x1="274.98" y1="117.14" x2="201.03" y2="187.1"/>
      <rect class="cls-36" x="200.4" y="762.18" width="76" height="70.65"/>
      <line class="cls-36" x1="275.37" y1="763.15" x2="200.86" y2="832.83"/>
      <line class="cls-36" x1="201.42" y1="763.15" x2="275.37" y2="833.1"/>
      <rect class="cls-36" x="200.4" y="833.18" width="76" height="70.65"/>
      <line class="cls-36" x1="275.37" y1="834.15" x2="200.86" y2="903.83"/>
      <line class="cls-36" x1="201.42" y1="834.15" x2="275.37" y2="904.1"/>
    </g>
  </g>
  <g id="Speakers">
    <g id="Right_Speakers" data-name="Right Speakers">
      <g id="Bottom">
        <rect id="Background" class="cls-34" x="1680" y="544.17" width="97.53" height="133.28" rx="3.12"/>
        <g id="Bass">
          <g>
            <path class="cls-35" d="M1728.67,600.87c18.66,0,33.75,14,33.75,31.34s-15.09,31.34-33.75,31.34-33.76-14-33.76-31.34S1710,600.87,1728.67,600.87Zm24.56,31.34c0-12.6-11-22.8-24.56-22.8s-24.57,10.2-24.57,22.8,11,22.81,24.57,22.81,24.56-10.2,24.56-22.81Z"/>
            <path class="cls-34" d="M1728.67,609.41c13.57,0,24.56,10.2,24.56,22.8s-11,22.81-24.56,22.81-24.57-10.2-24.57-22.81S1715.09,609.41,1728.67,609.41Zm8.06,23c.09-4.14-3.45-7.55-7.91-7.64a7.52,7.52,0,0,0-1.37,15,7.36,7.36,0,0,0,1,0c4.5,0,8.14-3.26,8.23-7.4Z"/>
            <path class="cls-35" d="M1728.82,624.73c4.46.09,8,3.5,7.91,7.64s-3.77,7.42-8.23,7.35a7.52,7.52,0,1,1-.73-15,7.36,7.36,0,0,1,1,0Z"/>
          </g>
        </g>
        <g id="Tweeter">
          <g>
            <path class="cls-35" d="M1728.66,553.64c10.67,0,19.29,8,19.29,17.9s-8.62,17.91-19.29,17.91-19.29-8-19.29-17.91S1718,553.64,1728.66,553.64Zm14,17.9c0-7.2-6.28-13-14-13s-14,5.83-14,13,6.28,13,14,13,14-5.8,14-13Z"/>
            <path class="cls-34" d="M1728.66,558.51c7.76,0,14,5.83,14,13s-6.28,13-14,13-14-5.83-14-13S1720.9,558.51,1728.66,558.51Zm4.61,13a4.63,4.63,0,1,0-5,4.28h.35a4.44,4.44,0,0,0,4.61-4.26Z"/>
            <path class="cls-35" d="M1728.66,567.27a4.29,4.29,0,1,1-4.62,4.27A4.46,4.46,0,0,1,1728.66,567.27Z"/>
          </g>
        </g>
      </g>
      <g id="Middle">
        <rect id="Background-2" class="cls-34" x="1682.47" y="339.37" width="97.53" height="133.28" rx="3.12"/>
        <g id="Bass-2">
          <g>
            <path class="cls-35" d="M1731.14,396.06c18.66,0,33.76,14,33.76,31.35s-15.1,31.33-33.76,31.33-33.76-14-33.76-31.33S1712.48,396.06,1731.14,396.06Zm24.57,31.35c0-12.6-11-22.8-24.57-22.8s-24.57,10.2-24.57,22.8,11,22.8,24.57,22.8S1755.71,440,1755.71,427.41Z"/>
            <path class="cls-34" d="M1731.14,404.61c13.58,0,24.57,10.2,24.57,22.8s-11,22.8-24.57,22.8-24.57-10.2-24.57-22.8S1717.56,404.61,1731.14,404.61Zm8.06,23c.1-4.14-3.45-7.56-7.91-7.64a7.51,7.51,0,0,0-1,15c.24,0,.47,0,.71,0,4.46,0,8.14-3.28,8.23-7.4Z"/>
            <path class="cls-35" d="M1731.29,419.93a7.76,7.76,0,0,1,7.91,7.64c-.09,4.14-3.77,7.41-8.23,7.33a7.51,7.51,0,0,1-.39-15c.24,0,.48,0,.71,0Z"/>
          </g>
        </g>
        <g id="Tweeter-2">
          <g>
            <path class="cls-35" d="M1731.14,348.84c10.65,0,19.29,8,19.29,17.91s-8.64,17.9-19.29,17.9-19.29-8-19.29-17.9S1720.47,348.84,1731.14,348.84Zm14,17.91c0-7.22-6.28-13-14-13s-14.05,5.82-14.05,13,6.28,13,14.05,13,14-5.75,14-13Z"/>
            <path class="cls-34" d="M1731.14,353.71c7.76,0,14,5.82,14,13s-6.28,13-14,13-14.05-5.82-14.05-13S1723.37,353.71,1731.14,353.71Zm4.61,13a4.63,4.63,0,1,0-5,4.26h.37a4.46,4.46,0,0,0,4.61-4.23Z"/>
            <path class="cls-35" d="M1731.14,362.46a4.29,4.29,0,1,1-4.62,4.29A4.46,4.46,0,0,1,1731.14,362.46Z"/>
          </g>
        </g>
      </g>
      <g id="Top">
        <rect id="Background-3" class="cls-34" x="1682.47" y="137.45" width="97.53" height="133.28" rx="3.12"/>
        <g id="Bass-3">
          <g>
            <path class="cls-35" d="M1731.14,194.15c18.66,0,33.76,14,33.76,31.33s-15.1,31.35-33.76,31.35-33.76-14-33.76-31.35S1712.48,194.15,1731.14,194.15Zm24.57,31.35c0-12.6-11-22.8-24.57-22.8s-24.57,10.2-24.57,22.8,11,22.8,24.57,22.8S1755.71,238.1,1755.71,225.5Z"/>
            <path class="cls-34" d="M1731.14,202.7c13.58,0,24.57,10.2,24.57,22.8s-11,22.8-24.57,22.8-24.57-10.2-24.57-22.8S1717.56,202.7,1731.14,202.7Zm8.06,23c.1-4.15-3.45-7.57-7.91-7.64a7.51,7.51,0,0,0-1,15c.24,0,.47,0,.71,0,4.46,0,8.14-3.28,8.23-7.4Z"/>
            <path class="cls-35" d="M1731.29,218a7.75,7.75,0,0,1,7.91,7.64c-.09,4.15-3.77,7.41-8.23,7.33a7.51,7.51,0,1,1-.39-15c.24,0,.48,0,.71,0Z"/>
          </g>
        </g>
        <g id="Tweeter-3">
          <g>
            <path class="cls-35" d="M1731.13,146.93c10.66,0,19.29,8,19.29,17.9s-8.63,17.9-19.29,17.9-19.29-8-19.29-17.9S1720.47,146.93,1731.13,146.93Zm14,17.9c0-7.2-6.28-13-14-13s-14,5.83-14,13,6.28,13,14,13,14-5.83,14-13Z"/>
            <path class="cls-34" d="M1731.13,151.8c7.76,0,14,5.83,14,13s-6.28,13-14,13-14-5.83-14-13S1723.37,151.8,1731.13,151.8Zm4.62,13a4.63,4.63,0,1,0-5,4.27h.35a4.45,4.45,0,0,0,4.62-4.25Z"/>
            <path class="cls-35" d="M1731.13,160.55a4.29,4.29,0,1,1-4.61,4.28A4.47,4.47,0,0,1,1731.13,160.55Z"/>
          </g>
        </g>
      </g>
    </g>
    <g id="Left_Speakers" data-name="Left Speakers">
      <g id="Bottom-2">
        <rect id="Background-4" class="cls-34" x="140" y="537.17" width="97.53" height="133.28" rx="3.12"/>
        <g id="Bass-4">
          <g>
            <path class="cls-35" d="M188.67,593.87c18.66,0,33.75,14,33.75,31.34s-15.09,31.34-33.75,31.34-33.76-14-33.76-31.34S170,593.87,188.67,593.87Zm24.56,31.34c0-12.6-11-22.8-24.56-22.8s-24.57,10.2-24.57,22.8S175.1,648,188.67,648,213.23,637.82,213.23,625.21Z"/>
            <path class="cls-34" d="M188.67,602.41c13.57,0,24.56,10.2,24.56,22.8S202.24,648,188.67,648s-24.57-10.2-24.57-22.81S175.09,602.41,188.67,602.41Zm8.06,23c.09-4.14-3.45-7.55-7.91-7.64a7.52,7.52,0,0,0-1.37,15,7.36,7.36,0,0,0,1.05,0c4.5,0,8.14-3.26,8.23-7.4Z"/>
            <path class="cls-35" d="M188.82,617.73c4.46.09,8,3.5,7.91,7.64s-3.77,7.42-8.23,7.35a7.52,7.52,0,1,1-.73-15,7.36,7.36,0,0,1,1,0Z"/>
          </g>
        </g>
        <g id="Tweeter-4">
          <g>
            <path class="cls-35" d="M188.66,546.64c10.67,0,19.29,8,19.29,17.9s-8.62,17.91-19.29,17.91-19.29-8-19.29-17.91S178,546.64,188.66,546.64Zm14,17.9c0-7.2-6.28-13-14-13s-14,5.83-14,13,6.28,13,14,13,14-5.8,14-13Z"/>
            <path class="cls-34" d="M188.66,551.51c7.76,0,14,5.83,14,13s-6.28,13-14,13-14-5.83-14-13S180.9,551.51,188.66,551.51Zm4.61,13a4.63,4.63,0,1,0-5,4.28h.35a4.44,4.44,0,0,0,4.61-4.26Z"/>
            <path class="cls-35" d="M188.66,560.27a4.29,4.29,0,1,1-4.62,4.27A4.46,4.46,0,0,1,188.66,560.27Z"/>
          </g>
        </g>
      </g>
      <g id="Middle-2">
        <rect id="Background-5" class="cls-34" x="142.47" y="332.37" width="97.53" height="133.28" rx="3.12"/>
        <g id="Bass-5">
          <g>
            <path class="cls-35" d="M191.14,389.06c18.66,0,33.76,14,33.76,31.35s-15.1,31.33-33.76,31.33-33.76-14-33.76-31.33S172.48,389.06,191.14,389.06Zm24.57,31.35c0-12.6-11-22.8-24.57-22.8s-24.57,10.2-24.57,22.8,11,22.8,24.57,22.8,24.57-10.21,24.57-22.8Z"/>
            <path class="cls-34" d="M191.14,397.61c13.58,0,24.57,10.2,24.57,22.8s-11,22.8-24.57,22.8-24.57-10.2-24.57-22.8S177.56,397.61,191.14,397.61Zm8.06,23c.1-4.14-3.45-7.56-7.91-7.64a7.51,7.51,0,0,0-1,15c.24,0,.47,0,.71,0,4.46,0,8.14-3.28,8.23-7.4Z"/>
            <path class="cls-35" d="M191.29,412.93a7.51,7.51,0,1,1-.29,15,7.51,7.51,0,1,1-.39-15c.24,0,.48,0,.71,0Z"/>
          </g>
        </g>
        <g id="Tweeter-5">
          <g>
            <path class="cls-35" d="M191.14,341.84c10.65,0,19.29,8,19.29,17.91s-8.64,17.9-19.29,17.9-19.29-8-19.29-17.9S180.47,341.84,191.14,341.84Zm14,17.91c0-7.22-6.28-13-14-13s-14,5.82-14,13,6.28,13,14,13,14-5.75,14-13Z"/>
            <path class="cls-34" d="M191.14,346.71c7.76,0,14,5.82,14,13s-6.28,13-14,13-14-5.82-14-13S183.37,346.71,191.14,346.71Zm4.61,13a4.63,4.63,0,1,0-5,4.26h.37a4.46,4.46,0,0,0,4.61-4.23Z"/>
            <path class="cls-35" d="M191.14,355.46a4.29,4.29,0,1,1-4.62,4.29A4.46,4.46,0,0,1,191.14,355.46Z"/>
          </g>
        </g>
      </g>
      <g id="Top-2">
        <rect id="Background-6" class="cls-34" x="142.47" y="130.45" width="97.53" height="133.28" rx="3.12"/>
        <g id="Bass-6">
          <g>
            <path class="cls-35" d="M191.14,187.15c18.66,0,33.76,14,33.76,31.33s-15.1,31.35-33.76,31.35-33.76-14-33.76-31.35S172.48,187.15,191.14,187.15Zm24.57,31.35c0-12.6-11-22.8-24.57-22.8s-24.57,10.2-24.57,22.8,11,22.8,24.57,22.8,24.57-10.2,24.57-22.8Z"/>
            <path class="cls-34" d="M191.14,195.7c13.58,0,24.57,10.2,24.57,22.8s-11,22.8-24.57,22.8-24.57-10.2-24.57-22.8S177.56,195.7,191.14,195.7Zm8.06,23c.1-4.15-3.45-7.57-7.91-7.64a7.51,7.51,0,0,0-1,15c.24,0,.47,0,.71,0,4.46,0,8.14-3.28,8.23-7.4Z"/>
            <path class="cls-35" d="M191.29,211a7.75,7.75,0,0,1,7.91,7.64c-.09,4.15-3.77,7.41-8.23,7.33a7.51,7.51,0,0,1-.39-15c.24,0,.48,0,.71,0Z"/>
          </g>
        </g>
        <g id="Tweeter-6">
          <g>
            <path class="cls-35" d="M191.13,139.93c10.66,0,19.29,8,19.29,17.9s-8.63,17.9-19.29,17.9-19.29-8-19.29-17.9S180.47,139.93,191.13,139.93Zm14,17.9c0-7.2-6.28-13-14-13s-14,5.83-14,13,6.28,13,14,13,14-5.83,14-13Z"/>
            <path class="cls-34" d="M191.13,144.8c7.76,0,14,5.83,14,13s-6.28,13-14,13-14-5.83-14-13S183.37,144.8,191.13,144.8Zm4.62,13a4.63,4.63,0,1,0-5,4.27h.35a4.45,4.45,0,0,0,4.62-4.25Z"/>
            <path class="cls-35" d="M191.13,153.55a4.29,4.29,0,1,1-4.61,4.28A4.47,4.47,0,0,1,191.13,153.55Z"/>
          </g>
        </g>
      </g>
    </g>
  </g>
  <rect id="Video_Player" data-name="Video Player" class="cls-37" x="300" y="138" width="1320" height="742.5"/>
  <g id="Logo">
    <rect class="cls-38" x="897.28" y="19.23" width="125.45" height="125.45"/>
    <g id="Inner_Sine" data-name="Inner Sine">
      <rect class="cls-39" x="943.44" y="55.04" width="31.46" height="13.17"/>
      <path class="cls-40" d="M973.44,66.56h-4.18c-.57,0-.91-.39-1.24-1-.28.32-.5.55-.72.55l-1.43,0c-.3.38-.59.64-.94.64-1.42,0-3.2,0-3.22,0-1.69,0-2.71-1.71-3.69-3.35-.84-1.42-1.72-2.86-2.85-2.86h0c-1.18,0-2,1.25-2.81,2.71-1,1.69-2,3.3-3.82,3.3H944.9V65.41h1.37c1-.52,2.24-2.57,3.15-4.37,1.21-2.37,2.46-4.79,4.55-4.79h0a2.51,2.51,0,0,1,1.25.35l.1.07a2.25,2.25,0,0,1,.62.15h0a.26.26,0,0,0,.09,0,2.7,2.7,0,0,1,1-.23h0a2.69,2.69,0,0,1,1.56.59,5.73,5.73,0,0,1,1.18,1.22,25.19,25.19,0,0,1,1.89,3.18,14.08,14.08,0,0,0,2.73,4.07l.06.05h.35a8.59,8.59,0,0,0,.68-1c.59-.92,1-1.64,1.72-1.61a1.57,1.57,0,0,1,1.19.87v0c.61-.8,1.25-1.52,1.88-1.52h.06l.21,0,.14,0h.15c1.11.07,1.6,1.14,2,2.1.15.36.31.83.47.83h.13Zm-18.38-10a2.41,2.41,0,0,0-1.09-.31c-2,0-3.28,2.4-4.48,4.75-.9,1.77-1.82,3.52-3.08,4.38h.77c.07,0,.19,0,.25,0,1.29-.68,2.16-2.28,3.06-4,1.19-2.3,2.42-4.67,4.52-4.67h.16Zm.55.37a2.1,2.1,0,0,0-.6-.14h0c-1.9,0-3.09,2.3-4.23,4.53a11.81,11.81,0,0,1-2.84,4.06h.61c1.19,0,2-1.27,2.82-2.74A11.7,11.7,0,0,1,953,60.33a.65.65,0,0,1,.09-.08s0-.1.08-.14a8.08,8.08,0,0,1,2.51-3.1Zm.18.15,0,0a7.11,7.11,0,0,0-2.31,2.78l0,0s0,0,0,0a2.69,2.69,0,0,1,1.74-.59h0c1.78,0,2.82,1.74,3.83,3.43.83,1.38,1.68,2.79,2.73,2.82h0c-1.3-.74-2.29-2.62-3.26-4.45a15.42,15.42,0,0,0-2.66-4Zm.12,0,.07.06a16.15,16.15,0,0,1,2.6,4c1,1.84,2,3.73,3.28,4.44l.09,0h.3l-.07,0c-1.13-.82-2-2.48-2.89-4.1C958.29,59.64,957.27,57.73,955.91,57.12Zm8.26,8.49a15.11,15.11,0,0,1-2.65-4,23.46,23.46,0,0,0-1.87-3.14,5.4,5.4,0,0,0-1.17-1.17,2.47,2.47,0,0,0-1.45-.48h0a2.56,2.56,0,0,0-.79.11h0c1.35.74,2.35,2.6,3.32,4.42s1.91,3.56,3.15,4.21l.16.08h1.36S964.19,65.63,964.17,65.61Zm3-1.35a6.68,6.68,0,0,0-.75,1c-.13.2-.25.39-.37.56h.76a3.09,3.09,0,0,0,.78-.84l0-.05A3.83,3.83,0,0,0,967.2,64.26Zm.64,1.06c0-.08-.09-.18-.15-.28l0,0a3.75,3.75,0,0,1-.7.78h.33c.13,0,.34-.21.57-.49Zm2.64-2.82h-.2c-.6,0-1.25.74-1.83,1.51l0,0,.19.32,0,0a4.66,4.66,0,0,1,1.82-1.77l0,0Zm.65.3h-.06a1.9,1.9,0,0,0-.25,0c-.63,0-1.39,1-2,1.83l0,0c0,.06.05,0,.08.08.15.28.36.72.5.72h3.26c-.13,0-.25-.48-.39-.8a5.66,5.66,0,0,0-.92-1.65Zm1.44,1.89a4.14,4.14,0,0,0-1.12-1.75l-.14-.06c.05,0,.09.1.14.15a5.83,5.83,0,0,1,.85,1.55c.14.33.27.83.41.83H973C972.82,65.41,972.7,65,972.57,64.69Z"/>
    </g>
    <g id="Headphones">
      <rect class="cls-39" x="933.07" y="20.04" width="51.77" height="54.53"/>
      <path class="cls-41" d="M959.16,22.08a23.15,23.15,0,0,0-21.95,15.46h-.42L936,33.79a.42.42,0,0,0-.49-.32h0a.41.41,0,0,0-.31.49h0l.81,3.65v7.25a1.63,1.63,0,0,0,.83,1.4v.23a12,12,0,0,0,.52,3.29h0l1.49,4.63h0a12.05,12.05,0,0,1,.48,3V59.8a4.86,4.86,0,0,0,.83,9.41v2.72a.63.63,0,0,0,.62.61h3.72a.63.63,0,0,0,.63-.61V56.87a.64.64,0,0,0-.63-.61h-3.72a.63.63,0,0,0-.62.61v.62a12,12,0,0,0-.52-3.3h0l-1.49-4.63h0a11.55,11.55,0,0,1-.48-3,1.65,1.65,0,0,0,1.66-1.63,19.88,19.88,0,0,1,39.75,0,1.65,1.65,0,0,0,1.66,1.63,11.55,11.55,0,0,1-.48,3h0l-1.49,4.63h0a12,12,0,0,0-.51,3.3v-.62a.64.64,0,0,0-.63-.61h-3.72a.63.63,0,0,0-.62.61V71.93a.63.63,0,0,0,.62.61h3.72a.63.63,0,0,0,.63-.61V69.21A4.86,4.86,0,0,0,979,59.8V57.48a12.05,12.05,0,0,1,.48-3h0L981,49.8h0a12,12,0,0,0,.52-3.29v-.23a1.63,1.63,0,0,0,.83-1.4V37.62l.81-3.65a.4.4,0,0,0-.3-.49.37.37,0,0,0-.18,0,.42.42,0,0,0-.32.32l-.84,3.75h-.41a23.17,23.17,0,0,0-22-15.46Z"/>
    </g>
    <g id="Party">
      <path class="cls-39" d="M897.28,128.42c55-.38,70.43-.38,125.44,0"/>
      <path class="cls-42" d="M927,106.32v2.18a9.48,9.48,0,0,1-.42,2.94,8.08,8.08,0,0,1-1.12,2.28,8,8,0,0,1-1.62,1.7,9.8,9.8,0,0,1-4,1.79,10.48,10.48,0,0,1-1.94.2H906.89v-4.8H918a6,6,0,0,0,1.71-.38,4,4,0,0,0,1.3-.83,3.47,3.47,0,0,0,.85-1.24,4.35,4.35,0,0,0,.3-1.66h0v-2.18a6.19,6.19,0,0,0-.39-1.67,3.9,3.9,0,0,0-.82-1.29,3.62,3.62,0,0,0-1.25-.84,4.49,4.49,0,0,0-1.7-.3h-11a2.06,2.06,0,0,0-1.49.49,2,2,0,0,0-.51,1.44h0v19.77H900V104.15a6.62,6.62,0,0,1,.69-3.14,6.47,6.47,0,0,1,1.71-2.09,6.77,6.77,0,0,1,2.23-1.15,7.76,7.76,0,0,1,2.22-.36H918a10.13,10.13,0,0,1,3,.41,8.75,8.75,0,0,1,2.32,1.11,7.7,7.7,0,0,1,1.71,1.6,9.93,9.93,0,0,1,1.17,1.9,9,9,0,0,1,.67,2,9.43,9.43,0,0,1,.21,1.9Zm24,4.23v6.75a7.28,7.28,0,0,1-.36,2.16,6.48,6.48,0,0,1-1.16,2.14,6.33,6.33,0,0,1-2.09,1.65,6.67,6.67,0,0,1-3.13.67h-8.82a7.9,7.9,0,0,1-2.2-.35,6.61,6.61,0,0,1-2.18-1.14,6.34,6.34,0,0,1-1.68-2.05,6.49,6.49,0,0,1-.68-3.08h0a7.33,7.33,0,0,1,.36-2.16,6.14,6.14,0,0,1,1.15-2.15,6.46,6.46,0,0,1,2.09-1.66,6.81,6.81,0,0,1,3.14-.67h8.82v4.59h-8.82a2,2,0,0,0-1.55.6,2.15,2.15,0,0,0-.54,1.49h0a1.83,1.83,0,0,0,.62,1.47,2.31,2.31,0,0,0,1.5.53h8.79a2,2,0,0,0,1.54-.6,2.06,2.06,0,0,0,.55-1.48h0v-6.71a2,2,0,0,0-.6-1.5,2.12,2.12,0,0,0-1.49-.55H933.54v-4.56h10.74a7.75,7.75,0,0,1,2.19.34,6.7,6.7,0,0,1,2.18,1.14,6.25,6.25,0,0,1,2.37,5.13Zm22-6.61v4.8H962a2.07,2.07,0,0,0-1.5.49,1.91,1.91,0,0,0-.51,1.43h0v13.26h-4.89V110.66a6.9,6.9,0,0,1,.32-2.21,6.09,6.09,0,0,1,.86-1.73,5.55,5.55,0,0,1,1.23-1.28,7,7,0,0,1,1.46-.86,8.09,8.09,0,0,1,1.54-.49,7.78,7.78,0,0,1,1.46-.15h11Zm21.72,0v4.8h-8.55v15.18h-4.94V108.74h-6.37v-4.8h6.37V97.41h4.94v6.53Zm25.64,0v21.9a7,7,0,0,1-.32,2.23,6.13,6.13,0,0,1-.85,1.74,5.5,5.5,0,0,1-1.22,1.28,7.46,7.46,0,0,1-1.46.86,7.78,7.78,0,0,1-1.53.49,7.64,7.64,0,0,1-1.47.15h-8.82v-4.8h8.82a2,2,0,0,0,1.47-.5,2,2,0,0,0,.49-1.45h0v-21.9Zm-6.85,15.17v4.81h-8.82a8.18,8.18,0,0,1-2.25-.35,6.7,6.7,0,0,1-2.23-1.16,6.23,6.23,0,0,1-1.71-2.09,6.67,6.67,0,0,1-.68-3.15h0V103.94h4.89v13.23a2,2,0,0,0,.51,1.45,2.07,2.07,0,0,0,1.5.49h8.79Z"/>
    </g>
    <g id="Stream">
      <path class="cls-39" d="M914.58,96.32c40.92-.22,49.92-.22,90.84,0"/>
      <path class="cls-43" d="M931.38,89.13h0a4.5,4.5,0,0,1-.78,2.67,3.78,3.78,0,0,1-.82.87,5.48,5.48,0,0,1-1,.58,4.94,4.94,0,0,1-1,.33,4.33,4.33,0,0,1-1,.11h-11V90.88h11a1.68,1.68,0,0,0,1.28-.47,1.78,1.78,0,0,0,.45-1.28h0a2.08,2.08,0,0,0-.12-.71,1.68,1.68,0,0,0-.34-.56,1.62,1.62,0,0,0-.55-.37,2.09,2.09,0,0,0-.72-.13h-6.57a5.2,5.2,0,0,1-1.5-.24,4.54,4.54,0,0,1-1.49-.78,4.16,4.16,0,0,1-1.14-1.42,4.49,4.49,0,0,1-.46-2.14h0a4.47,4.47,0,0,1,.46-2.13,4.22,4.22,0,0,1,1.14-1.41,4.38,4.38,0,0,1,1.49-.79,5.23,5.23,0,0,1,1.5-.25h9.72V81h-9.72a1.66,1.66,0,0,0-1.27.49,1.76,1.76,0,0,0-.46,1.28h0a1.73,1.73,0,0,0,.46,1.28,1.65,1.65,0,0,0,1.27.47h6.59a5.08,5.08,0,0,1,1,.13,4.64,4.64,0,0,1,1,.35,5.19,5.19,0,0,1,1,.6,4,4,0,0,1,.82.87,4.62,4.62,0,0,1,.56,1.16A4.92,4.92,0,0,1,931.38,89.13ZM943.74,82v2.8h-5v8.87h-2.89V84.82h-3.72V82h3.72V78.2h2.89V82Zm12.2,0v2.8h-6.43a1.2,1.2,0,0,0-.87.29,1.1,1.1,0,0,0-.3.84h0v7.74h-2.86V86a4,4,0,0,1,.19-1.3,3.53,3.53,0,0,1,.5-1,3.38,3.38,0,0,1,.72-.74,3.51,3.51,0,0,1,.85-.5,4.37,4.37,0,0,1,1.75-.38h6.45Zm14.62,3.86h0a4.26,4.26,0,0,1-.21,1.26,3.68,3.68,0,0,1-1.89,2.22,3.93,3.93,0,0,1-1.83.39h-5.16V87.08h5.16a1.14,1.14,0,0,0,.9-.35,1.24,1.24,0,0,0,.32-.87h0a1.07,1.07,0,0,0-.36-.86,1.26,1.26,0,0,0-.86-.31h-5.16a1.15,1.15,0,0,0-.9.34,1.28,1.28,0,0,0-.32.87h0v3.93a1.1,1.1,0,0,0,.36.87,1.28,1.28,0,0,0,.88.31h5.14v2.68h-5.16a4.77,4.77,0,0,1-1.28-.2,3.79,3.79,0,0,1-1.27-.67,3.71,3.71,0,0,1-1-1.2,3.79,3.79,0,0,1-.39-1.79h0v-4a4.19,4.19,0,0,1,.21-1.25,3.84,3.84,0,0,1,.67-1.26,3.69,3.69,0,0,1,1.22-1,3.93,3.93,0,0,1,1.83-.39h5.16a4.77,4.77,0,0,1,1.28.2,3.89,3.89,0,0,1,1.27.67,3.71,3.71,0,0,1,1,1.2A3.79,3.79,0,0,1,970.56,85.88Zm14.1,0v4a4.25,4.25,0,0,1-.21,1.25,3.61,3.61,0,0,1-1.89,2.22,3.93,3.93,0,0,1-1.83.39h-5.16a4.77,4.77,0,0,1-1.28-.2,3.89,3.89,0,0,1-1.27-.67,3.56,3.56,0,0,1-1-1.2,3.67,3.67,0,0,1-.4-1.79h0a4.37,4.37,0,0,1,.21-1.27,3.61,3.61,0,0,1,1.89-2.22,3.93,3.93,0,0,1,1.83-.39h5.16v2.68h-5.16a1.14,1.14,0,0,0-.9.35,1.24,1.24,0,0,0-.32.87h0a1.1,1.1,0,0,0,.37.86,1.36,1.36,0,0,0,.88.3h5.13a1.15,1.15,0,0,0,.9-.34,1.24,1.24,0,0,0,.32-.87h0V85.88a1.15,1.15,0,0,0-.35-.87,1.2,1.2,0,0,0-.87-.32h-6.28V82h6.28a4.77,4.77,0,0,1,1.28.2,3.79,3.79,0,0,1,1.27.67,3.71,3.71,0,0,1,1,1.2,3.79,3.79,0,0,1,.39,1.79Zm13.05.07v7.74h-2.86V86a1.1,1.1,0,0,0-.3-.84,1.22,1.22,0,0,0-.87-.29H990v8.87H987.1V83.41a1.37,1.37,0,0,1,.11-.54,1.35,1.35,0,0,1,.77-.74,1.33,1.33,0,0,1,.56-.11h5.16a4.64,4.64,0,0,1,1.27.2,4.32,4.32,0,0,1,1.3.66h0L993.76,82h6.38a4.32,4.32,0,0,1,.85.09,4.48,4.48,0,0,1,.9.29,3.51,3.51,0,0,1,.85.5,3.38,3.38,0,0,1,.72.74,3.79,3.79,0,0,1,.49,1,4.34,4.34,0,0,1,.19,1.3h0v7.74h-2.86V86a1.14,1.14,0,0,0-.28-.84,1.16,1.16,0,0,0-.86-.29h-2.58a4.11,4.11,0,0,1,.15,1.13Z"/>
    </g>
  </g>
</svg>
