<svg xmlns="http://www.w3.org/2000/svg" viewBox="0 0 1920 1080"><defs><style>.cls-1{fill:#7321e8;}.cls-2{fill:#00656f;}.cls-10,.cls-11,.cls-12,.cls-13,.cls-14,.cls-15,.cls-16,.cls-18,.cls-19,.cls-2,.cls-20,.cls-21,.cls-23,.cls-24,.cls-26,.cls-27,.cls-29,.cls-3,.cls-30,.cls-32,.cls-33,.cls-4,.cls-5,.cls-6,.cls-7,.cls-8,.cls-9{fill-rule:evenodd;}.cls-3{fill:#6d6e70;}.cls-4{fill:#ed346b;}.cls-5{fill:#f06174;}.cls-25,.cls-6{fill:#9e2484;}.cls-7{fill:#f4897b;}.cls-8{fill:#fcc787;}.cls-9{fill:#611669;}.cls-10{fill:#333091;}.cls-11{fill:#5e89c6;}.cls-12{fill:#829cd0;}.cls-13{fill:#f4cabc;}.cls-14{fill:#5f2b8c;}.cls-15{fill:#51bd9a;}.cls-16{fill:#89cb9d;}.cls-17,.cls-32{fill:#4e9cb3;}.cls-18{fill:#f8ddb0;}.cls-19{fill:#ed3071;}.cls-20{fill:#f4896a;}.cls-21{fill:#fcc074;}.cls-22{fill:#00aab2;}.cls-23{fill:#690f63;}.cls-24{fill:#f6f08b;}.cls-26{fill:#aeb2d0;}.cls-27{fill:#a1bfe2;}.cls-28{fill:#f06477;}.cls-29{fill:#fffdf8;}.cls-30{fill:#5d1668;}.cls-31{fill:#378da5;}.cls-33{fill:#2d3393;}.cls-34{fill:#250049;}.cls-35{fill:#8bcdff;}.cls-36{fill:none;stroke:#000;stroke-miterlimit:10;stroke-width:3px;}</style></defs><g id="Ground"><rect class="cls-1" x="-63" y="642.39" width="2018" height="444.59"/></g><g id="Tents"><path class="cls-2" d="M199.43,711.58h0a1.42,1.42,0,0,1,1.44,1.4l.08,7.78h-3V713A1.43,1.43,0,0,1,199.43,711.58Z"/><path class="cls-3" d="M76.51,562.84h0a.83.83,0,0,0-1.15.12L-46.95,711.32a.79.79,0,0,0,.12,1.12h0a.83.83,0,0,0,1.15-.12L76.63,564A.79.79,0,0,0,76.51,562.84Z"/><path class="cls-3" d="M76.25,562.84h0a.83.83,0,0,1,1.15.12L199.71,711.32a.79.79,0,0,1-.13,1.12h0a.83.83,0,0,1-1.15-.12L76.13,564A.78.78,0,0,1,76.25,562.84Z"/><path class="cls-2" d="M76.43,562.28h0a.83.83,0,0,1,.83.82v2h0v2.15H75.58v-2.15h0v-2A.83.83,0,0,1,76.43,562.28Z"/><path class="cls-4" d="M76.65,566.86c56.79,0,102.82,68.72,102.82,153.48v.42H-26.16v-.42C-26.16,635.58,19.87,566.86,76.65,566.86Z"/><path class="cls-5" d="M75.85,566.88c-56.41.64-102,69.1-102,153.46v.42h102Z"/><path class="cls-6" d="M76.65,613.92c30.07,0,54.44,47.7,54.44,106.55v.29H22.22v-.29C22.22,661.62,46.59,613.92,76.65,613.92Z"/><path class="cls-7" d="M76.65,617.79c28.6,0,51.78,46,51.78,102.69v.28H24.88v-.28C24.88,663.77,48.06,617.79,76.65,617.79Z"/><polygon class="cls-8" points="75.95 617.79 34.87 703.89 48.96 720.76 75.95 617.79"/><polygon class="cls-8" points="77.35 617.79 118.44 703.89 104.34 720.76 77.35 617.79"/><polygon class="cls-9" points="48.23 720.61 105.08 720.61 77.41 618.02 75.89 618.02 48.23 720.61"/><path class="cls-10" d="M323.69,573.81c36.7,57.46,23.88,37,92.74,145.18H218.51l92.62-145C317.39,573.9,316.05,573.9,323.69,573.81Z"/><path class="cls-2" d="M199.38,710.32h0a1.37,1.37,0,0,1,1.39,1.33l.06,7.34H198v-7.34A1.36,1.36,0,0,1,199.38,710.32Z"/><path class="cls-2" d="M435.49,710.32h0a1.36,1.36,0,0,1,1.38,1.33l.07,7.34H434.1v-7.34A1.37,1.37,0,0,1,435.49,710.32Z"/><path class="cls-3" d="M317.43,569.9h0a.82.82,0,0,0-1.11.12L198.86,710.08a.73.73,0,0,0,.12,1.06h0a.82.82,0,0,0,1.11-.12L317.55,571A.73.73,0,0,0,317.43,569.9Z"/><path class="cls-3" d="M317.18,569.9h0a.82.82,0,0,1,1.11.12L435.75,710.08a.73.73,0,0,1-.12,1.06h0a.81.81,0,0,1-1.1-.12L317.07,571A.72.72,0,0,1,317.18,569.9Z"/><path class="cls-2" d="M317.35,569.37h0a.8.8,0,0,1,.81.77V572h0v2h-1.62v-2h0v-1.9A.79.79,0,0,1,317.35,569.37Z"/><path class="cls-11" d="M323.08,573.81c33.1,57.46,21.54,37,83.64,145.18H228.22c28.37-49.24,57.12-99.14,83.53-145C317.4,573.9,316.19,573.9,323.08,573.81Z"/><path class="cls-12" d="M311.86,573.81c-33.1,57.46-21.54,37-83.64,145.18h89.6V573.89Z"/><polygon class="cls-13" points="317.18 608.38 276.09 700.87 290.19 718.99 317.18 608.38"/><polygon class="cls-13" points="318.58 608.38 359.67 700.87 345.57 718.99 318.58 608.38"/><polygon class="cls-14" points="290.19 718.99 345.8 718.99 317.91 606.64 290.19 718.99"/><path class="cls-15" d="M829.81,557.71l92.37,143.56-9.49,14.51H746.92l-9.49-14.51Q783.62,629.48,829.81,557.71Z"/><path class="cls-2" d="M707.71,706.42a1.44,1.44,0,0,1,1.43,1.44l.07,7.95h-2.94v-7.95A1.45,1.45,0,0,1,707.71,706.42Z"/><path class="cls-2" d="M952.07,706.42a1.45,1.45,0,0,1,1.44,1.44l.07,7.95h-2.94v-7.95A1.44,1.44,0,0,1,952.07,706.42Z"/><path class="cls-3" d="M829.89,554.49h0a.81.81,0,0,0-1.14.13L707.17,706.17a.81.81,0,0,0,.12,1.14h0a.81.81,0,0,0,1.14-.13L830,555.64A.82.82,0,0,0,829.89,554.49Z"/><path class="cls-3" d="M829.63,554.49h0a.81.81,0,0,1,1.14.13L952.35,706.17a.81.81,0,0,1-.13,1.14h0a.81.81,0,0,1-1.14-.13L829.5,555.64A.82.82,0,0,1,829.63,554.49Z"/><path class="cls-2" d="M829.81,553.93h0a.83.83,0,0,1,.83.83v2h0V559H829v-2.21h0v-2A.84.84,0,0,1,829.81,553.93Z"/><polygon class="cls-16" points="829.7 715.78 747.09 715.78 737.6 701.27 829.7 558.14 829.7 715.78"/><rect class="cls-17" x="744.16" y="711.31" width="171.41" height="4.47"/><rect class="cls-17" x="742.14" y="705.66" width="175.29" height="2.53"/><polygon class="cls-18" points="829.51 629.62 786.98 701.67 801.57 715.78 829.51 629.62"/><polygon class="cls-18" points="830.96 629.62 873.48 701.67 858.89 715.78 830.96 629.62"/><polygon class="cls-2" points="801.57 715.78 859.13 715.78 830.26 628.27 801.57 715.78"/><path class="cls-2" d="M436.22,708.6a1.59,1.59,0,0,1,1.59,1.58l.08,8.78h-3.25v-8.78A1.58,1.58,0,0,1,436.22,708.6Z"/><path class="cls-2" d="M707.1,708.6h0a1.59,1.59,0,0,1,1.59,1.58l.08,8.78h-3.26v-8.78A1.59,1.59,0,0,1,707.1,708.6Z"/><path class="cls-3" d="M571.66,540.75h0a.9.9,0,0,0-1.27.14L435.63,708.31a.9.9,0,0,0,.13,1.27h0a.92.92,0,0,0,1.27-.14L571.8,542A.9.9,0,0,0,571.66,540.75Z"/><path class="cls-3" d="M571.37,540.75h0a.9.9,0,0,1,1.27.14L707.4,708.31a.91.91,0,0,1-.13,1.27h0a.91.91,0,0,1-1.26-.14L571.23,542A.89.89,0,0,1,571.37,540.75Z"/><path class="cls-2" d="M571.57,540.12h0a.92.92,0,0,1,.92.92v2.27h0v2.43h-1.85v-2.43h0V541A.93.93,0,0,1,571.57,540.12Z"/><polygon class="cls-19" points="447.53 645.7 571.7 544.73 694.92 645.7 663.35 715.96 480.05 715.96 447.53 645.7"/><path class="cls-3" d="M448.42,645.39a.42.42,0,0,0-.49.34l-12.1,69.52a.42.42,0,0,0,.34.48.42.42,0,0,0,.49-.34l12.1-69.51A.42.42,0,0,0,448.42,645.39Z"/><path class="cls-20" d="M571.7,561.42,672.24,645.7,663.35,716H480.05l-8.89-70.26C504,619.42,541.06,588.51,571.7,561.42Z"/><path class="cls-3" d="M693.59,645.58a.41.41,0,0,1,.49.33L708.21,715a.42.42,0,0,1-.32.5.43.43,0,0,1-.5-.33l-14.13-69.13A.42.42,0,0,1,693.59,645.58Z"/><path class="cls-21" d="M571.09,716h-91l-8.89-70.26c32.62-26.1,69.41-56.79,99.93-83.74Z"/><rect class="cls-22" x="479.58" y="711.41" width="184.34" height="0.86"/><path class="cls-4" d="M571.7,639c29.53,0,53.47,34.38,53.47,76.79V716H518.23v-.21C518.23,673.34,542.17,639,571.7,639Z"/><path class="cls-18" d="M571.7,642.56c27.48,0,49.76,32.77,49.76,73.2v.2H521.94v-.2C521.94,675.33,544.22,642.56,571.7,642.56Z"/><path class="cls-23" d="M525.2,716h93c-4.73-6.83-8.41-17.65-4.73-34.22l-.26-.19-40.56-38.49-.19-.23h-1.52l-.19.23-40.56,38.49-.26.19C533.61,698.31,529.93,709.13,525.2,716Z"/><path class="cls-2" d="M954.42,706.25h0a1.54,1.54,0,0,1,1.64,1.4l.09,7.79h-3.38v-7.79A1.54,1.54,0,0,1,954.42,706.25Z"/><path class="cls-2" d="M1235.11,706.25h0a1.54,1.54,0,0,1,1.65,1.4l.08,7.79h-3.37v-7.79A1.54,1.54,0,0,1,1235.11,706.25Z"/><path class="cls-3" d="M1094.76,557.51a1.08,1.08,0,0,0-1.34.16L953.82,706a.74.74,0,0,0,.12,1.15,1.09,1.09,0,0,0,1.34-.15l139.6-148.31A.74.74,0,0,0,1094.76,557.51Z"/><path class="cls-3" d="M1094.46,557.51a1.08,1.08,0,0,1,1.34.16L1235.4,706a.74.74,0,0,1-.11,1.15A1.09,1.09,0,0,1,1234,707l-139.6-148.31A.74.74,0,0,1,1094.46,557.51Z"/><path class="cls-2" d="M1094.67,557h0a.89.89,0,0,1,.95.81v2h0v2.16h-1.92v-2.16h0v-2A.89.89,0,0,1,1094.67,557Z"/><path class="cls-10" d="M1094.91,562c65.55,0,118.68,54.26,118.68,121.19v.33l-15.87,13.11H992.1L976.24,683.5c0-.11,0-.22,0-.33C976.23,616.24,1029.37,562,1094.91,562Z"/><path class="cls-11" d="M1094.91,561.54c56.79,0,102.82,68.71,102.82,153.48,0,.14,0,.28,0,.42H992.1V715C992.1,630.25,1038.13,561.54,1094.91,561.54Z"/><path class="cls-12" d="M1094.11,561.55c-56.42.65-102,69.11-102,153.47v.42h102Z"/><path class="cls-10" d="M1094.91,626c25.31,0,45.83,39.94,45.83,89.21v.25h-91.66v-.25C1049.08,665.92,1069.6,626,1094.91,626Z"/><path class="cls-13" d="M1094.91,629.18c24,0,43.37,38.52,43.37,86v.24h-86.74v-.24C1051.54,667.7,1071,629.18,1094.91,629.18Z"/><path class="cls-14" d="M1054.38,715.44h81.06c-4.12-8-7.33-20.74-4.12-40.22l-.23-.22-35.35-45.23-.17-.27h-1.32l-.17.27L1058.73,675l-.22.22C1061.71,694.7,1058.51,707.41,1054.38,715.44Z"/><path class="cls-2" d="M1235.46,704.51h0a1.48,1.48,0,0,1,1.39,1.55l.07,8.62h-2.84v-8.62A1.48,1.48,0,0,1,1235.46,704.51Z"/><path class="cls-2" d="M1471.57,704.51h0a1.49,1.49,0,0,1,1.39,1.55l.06,8.62h-2.83v-8.62A1.48,1.48,0,0,1,1471.57,704.51Z"/><path class="cls-3" d="M1353.51,539.69a.72.72,0,0,0-1.09.13L1234.93,704.24a1,1,0,0,0,.13,1.23.73.73,0,0,0,1.1-.13l117.48-164.42A1,1,0,0,0,1353.51,539.69Z"/><path class="cls-3" d="M1353.26,539.69a.73.73,0,0,1,1.1.13l117.49,164.42a1,1,0,0,1-.13,1.23.73.73,0,0,1-1.1-.13L1353.13,540.92A1,1,0,0,1,1353.26,539.69Z"/><path class="cls-2" d="M1353.44,539.08h0a.85.85,0,0,1,.8.9v2.23h0v2.39h-1.61v-2.39h0V540A.85.85,0,0,1,1353.44,539.08Z"/><polygon class="cls-7" points="1245.32 644.65 1353.55 544.02 1460.95 644.65 1245.32 644.65"/><polygon class="cls-24" points="1274.53 632.04 1353.86 556.63 1432.58 632.04 1274.53 632.04"/><path class="cls-3" d="M1246.09,644.26h0a.36.36,0,0,0-.42.3l-10.55,60.59a.38.38,0,0,0,.3.43h0a.36.36,0,0,0,.42-.3l10.55-60.59A.37.37,0,0,0,1246.09,644.26Z"/><path class="cls-4" d="M1353.55,560.66l87.63,84-7.74,70H1273.67l-7.75-70C1294.54,618.47,1326.85,587.65,1353.55,560.66Z"/><path class="cls-3" d="M1459.79,644.43h0a.38.38,0,0,1,.44.29L1472.54,705a.37.37,0,0,1-.28.43h0a.38.38,0,0,1-.44-.29l-12.31-60.25A.38.38,0,0,1,1459.79,644.43Z"/><path class="cls-5" d="M1353,714.68h-79.35l-7.75-70c28.43-26,60.5-56.6,87.1-83.46Z"/><rect class="cls-25" x="1273.07" y="709.32" width="160.87" height="0.78"/><rect class="cls-25" x="1273.07" y="712.08" width="160.87" height="0.78"/><path class="cls-6" d="M1353.55,625c25.48,0,46.12,40,46.12,89.44v.24h-92.24v-.24C1307.43,665.05,1328.08,625,1353.55,625Z"/><path class="cls-8" d="M1353.55,628.43c24,0,43.37,38.51,43.37,86v.23h-86.74v-.23C1310.18,666.94,1329.6,628.43,1353.55,628.43Z"/><path class="cls-23" d="M1313,714.68h81.06c-4.12-8-7.33-20.73-4.12-40.21l-.23-.23L1354.38,629l-.16-.27h-1.33l-.17.27-35.35,45.22-.22.23C1320.35,694,1317.15,706.65,1313,714.68Z"/><path class="cls-3" d="M1501.28,627.59a.48.48,0,0,0-.62.27l-29.63,74a.48.48,0,0,0,.88.36l29.63-74A.48.48,0,0,0,1501.28,627.59Z"/><path class="cls-3" d="M1677.06,627.59a.48.48,0,0,1,.62.27l29.63,74a.48.48,0,0,1-.88.36l-29.63-74A.48.48,0,0,1,1677.06,627.59Z"/><path class="cls-2" d="M1471.06,702a1.4,1.4,0,0,1,1.39,1.39l.06,7.76h-2.83v-7.76A1.39,1.39,0,0,1,1471.06,702Z"/><path class="cls-2" d="M1707.17,702h0a1.39,1.39,0,0,1,1.38,1.39l.07,7.76h-2.84v-7.76A1.4,1.4,0,0,1,1707.17,702Z"/><path class="cls-3" d="M1589.11,553.77h0a.78.78,0,0,0-1.1.12l-117.47,147.9a.79.79,0,0,0,.12,1.11h0a.78.78,0,0,0,1.1-.12l117.47-147.9A.79.79,0,0,0,1589.11,553.77Z"/><path class="cls-3" d="M1588.86,553.77h0a.78.78,0,0,1,1.1.12l117.47,147.9a.79.79,0,0,1-.12,1.11h0a.78.78,0,0,1-1.1-.12l-117.47-147.9A.79.79,0,0,1,1588.86,553.77Z"/><path class="cls-2" d="M1589,553.21h0a.82.82,0,0,1,.81.82v2h0v2.15h-1.62V556h0v-2A.81.81,0,0,1,1589,553.21Z"/><path class="cls-26" d="M1589.15,557.17l89.25,69.35L1669,711.19H1509.26l-9.36-84.67Z"/><polygon class="cls-27" points="1589.15 557.17 1499.9 626.52 1509.26 711.19 1590.01 711.19 1590.01 557.84 1589.15 557.17"/><rect class="cls-28" x="1509.51" y="708.75" width="159.28" height="0.67"/><rect class="cls-28" x="1509.51" y="706.67" width="159.28" height="0.67"/><rect class="cls-28" x="1508.57" y="700.38" width="161.15" height="0.67"/><path class="cls-29" d="M1589.15,624.94c23.95,0,43.37,38.51,43.37,86v.23h-86.74V711C1545.78,663.45,1565.2,624.94,1589.15,624.94Z"/><path class="cls-30" d="M1548.62,711.19h81.06c-4.12-8-7.33-20.73-4.12-40.21l-.23-.23L1590,625.53l-.17-.27h-1.32l-.17.27L1553,670.75l-.23.23C1556,690.46,1552.74,703.16,1548.62,711.19Z"/><path class="cls-3" d="M1741,617.79a.53.53,0,0,0-.68.3l-32.72,81.76a.52.52,0,0,0,1,.39l32.72-81.76A.53.53,0,0,0,1741,617.79Z"/><path class="cls-2" d="M1707.64,700a1.54,1.54,0,0,1,1.53,1.54l.08,8.57h-3.14v-8.57A1.54,1.54,0,0,1,1707.64,700Z"/><path class="cls-3" d="M1838,536.26h0a.85.85,0,0,0-1.21.14L1707.06,699.74a.88.88,0,0,0,.14,1.22h0a.87.87,0,0,0,1.22-.13l129.73-163.34A.88.88,0,0,0,1838,536.26Z"/><path class="cls-3" d="M1837.74,536.26h0a.86.86,0,0,1,1.22.14l129.73,163.34a.86.86,0,0,1-.14,1.22h0a.86.86,0,0,1-1.21-.13L1837.6,537.49A.9.9,0,0,1,1837.74,536.26Z"/><path class="cls-2" d="M1837.93,535.65h0a.89.89,0,0,1,.89.9v2.21h0v2.38H1837v-2.38h0v-2.21A.89.89,0,0,1,1837.93,535.65Z"/><path class="cls-15" d="M1838.06,540l98.56,76.59-10.34,93.51H1749.83l-10.34-93.51Z"/><polygon class="cls-16" points="1838.06 540.02 1739.49 616.61 1749.83 710.12 1839.01 710.12 1839.01 540.76 1838.06 540.02"/><rect class="cls-31" x="1749.57" y="705.42" width="176.97" height="4.71"/><polygon class="cls-32" points="1838.08 608.1 1787.72 693.41 1805 710.12 1838.08 608.1"/><polygon class="cls-32" points="1839.8 608.1 1890.15 693.41 1872.87 710.12 1839.8 608.1"/><polygon class="cls-33" points="1805 710.12 1873.15 710.12 1838.97 606.49 1805 710.12"/></g><g id="Stage"><polygon id="Dark_Purple_Base" data-name="Dark Purple Base" class="cls-34" points="207 955.89 1710 949.5 1710 866.54 207 866.11 207 955.89"/><polygon class="cls-35" points="1712 866 209 866 386 716 1539 716 1712 866"/></g><g id="Towers"><rect class="cls-36" x="209.02" y="653.45" width="74.34" height="70.65"/><line class="cls-36" x1="209.81" y1="654.42" x2="282.69" y2="724.1"/><line class="cls-36" x1="282.14" y1="654.42" x2="209.81" y2="724.38"/><rect class="cls-36" x="208.81" y="581.55" width="74.34" height="71.9"/><line class="cls-36" x1="209.81" y1="582.52" x2="283.14" y2="653.45"/><line class="cls-36" x1="282.14" y1="582.52" x2="209.81" y2="652.48"/><rect class="cls-36" x="208.81" y="509.65" width="74.34" height="71.9"/><line class="cls-36" x1="209.81" y1="510.62" x2="283.14" y2="581.55"/><line class="cls-36" x1="282.14" y1="510.62" x2="209.81" y2="580.58"/><rect class="cls-36" x="208.81" y="437.75" width="74.34" height="71.9"/><line class="cls-36" x1="209.81" y1="438.72" x2="283.14" y2="509.65"/><line class="cls-36" x1="282.14" y1="438.72" x2="209.81" y2="508.68"/><rect class="cls-36" x="208.81" y="365.85" width="74.34" height="71.9"/><line class="cls-36" x1="209.81" y1="366.82" x2="283.14" y2="437.75"/><line class="cls-36" x1="282.14" y1="366.82" x2="209.81" y2="436.78"/><rect class="cls-36" x="208.81" y="293.95" width="74.34" height="71.9"/><line class="cls-36" x1="209.81" y1="294.92" x2="283.14" y2="365.85"/><line class="cls-36" x1="282.14" y1="294.92" x2="209.81" y2="364.88"/><rect class="cls-36" x="208.81" y="222.05" width="74.34" height="71.9"/><line class="cls-36" x1="209.81" y1="223.02" x2="283.14" y2="293.95"/><line class="cls-36" x1="282.14" y1="223.02" x2="209.81" y2="292.98"/><rect class="cls-36" x="208.81" y="150.15" width="74.34" height="71.9"/><line class="cls-36" x1="209.81" y1="151.12" x2="283.14" y2="222.05"/><line class="cls-36" x1="282.14" y1="151.12" x2="209.81" y2="221.08"/><polyline class="cls-36" points="282.98 150.07 282.98 78.17 208.64 78.17 208.64 150.07"/><line class="cls-36" x1="209.64" y1="79.14" x2="282.98" y2="150.07"/><line class="cls-36" x1="281.97" y1="79.14" x2="209.64" y2="149.1"/><rect class="cls-36" x="208.45" y="6.27" width="75.39" height="71.9"/><line class="cls-36" x1="210.51" y1="7.24" x2="283.84" y2="78.17"/><line class="cls-36" x1="282.83" y1="7.24" x2="210.51" y2="77.2"/><line class="cls-36" x1="358.43" y1="5.38" x2="358.43" y2="78.15"/><line class="cls-36" x1="434.36" y1="6.43" x2="434.36" y2="79.2"/><line class="cls-36" x1="284.6" y1="5.91" x2="358.43" y2="78.67"/><line class="cls-36" x1="358.43" y1="5.91" x2="284.6" y2="78.67"/><line class="cls-36" x1="434.36" y1="78.67" x2="358.43" y2="5.91"/><line class="cls-36" x1="359.48" y1="78.67" x2="434.36" y2="5.91"/><line class="cls-36" x1="508.18" y1="5.38" x2="508.18" y2="78.15"/><line class="cls-36" x1="584.11" y1="6.43" x2="584.11" y2="79.2"/><line class="cls-36" x1="434.36" y1="5.91" x2="508.18" y2="78.67"/><line class="cls-36" x1="508.18" y1="5.91" x2="434.36" y2="78.67"/><line class="cls-36" x1="584.11" y1="78.67" x2="508.18" y2="5.91"/><line class="cls-36" x1="509.24" y1="78.67" x2="584.11" y2="5.91"/><line class="cls-36" x1="657.94" y1="5.38" x2="657.94" y2="78.15"/><line class="cls-36" x1="733.87" y1="6.43" x2="733.87" y2="79.2"/><line class="cls-36" x1="584.11" y1="5.91" x2="657.94" y2="78.67"/><line class="cls-36" x1="657.94" y1="5.91" x2="584.11" y2="78.67"/><line class="cls-36" x1="733.87" y1="78.67" x2="657.94" y2="5.91"/><line class="cls-36" x1="658.99" y1="78.67" x2="733.87" y2="5.91"/><line class="cls-36" x1="807.69" y1="5.38" x2="807.69" y2="78.15"/><line class="cls-36" x1="883.63" y1="6.43" x2="883.63" y2="79.2"/><line class="cls-36" x1="733.87" y1="5.91" x2="807.69" y2="78.67"/><line class="cls-36" x1="807.69" y1="5.91" x2="733.87" y2="78.67"/><line class="cls-36" x1="883.63" y1="78.67" x2="807.69" y2="5.91"/><line class="cls-36" x1="808.75" y1="78.67" x2="883.63" y2="5.91"/><line class="cls-36" x1="958.5" y1="6.43" x2="958.5" y2="79.2"/><line class="cls-36" x1="958.5" y1="78.67" x2="882.57" y2="5.91"/><line class="cls-36" x1="883.63" y1="78.67" x2="958.5" y2="5.91"/><line class="cls-36" x1="283.55" y1="5.91" x2="283.55" y2="5.91"/><line class="cls-36" x1="283.55" y1="5.91" x2="958.5" y2="5.91"/><line class="cls-36" x1="284.6" y1="78.67" x2="958.5" y2="78.67"/><rect class="cls-36" x="1633.94" y="653.57" width="74.34" height="70.65" transform="translate(3342.22 1377.8) rotate(-180)"/><line class="cls-36" x1="1707.27" y1="654.55" x2="1634.4" y2="724.23"/><line class="cls-36" x1="1634.95" y1="654.55" x2="1707.27" y2="724.5"/><rect class="cls-36" x="1633.94" y="581.67" width="74.34" height="71.9" transform="translate(3342.22 1235.25) rotate(-180)"/><line class="cls-36" x1="1707.27" y1="582.65" x2="1633.94" y2="653.57"/><line class="cls-36" x1="1634.95" y1="582.65" x2="1707.27" y2="652.6"/><rect class="cls-36" x="1633.94" y="509.77" width="74.34" height="71.9" transform="translate(3342.22 1091.45) rotate(-180)"/><line class="cls-36" x1="1707.27" y1="510.75" x2="1633.94" y2="581.67"/><line class="cls-36" x1="1634.95" y1="510.75" x2="1707.27" y2="580.7"/><rect class="cls-36" x="1633.94" y="437.87" width="74.34" height="71.9" transform="translate(3342.22 947.65) rotate(-180)"/><line class="cls-36" x1="1707.27" y1="438.85" x2="1633.94" y2="509.77"/><line class="cls-36" x1="1634.95" y1="438.85" x2="1707.27" y2="508.8"/><rect class="cls-36" x="1633.94" y="365.97" width="74.34" height="71.9" transform="translate(3342.22 803.85) rotate(-180)"/><line class="cls-36" x1="1707.27" y1="366.95" x2="1633.94" y2="437.87"/><line class="cls-36" x1="1634.95" y1="366.95" x2="1707.27" y2="436.9"/><rect class="cls-36" x="1633.94" y="294.07" width="74.34" height="71.9" transform="translate(3342.22 660.05) rotate(-180)"/><line class="cls-36" x1="1707.27" y1="295.05" x2="1633.94" y2="365.97"/><line class="cls-36" x1="1634.95" y1="295.05" x2="1707.27" y2="365"/><rect class="cls-36" x="1633.94" y="222.17" width="74.34" height="71.9" transform="translate(3342.22 516.25) rotate(-180)"/><line class="cls-36" x1="1707.27" y1="223.15" x2="1633.94" y2="294.07"/><line class="cls-36" x1="1634.95" y1="223.15" x2="1707.27" y2="293.1"/><rect class="cls-36" x="1633.94" y="150.27" width="74.34" height="71.9" transform="translate(3342.22 372.45) rotate(-180)"/><line class="cls-36" x1="1707.27" y1="151.25" x2="1633.94" y2="222.17"/><line class="cls-36" x1="1634.95" y1="151.25" x2="1707.27" y2="221.2"/><polyline class="cls-36" points="1634.11 150.19 1634.11 78.29 1708.45 78.29 1708.45 150.19"/><line class="cls-36" x1="1707.44" y1="79.26" x2="1634.11" y2="150.19"/><line class="cls-36" x1="1635.12" y1="79.26" x2="1707.44" y2="149.22"/><rect class="cls-36" x="1633.06" y="6.39" width="75.39" height="71.9" transform="translate(3341.5 84.68) rotate(-180)"/><line class="cls-36" x1="1706.39" y1="7.36" x2="1633.06" y2="78.29"/><line class="cls-36" x1="1634.06" y1="7.36" x2="1706.39" y2="77.32"/><line class="cls-36" x1="1558.47" y1="5.5" x2="1558.47" y2="78.27"/><line class="cls-36" x1="1482.54" y1="6.56" x2="1482.54" y2="79.33"/><line class="cls-36" x1="1632.29" y1="6.03" x2="1558.47" y2="78.8"/><line class="cls-36" x1="1558.47" y1="6.03" x2="1632.29" y2="78.8"/><line class="cls-36" x1="1482.54" y1="78.8" x2="1558.47" y2="6.03"/><line class="cls-36" x1="1557.41" y1="78.8" x2="1482.54" y2="6.03"/><line class="cls-36" x1="1408.71" y1="5.5" x2="1408.71" y2="78.27"/><line class="cls-36" x1="1332.78" y1="6.56" x2="1332.78" y2="79.33"/><line class="cls-36" x1="1482.54" y1="6.03" x2="1408.71" y2="78.8"/><line class="cls-36" x1="1408.71" y1="6.03" x2="1482.54" y2="78.8"/><line class="cls-36" x1="1332.78" y1="78.8" x2="1408.71" y2="6.03"/><line class="cls-36" x1="1407.66" y1="78.8" x2="1332.78" y2="6.03"/><line class="cls-36" x1="1258.96" y1="5.5" x2="1258.96" y2="78.27"/><line class="cls-36" x1="1183.03" y1="6.56" x2="1183.03" y2="79.33"/><line class="cls-36" x1="1332.78" y1="6.03" x2="1258.96" y2="78.8"/><line class="cls-36" x1="1258.96" y1="6.03" x2="1332.78" y2="78.8"/><line class="cls-36" x1="1183.03" y1="78.8" x2="1258.96" y2="6.03"/><line class="cls-36" x1="1257.9" y1="78.8" x2="1183.03" y2="6.03"/><line class="cls-36" x1="1109.2" y1="5.5" x2="1109.2" y2="78.27"/><line class="cls-36" x1="1033.27" y1="6.56" x2="1033.27" y2="79.33"/><line class="cls-36" x1="1183.03" y1="6.03" x2="1109.2" y2="78.8"/><line class="cls-36" x1="1109.2" y1="6.03" x2="1183.03" y2="78.8"/><line class="cls-36" x1="1033.27" y1="78.8" x2="1109.2" y2="6.03"/><line class="cls-36" x1="1108.15" y1="78.8" x2="1033.27" y2="6.03"/><line class="cls-36" x1="958.39" y1="6.56" x2="958.39" y2="79.33"/><line class="cls-36" x1="958.39" y1="78.8" x2="1034.32" y2="6.03"/><line class="cls-36" x1="1033.27" y1="78.8" x2="958.39" y2="6.03"/><line class="cls-36" x1="1633.35" y1="6.03" x2="1633.35" y2="6.03"/><line class="cls-36" x1="1633.35" y1="6.03" x2="958.39" y2="6.03"/><line class="cls-36" x1="1632.29" y1="78.8" x2="958.39" y2="78.8"/><rect class="cls-36" x="1633.83" y="723.61" width="74.34" height="70.65" transform="translate(3342 1517.88) rotate(-180)"/><line class="cls-36" x1="1707.16" y1="724.58" x2="1634.29" y2="794.26"/><line class="cls-36" x1="1634.84" y1="724.58" x2="1707.16" y2="794.54"/><rect class="cls-36" x="1633.83" y="794.61" width="74.34" height="70.65" transform="translate(3342 1659.88) rotate(-180)"/><line class="cls-36" x1="1707.16" y1="795.58" x2="1634.29" y2="865.26"/><line class="cls-36" x1="1634.84" y1="795.58" x2="1707.16" y2="865.54"/><rect class="cls-36" x="209.02" y="724.17" width="74.34" height="70.65" transform="translate(492.38 1519) rotate(-180)"/><line class="cls-36" x1="282.36" y1="725.15" x2="209.48" y2="794.83"/><line class="cls-36" x1="210.03" y1="725.15" x2="282.36" y2="795.1"/><rect class="cls-36" x="209.02" y="795.17" width="74.34" height="70.65" transform="translate(492.38 1661) rotate(-180)"/><line class="cls-36" x1="282.36" y1="796.15" x2="209.48" y2="865.83"/><line class="cls-36" x1="210.03" y1="796.15" x2="282.36" y2="866.1"/></g><g id="Speakers"><rect class="cls-34" x="1670" y="98" width="91" height="134" rx="3.12"/><path class="cls-35" d="M1715.4,107.52a18,18,0,1,1-18,18A18,18,0,0,1,1715.4,107.52Zm13.1,18a13.1,13.1,0,1,0-13.1,13.1A13.09,13.09,0,0,0,1728.5,125.52Z"/><path class="cls-34" d="M1715.4,112.42a13.1,13.1,0,1,1-13.1,13.1A13.09,13.09,0,0,1,1715.4,112.42Zm4.31,13.1a4.31,4.31,0,1,0-4.31,4.3A4.3,4.3,0,0,0,1719.71,125.52Z"/><path class="cls-35" d="M1715.4,121.22a4.3,4.3,0,1,1-4.3,4.3A4.3,4.3,0,0,1,1715.4,121.22Z"/><path class="cls-35" d="M1715.41,155a31.51,31.51,0,1,1-31.5,31.5A31.48,31.48,0,0,1,1715.41,155Zm22.92,31.52a22.93,22.93,0,1,0-22.92,22.93A22.91,22.91,0,0,0,1738.33,186.52Z"/><path class="cls-34" d="M1715.41,163.6a22.93,22.93,0,1,1-22.93,22.92A22.91,22.91,0,0,1,1715.41,163.6Zm7.52,23.08a7.53,7.53,0,1,0-7.68,7.37A7.51,7.51,0,0,0,1722.93,186.68Z"/><path class="cls-35" d="M1715.55,179a7.53,7.53,0,1,1-7.68,7.36A7.51,7.51,0,0,1,1715.55,179Z"/><rect class="cls-34" x="157" y="91" width="91" height="134" rx="3.12"/><path class="cls-35" d="M202.4,100.52a18,18,0,1,1-18,18A18,18,0,0,1,202.4,100.52Zm13.1,18a13.1,13.1,0,1,0-13.1,13.1A13.09,13.09,0,0,0,215.5,118.52Z"/><path class="cls-34" d="M202.4,105.42a13.1,13.1,0,1,1-13.1,13.1A13.09,13.09,0,0,1,202.4,105.42Zm4.31,13.1a4.31,4.31,0,1,0-4.31,4.3A4.3,4.3,0,0,0,206.71,118.52Z"/><path class="cls-35" d="M202.4,114.22a4.3,4.3,0,1,1-4.3,4.3A4.3,4.3,0,0,1,202.4,114.22Z"/><path class="cls-35" d="M202.41,148a31.51,31.51,0,1,1-31.5,31.5A31.48,31.48,0,0,1,202.41,148Zm22.92,31.52a22.93,22.93,0,1,0-22.92,22.93A22.91,22.91,0,0,0,225.33,179.52Z"/><path class="cls-34" d="M202.41,156.6a22.93,22.93,0,1,1-22.93,22.92A22.91,22.91,0,0,1,202.41,156.6Zm7.52,23.08a7.53,7.53,0,1,0-7.68,7.37A7.51,7.51,0,0,0,209.93,179.68Z"/><path class="cls-35" d="M202.55,172a7.53,7.53,0,1,1-7.68,7.36A7.51,7.51,0,0,1,202.55,172Z"/><rect class="cls-34" x="1670" y="301" width="91" height="134" rx="3.12"/><path class="cls-35" d="M1715.41,310.53a18,18,0,1,1-18,18A18,18,0,0,1,1715.41,310.53Zm13.1,18a13.11,13.11,0,1,0-13.1,13.1A13.1,13.1,0,0,0,1728.51,328.53Z"/><path class="cls-34" d="M1715.41,315.42a13.11,13.11,0,1,1-13.11,13.11A13.1,13.1,0,0,1,1715.41,315.42Zm4.3,13.11a4.31,4.31,0,1,0-4.3,4.3A4.31,4.31,0,0,0,1719.71,328.53Z"/><path class="cls-35" d="M1715.41,324.22a4.31,4.31,0,1,1-4.31,4.31A4.31,4.31,0,0,1,1715.41,324.22Z"/><path class="cls-35" d="M1715.41,358a31.51,31.51,0,1,1-31.5,31.52A31.49,31.49,0,0,1,1715.41,358Zm22.92,31.52a22.93,22.93,0,1,0-22.92,22.92A22.91,22.91,0,0,0,1738.33,389.52Z"/><path class="cls-34" d="M1715.41,366.59a22.93,22.93,0,1,1-22.93,22.93A22.91,22.91,0,0,1,1715.41,366.59Zm7.52,23.09a7.53,7.53,0,1,0-7.68,7.36A7.53,7.53,0,0,0,1722.93,389.68Z"/><path class="cls-35" d="M1715.55,382a7.53,7.53,0,1,1-7.68,7.39A7.53,7.53,0,0,1,1715.55,382Z"/><rect class="cls-34" x="157" y="294" width="91" height="134" rx="3.12"/><path class="cls-35" d="M202.41,303.53a18,18,0,1,1-18,18A18,18,0,0,1,202.41,303.53Zm13.1,18a13.11,13.11,0,1,0-13.1,13.1A13.1,13.1,0,0,0,215.51,321.53Z"/><path class="cls-34" d="M202.41,308.42a13.11,13.11,0,1,1-13.11,13.11A13.1,13.1,0,0,1,202.41,308.42Zm4.3,13.11a4.31,4.31,0,1,0-4.3,4.3A4.31,4.31,0,0,0,206.71,321.53Z"/><path class="cls-35" d="M202.41,317.22a4.31,4.31,0,1,1-4.31,4.31A4.31,4.31,0,0,1,202.41,317.22Z"/><path class="cls-35" d="M202.41,351a31.51,31.51,0,1,1-31.5,31.52A31.49,31.49,0,0,1,202.41,351Zm22.92,31.52a22.93,22.93,0,1,0-22.92,22.92A22.91,22.91,0,0,0,225.33,382.52Z"/><path class="cls-34" d="M202.41,359.59a22.93,22.93,0,1,1-22.93,22.93A22.91,22.91,0,0,1,202.41,359.59Zm7.52,23.09a7.53,7.53,0,1,0-7.68,7.36A7.53,7.53,0,0,0,209.93,382.68Z"/><path class="cls-35" d="M202.55,375a7.53,7.53,0,1,1-7.68,7.39A7.53,7.53,0,0,1,202.55,375Z"/><rect class="cls-34" x="1667.69" y="506.91" width="91" height="134" rx="3.12"/><path class="cls-35" d="M1713.1,516.43a18,18,0,1,1-18,18A18,18,0,0,1,1713.1,516.43Zm13.1,18a13.1,13.1,0,1,0-13.1,13.1A13.09,13.09,0,0,0,1726.2,534.43Z"/><path class="cls-34" d="M1713.1,521.33a13.1,13.1,0,1,1-13.1,13.1A13.09,13.09,0,0,1,1713.1,521.33Zm4.3,13.1a4.31,4.31,0,1,0-4.3,4.31A4.29,4.29,0,0,0,1717.4,534.43Z"/><path class="cls-35" d="M1713.1,530.13a4.31,4.31,0,1,1-4.31,4.3A4.29,4.29,0,0,1,1713.1,530.13Z"/><path class="cls-35" d="M1713.1,563.91a31.51,31.51,0,1,1-31.5,31.51A31.48,31.48,0,0,1,1713.1,563.91ZM1736,595.42a22.93,22.93,0,1,0-22.93,22.93A22.91,22.91,0,0,0,1736,595.42Z"/><path class="cls-34" d="M1713.1,572.5a22.93,22.93,0,1,1-22.92,22.92A22.91,22.91,0,0,1,1713.1,572.5Zm7.53,23.08a7.54,7.54,0,1,0-7.69,7.39A7.54,7.54,0,0,0,1720.63,595.58Z"/><path class="cls-35" d="M1713.24,587.9a7.54,7.54,0,1,1-7.68,7.38A7.54,7.54,0,0,1,1713.24,587.9Z"/><rect class="cls-34" x="154.69" y="499.91" width="91" height="134" rx="3.12"/><path class="cls-35" d="M200.1,509.43a18,18,0,1,1-18,18A18,18,0,0,1,200.1,509.43Zm13.1,18a13.1,13.1,0,1,0-13.1,13.1A13.09,13.09,0,0,0,213.2,527.43Z"/><path class="cls-34" d="M200.1,514.33a13.1,13.1,0,1,1-13.1,13.1A13.09,13.09,0,0,1,200.1,514.33Zm4.3,13.1a4.31,4.31,0,1,0-4.3,4.31A4.29,4.29,0,0,0,204.4,527.43Z"/><path class="cls-35" d="M200.1,523.13a4.31,4.31,0,1,1-4.31,4.3A4.29,4.29,0,0,1,200.1,523.13Z"/><path class="cls-35" d="M200.1,556.91a31.51,31.51,0,1,1-31.5,31.51A31.48,31.48,0,0,1,200.1,556.91ZM223,588.42a22.93,22.93,0,1,0-22.93,22.93A22.91,22.91,0,0,0,223,588.42Z"/><path class="cls-34" d="M200.1,565.5a22.93,22.93,0,1,1-22.92,22.92A22.91,22.91,0,0,1,200.1,565.5Zm7.53,23.08a7.54,7.54,0,1,0-7.69,7.39A7.54,7.54,0,0,0,207.63,588.58Z"/><path class="cls-35" d="M200.24,580.9a7.54,7.54,0,1,1-7.68,7.38A7.54,7.54,0,0,1,200.24,580.9Z"/></g></svg>