<svg xmlns="http://www.w3.org/2000/svg" viewBox="0 0 1920 1080">
  <defs>
    <style>
      .cls-1 {
        fill: #7321e8;
      }

      .cls-2 {
        fill: #6d6e70;
      }

      .cls-10, .cls-12, .cls-13, .cls-14, .cls-15, .cls-16, .cls-17, .cls-19, .cls-2, .cls-20, .cls-21, .cls-22, .cls-23, .cls-24, .cls-25, .cls-26, .cls-28, .cls-29, .cls-3, .cls-30, .cls-31, .cls-33, .cls-4, .cls-5, .cls-7, .cls-8, .cls-9 {
        fill-rule: evenodd;
      }

      .cls-3 {
        fill: #00656f;
      }

      .cls-4 {
        fill: #51bd9a;
      }

      .cls-5 {
        fill: #89cb9d;
      }

      .cls-6 {
        fill: #378da5;
      }

      .cls-27, .cls-7 {
        fill: #4e9cb3;
      }

      .cls-8 {
        fill: #2d3393;
      }

      .cls-9 {
        fill: #aeb2d0;
      }

      .cls-10 {
        fill: #a1bfe2;
      }

      .cls-11 {
        fill: #f06477;
      }

      .cls-12 {
        fill: #fffdf8;
      }

      .cls-13 {
        fill: #5d1668;
      }

      .cls-14 {
        fill: #f4897b;
      }

      .cls-15 {
        fill: #f6f08b;
      }

      .cls-16 {
        fill: #ed346b;
      }

      .cls-17 {
        fill: #f06174;
      }

      .cls-18, .cls-19 {
        fill: #9e2484;
      }

      .cls-20 {
        fill: #fcc787;
      }

      .cls-21 {
        fill: #690f63;
      }

      .cls-22 {
        fill: #333091;
      }

      .cls-23 {
        fill: #5e89c6;
      }

      .cls-24 {
        fill: #829cd0;
      }

      .cls-25 {
        fill: #f4cabc;
      }

      .cls-26 {
        fill: #5f2b8c;
      }

      .cls-28 {
        fill: #f8ddb0;
      }

      .cls-29 {
        fill: #ed3071;
      }

      .cls-30 {
        fill: #f4896a;
      }

      .cls-31 {
        fill: #fcc074;
      }

      .cls-32 {
        fill: #00aab2;
      }

      .cls-33 {
        fill: #611669;
      }

      .cls-34 {
        fill: #250049;
      }

      .cls-35 {
        fill: #8bcdff;
      }

      .cls-36 {
        fill: none;
        stroke: #000;
        stroke-miterlimit: 10;
        stroke-width: 3px;
      }
    </style>
  </defs>
  <g id="Ground">
    <rect class="cls-1" x="-1281.77" y="642.39" width="4455.54" height="981.61"/>
  </g>
  <g id="Tents">
    <g id="Tent_8" data-name="Tent 8">
      <g>
        <path class="cls-2" d="M1742,628.14a.54.54,0,0,0-.68.29l-32.72,81.77a.52.52,0,0,0,1,.39l32.72-81.77A.52.52,0,0,0,1742,628.14Z"/>
        <g>
          <path class="cls-3" d="M1708.64,710.36a1.54,1.54,0,0,1,1.53,1.54l.08,8.57h-3.14V711.9A1.54,1.54,0,0,1,1708.64,710.36Z"/>
          <path class="cls-2" d="M1839,546.61h0a.85.85,0,0,0-1.21.14L1708.06,710.08a.89.89,0,0,0,.14,1.23h0a.87.87,0,0,0,1.22-.13l129.73-163.34A.88.88,0,0,0,1839,546.61Z"/>
          <path class="cls-2" d="M1838.74,546.61h0a.86.86,0,0,1,1.22.14l129.73,163.33a.87.87,0,0,1-.14,1.23h0a.86.86,0,0,1-1.21-.13L1838.6,547.84A.89.89,0,0,1,1838.74,546.61Z"/>
          <path class="cls-3" d="M1838.93,546h0a.89.89,0,0,1,.89.9v2.21h0v2.38H1838v-2.38h0V546.9A.89.89,0,0,1,1838.93,546Z"/>
        </g>
        <path class="cls-4" d="M1839.06,550.37,1937.62,627l-10.34,93.51H1750.83L1740.49,627Z"/>
        <polygon class="cls-5" points="1839.06 550.37 1740.49 626.96 1750.83 720.47 1840.01 720.47 1840.01 551.11 1839.06 550.37"/>
        <rect class="cls-6" x="1750.57" y="715.76" width="176.97" height="4.71"/>
        <polygon class="cls-7" points="1839.08 618.45 1788.72 703.76 1806 720.47 1839.08 618.45"/>
        <polygon class="cls-7" points="1840.8 618.45 1891.15 703.76 1873.87 720.47 1840.8 618.45"/>
        <polygon class="cls-8" points="1806 720.47 1874.15 720.47 1839.97 616.84 1806 720.47"/>
      </g>
    </g>
    <g id="Tent_7" data-name="Tent 7">
      <path class="cls-2" d="M1502.28,636.38a.48.48,0,0,0-.62.26l-29.63,74a.48.48,0,0,0,.26.62.49.49,0,0,0,.62-.27l29.63-74A.48.48,0,0,0,1502.28,636.38Z"/>
      <path class="cls-2" d="M1678.06,636.38a.48.48,0,0,1,.62.26l29.63,74a.48.48,0,0,1-.26.62.49.49,0,0,1-.62-.27l-29.63-74A.48.48,0,0,1,1678.06,636.38Z"/>
      <g>
        <path class="cls-3" d="M1472.06,710.82a1.4,1.4,0,0,1,1.39,1.4l.06,7.76h-2.83v-7.76A1.39,1.39,0,0,1,1472.06,710.82Z"/>
        <path class="cls-3" d="M1708.17,710.82h0a1.39,1.39,0,0,1,1.38,1.4l.07,7.76h-2.84v-7.76A1.4,1.4,0,0,1,1708.17,710.82Z"/>
        <path class="cls-2" d="M1590.11,562.55h0a.79.79,0,0,0-1.1.12l-117.47,147.9a.8.8,0,0,0,.12,1.12h0a.79.79,0,0,0,1.1-.12l117.47-147.9A.8.8,0,0,0,1590.11,562.55Z"/>
        <path class="cls-2" d="M1589.86,562.55h0a.79.79,0,0,1,1.1.12l117.47,147.9a.8.8,0,0,1-.12,1.12h0a.79.79,0,0,1-1.1-.12l-117.47-147.9A.8.8,0,0,1,1589.86,562.55Z"/>
        <path class="cls-3" d="M1590,562h0a.81.81,0,0,1,.81.81v2h0V567h-1.62v-2.15h0v-2A.8.8,0,0,1,1590,562Z"/>
      </g>
      <path class="cls-9" d="M1590.15,566l89.25,69.35L1670,720H1510.26l-9.36-84.67Z"/>
      <polygon class="cls-10" points="1590.15 565.96 1500.9 635.31 1510.26 719.98 1591.01 719.98 1591.01 566.63 1590.15 565.96"/>
      <rect class="cls-11" x="1510.51" y="717.53" width="159.28" height="0.67"/>
      <rect class="cls-11" x="1510.51" y="715.46" width="159.28" height="0.67"/>
      <rect class="cls-11" x="1509.57" y="709.17" width="161.15" height="0.67"/>
      <path class="cls-12" d="M1590.15,633.73c23.95,0,43.37,38.51,43.37,86V720h-86.74v-.23C1546.78,672.24,1566.2,633.73,1590.15,633.73Z"/>
      <path class="cls-13" d="M1549.62,720h81.06c-4.12-8-7.33-20.74-4.12-40.21l-.23-.23L1591,634.32l-.17-.28h-1.32l-.17.28L1554,679.54l-.23.23C1557,699.24,1553.74,712,1549.62,720Z"/>
    </g>
    <g id="Tent_6" data-name="Tent 6">
      <g>
        <path class="cls-3" d="M1235.46,709.43h0a1.48,1.48,0,0,1,1.39,1.56l.07,8.62h-2.84V711A1.48,1.48,0,0,1,1235.46,709.43Z"/>
        <path class="cls-3" d="M1471.57,709.43h0A1.49,1.49,0,0,1,1473,711l.06,8.62h-2.83V711A1.48,1.48,0,0,1,1471.57,709.43Z"/>
        <path class="cls-2" d="M1353.51,544.62a.72.72,0,0,0-1.09.12L1234.93,709.17a1,1,0,0,0,.13,1.22.73.73,0,0,0,1.1-.12l117.48-164.43A.93.93,0,0,0,1353.51,544.62Z"/>
        <path class="cls-2" d="M1353.26,544.62a.73.73,0,0,1,1.1.12l117.49,164.43a1,1,0,0,1-.13,1.22.73.73,0,0,1-1.1-.12L1353.13,545.84A1,1,0,0,1,1353.26,544.62Z"/>
        <path class="cls-3" d="M1353.44,544h0a.86.86,0,0,1,.8.9v2.23h0v2.39h-1.61v-2.39h0V544.9A.86.86,0,0,1,1353.44,544Z"/>
      </g>
      <polygon class="cls-14" points="1245.32 649.58 1353.55 548.95 1460.95 649.58 1245.32 649.58"/>
      <polygon class="cls-15" points="1274.53 636.97 1353.86 561.56 1432.58 636.97 1274.53 636.97"/>
      <path class="cls-2" d="M1246.09,649.19h0a.36.36,0,0,0-.42.3l-10.55,60.59a.36.36,0,0,0,.3.42h0a.36.36,0,0,0,.42-.3l10.55-60.59A.36.36,0,0,0,1246.09,649.19Z"/>
      <path class="cls-16" d="M1353.55,565.59l87.63,84-7.74,70H1273.67l-7.75-70C1294.54,623.4,1326.85,592.58,1353.55,565.59Z"/>
      <path class="cls-2" d="M1459.79,649.36h0a.38.38,0,0,1,.44.28l12.31,60.26a.37.37,0,0,1-.28.43h0a.37.37,0,0,1-.44-.28l-12.31-60.26A.37.37,0,0,1,1459.79,649.36Z"/>
      <path class="cls-17" d="M1353,719.61h-79.35l-7.75-70c28.43-26,60.5-56.59,87.1-83.46Z"/>
      <rect class="cls-18" x="1273.07" y="714.24" width="160.87" height="0.78"/>
      <rect class="cls-18" x="1273.07" y="717.01" width="160.87" height="0.78"/>
      <path class="cls-19" d="M1353.55,629.93c25.48,0,46.12,40,46.12,89.44v.24h-92.24v-.24C1307.43,670,1328.08,629.93,1353.55,629.93Z"/>
      <path class="cls-20" d="M1353.55,633.36c24,0,43.37,38.51,43.37,86v.23h-86.74v-.23C1310.18,671.87,1329.6,633.36,1353.55,633.36Z"/>
      <path class="cls-21" d="M1313,719.61h81.06c-4.12-8-7.33-20.74-4.12-40.21l-.23-.23L1354.38,634l-.16-.28h-1.33l-.17.28-35.35,45.22-.22.23C1320.35,698.87,1317.15,711.58,1313,719.61Z"/>
    </g>
    <g id="Tent_5" data-name="Tent 5">
      <g>
        <path class="cls-3" d="M954.42,710.29h0a1.55,1.55,0,0,1,1.64,1.41l.09,7.78h-3.38V711.7A1.55,1.55,0,0,1,954.42,710.29Z"/>
        <path class="cls-3" d="M1235.11,710.29h0a1.55,1.55,0,0,1,1.65,1.41l.08,7.78h-3.37V711.7A1.55,1.55,0,0,1,1235.11,710.29Z"/>
        <path class="cls-2" d="M1094.76,561.56a1.06,1.06,0,0,0-1.34.15L953.82,710a.74.74,0,0,0,.12,1.15,1.08,1.08,0,0,0,1.34-.15l139.6-148.31A.73.73,0,0,0,1094.76,561.56Z"/>
        <path class="cls-2" d="M1094.46,561.56a1.06,1.06,0,0,1,1.34.15L1235.4,710a.74.74,0,0,1-.11,1.15A1.07,1.07,0,0,1,1234,711L1094.35,562.7A.73.73,0,0,1,1094.46,561.56Z"/>
        <path class="cls-3" d="M1094.67,561h0a.9.9,0,0,1,.95.81v2h0V566h-1.92v-2.15h0v-2A.9.9,0,0,1,1094.67,561Z"/>
      </g>
      <path class="cls-22" d="M1094.91,566c65.55,0,118.68,54.26,118.68,121.19v.33l-15.87,13.12H992.1l-15.86-13.12c0-.11,0-.22,0-.33C976.23,620.28,1029.37,566,1094.91,566Z"/>
      <path class="cls-23" d="M1094.91,565.58c56.79,0,102.82,68.72,102.82,153.48,0,.14,0,.28,0,.42H992.1v-.42C992.1,634.3,1038.13,565.58,1094.91,565.58Z"/>
      <path class="cls-24" d="M1094.11,565.59c-56.42.65-102,69.11-102,153.47v.42h102Z"/>
      <path class="cls-22" d="M1094.91,630c25.31,0,45.83,40,45.83,89.22v.24h-91.66v-.24C1049.08,670,1069.6,630,1094.91,630Z"/>
      <path class="cls-25" d="M1094.91,633.23c24,0,43.37,38.51,43.37,86v.23h-86.74v-.23C1051.54,671.74,1071,633.23,1094.91,633.23Z"/>
      <path class="cls-26" d="M1054.38,719.48h81.06c-4.12-8-7.33-20.74-4.12-40.21l-.23-.23-35.35-45.22-.17-.28h-1.32l-.17.28L1058.73,679l-.22.23C1061.71,698.74,1058.51,711.45,1054.38,719.48Z"/>
    </g>
    <g id="Tent_4" data-name="Tent 4">
      <path class="cls-4" d="M829.81,561.78l92.37,143.56-9.49,14.52H746.92l-9.49-14.52Z"/>
      <path class="cls-3" d="M707.71,710.5a1.43,1.43,0,0,1,1.43,1.43l.07,8h-2.94v-8A1.44,1.44,0,0,1,707.71,710.5Z"/>
      <path class="cls-3" d="M952.07,710.5a1.44,1.44,0,0,1,1.44,1.43l.07,8h-2.94v-8A1.44,1.44,0,0,1,952.07,710.5Z"/>
      <path class="cls-2" d="M829.89,558.57h0a.82.82,0,0,0-1.14.12L707.17,710.24a.81.81,0,0,0,.12,1.14h0a.81.81,0,0,0,1.14-.12L830,559.71A.81.81,0,0,0,829.89,558.57Z"/>
      <path class="cls-2" d="M829.63,558.57h0a.82.82,0,0,1,1.14.12L952.35,710.24a.81.81,0,0,1-.13,1.14h0a.81.81,0,0,1-1.14-.12L829.5,559.71A.81.81,0,0,1,829.63,558.57Z"/>
      <path class="cls-3" d="M829.81,558h0a.83.83,0,0,1,.83.83v2.06h0v2.2H829v-2.2h0v-2.06A.84.84,0,0,1,829.81,558Z"/>
      <polygon class="cls-5" points="829.7 719.86 747.09 719.86 737.6 705.34 829.7 562.22 829.7 719.86"/>
      <rect class="cls-27" x="744.16" y="715.38" width="171.41" height="4.47"/>
      <rect class="cls-27" x="742.14" y="709.73" width="175.29" height="2.53"/>
      <polygon class="cls-28" points="829.51 633.7 786.98 705.74 801.57 719.86 829.51 633.7"/>
      <polygon class="cls-28" points="830.96 633.7 873.48 705.74 858.89 719.86 830.96 633.7"/>
      <polygon class="cls-3" points="801.57 719.86 859.13 719.86 830.26 632.34 801.57 719.86"/>
    </g>
    <g id="Tent_3" data-name="Tent 3">
      <g>
        <path class="cls-3" d="M436.22,709.48a1.59,1.59,0,0,1,1.59,1.58l.08,8.78h-3.25v-8.78A1.58,1.58,0,0,1,436.22,709.48Z"/>
        <path class="cls-3" d="M707.1,709.48h0a1.59,1.59,0,0,1,1.59,1.58l.08,8.78h-3.26v-8.78A1.59,1.59,0,0,1,707.1,709.48Z"/>
        <path class="cls-2" d="M571.66,541.63h0a.9.9,0,0,0-1.27.14L435.63,709.19a.89.89,0,0,0,.13,1.26h0a.91.91,0,0,0,1.27-.13L571.8,542.89A.9.9,0,0,0,571.66,541.63Z"/>
        <path class="cls-2" d="M571.37,541.63h0a.9.9,0,0,1,1.27.14L707.4,709.19a.9.9,0,0,1-.13,1.26h0a.9.9,0,0,1-1.26-.13L571.23,542.89A.89.89,0,0,1,571.37,541.63Z"/>
        <path class="cls-3" d="M571.57,541h0a.92.92,0,0,1,.92.92v2.27h0v2.43h-1.85v-2.43h0v-2.27A.93.93,0,0,1,571.57,541Z"/>
      </g>
      <polygon class="cls-29" points="447.53 646.58 571.7 545.61 694.92 646.58 663.35 716.84 480.05 716.84 447.53 646.58"/>
      <path class="cls-2" d="M448.42,646.27a.42.42,0,0,0-.49.34l-12.1,69.52a.42.42,0,0,0,.34.48.42.42,0,0,0,.49-.34l12.1-69.52A.42.42,0,0,0,448.42,646.27Z"/>
      <path class="cls-30" d="M571.7,562.3l100.54,84.28-8.89,70.26H480.05l-8.89-70.26C504,620.3,541.06,589.38,571.7,562.3Z"/>
      <path class="cls-2" d="M693.59,646.46a.41.41,0,0,1,.49.33l14.13,69.13a.42.42,0,0,1-.32.5.43.43,0,0,1-.5-.33L693.26,647A.42.42,0,0,1,693.59,646.46Z"/>
      <path class="cls-31" d="M571.09,716.84h-91l-8.89-70.26c32.62-26.1,69.41-56.79,99.93-83.74Z"/>
      <rect class="cls-32" x="479.58" y="712.29" width="184.34" height="0.86"/>
      <path class="cls-16" d="M571.7,639.84c29.53,0,53.47,34.38,53.47,76.79v.21H518.23v-.21C518.23,674.22,542.17,639.84,571.7,639.84Z"/>
      <path class="cls-28" d="M571.7,643.44c27.48,0,49.76,32.77,49.76,73.2v.2H521.94v-.2C521.94,676.21,544.22,643.44,571.7,643.44Z"/>
      <path class="cls-21" d="M525.2,716.84h93c-4.73-6.83-8.41-17.65-4.73-34.22l-.26-.2-40.56-38.48-.19-.23h-1.52l-.19.23-40.56,38.48-.26.2C533.61,699.19,529.93,710,525.2,716.84Z"/>
    </g>
    <g id="Tent_2" data-name="Tent 2">
      <path class="cls-22" d="M323.69,574.44c36.7,57.46,23.88,37,92.74,145.18H218.51l92.62-145C317.39,574.52,316.05,574.52,323.69,574.44Z"/>
      <g>
        <path class="cls-3" d="M199.38,711h0a1.36,1.36,0,0,1,1.39,1.32l.06,7.35H198v-7.35A1.35,1.35,0,0,1,199.38,711Z"/>
        <path class="cls-3" d="M435.49,711h0a1.35,1.35,0,0,1,1.38,1.32l.07,7.35H434.1v-7.35A1.36,1.36,0,0,1,435.49,711Z"/>
        <path class="cls-2" d="M317.43,570.53h0a.82.82,0,0,0-1.11.13L198.86,710.71a.73.73,0,0,0,.12,1.06h0a.82.82,0,0,0,1.11-.13l117.46-140A.73.73,0,0,0,317.43,570.53Z"/>
        <path class="cls-2" d="M317.18,570.53h0a.82.82,0,0,1,1.11.13L435.75,710.71a.73.73,0,0,1-.12,1.06h0a.81.81,0,0,1-1.1-.13l-117.46-140A.72.72,0,0,1,317.18,570.53Z"/>
        <path class="cls-3" d="M317.35,570h0a.8.8,0,0,1,.81.77v1.9h0v2h-1.62v-2h0v-1.9A.79.79,0,0,1,317.35,570Z"/>
      </g>
      <path class="cls-23" d="M323.08,574.44c33.1,57.46,21.54,37,83.64,145.18H228.22c28.37-49.24,57.12-99.14,83.53-145C317.4,574.52,316.19,574.52,323.08,574.44Z"/>
      <path class="cls-24" d="M311.86,574.44c-33.1,57.46-21.54,37-83.64,145.18h89.6V574.52Z"/>
      <polygon class="cls-25" points="317.18 609.01 276.09 701.5 290.19 719.62 317.18 609.01"/>
      <polygon class="cls-25" points="318.58 609.01 359.67 701.5 345.57 719.62 318.58 609.01"/>
      <polygon class="cls-26" points="290.19 719.62 345.8 719.62 317.91 607.27 290.19 719.62"/>
    </g>
    <g id="Tent_1" data-name="Tent 1">
      <g>
        <path class="cls-3" d="M199.43,710.3h0a1.42,1.42,0,0,1,1.44,1.4l.08,7.78h-3V711.7A1.43,1.43,0,0,1,199.43,710.3Z"/>
        <path class="cls-2" d="M76.51,561.56h0a.83.83,0,0,0-1.15.12L-46.95,710a.79.79,0,0,0,.12,1.12h0a.83.83,0,0,0,1.15-.13L76.63,562.68A.79.79,0,0,0,76.51,561.56Z"/>
        <path class="cls-2" d="M76.25,561.56h0a.83.83,0,0,1,1.15.12L199.71,710a.79.79,0,0,1-.13,1.12h0a.83.83,0,0,1-1.15-.13L76.13,562.68A.78.78,0,0,1,76.25,561.56Z"/>
        <path class="cls-3" d="M76.43,561h0a.82.82,0,0,1,.83.81v2h0V566H75.58v-2.15h0v-2A.83.83,0,0,1,76.43,561Z"/>
      </g>
      <path class="cls-16" d="M76.65,565.58c56.79,0,102.82,68.72,102.82,153.48v.42H-26.16v-.42C-26.16,634.3,19.87,565.58,76.65,565.58Z"/>
      <path class="cls-17" d="M75.85,565.59c-56.41.65-102,69.11-102,153.47v.42h102Z"/>
      <path class="cls-19" d="M76.65,612.64c30.07,0,54.44,47.7,54.44,106.55v.29H22.22v-.29C22.22,660.34,46.59,612.64,76.65,612.64Z"/>
      <path class="cls-14" d="M76.65,616.51c28.6,0,51.78,46,51.78,102.69v.28H24.88v-.28C24.88,662.49,48.06,616.51,76.65,616.51Z"/>
      <g>
        <polygon class="cls-20" points="75.95 616.51 34.87 702.61 48.96 719.48 75.95 616.51"/>
        <polygon class="cls-20" points="77.35 616.51 118.44 702.61 104.34 719.48 77.35 616.51"/>
      </g>
      <polygon class="cls-33" points="48.23 719.33 105.08 719.33 77.41 616.74 75.89 616.74 48.23 719.33"/>
    </g>
  </g>
  <g id="Stage">
    <polygon id="Dark_Purple_Base" data-name="Dark Purple Base" class="cls-34" points="200 955.89 1720 949.42 1720 865 200 865 200 955.89"/>
    <polygon class="cls-35" points="1720 865 200 865 379 715 1545.04 715 1720 865"/>
  </g>
  <g id="Towers">
    <g id="Top_Tower" data-name="Top Tower">
      <line class="cls-36" x1="351.98" y1="5.38" x2="351.98" y2="78.15"/>
      <line class="cls-36" x1="428.92" y1="6.43" x2="428.92" y2="79.2"/>
      <line class="cls-36" x1="277.17" y1="5.91" x2="351.98" y2="78.67"/>
      <line class="cls-36" x1="428.92" y1="78.67" x2="351.98" y2="5.91"/>
      <line class="cls-36" x1="353.05" y1="78.67" x2="428.92" y2="5.91"/>
      <line class="cls-36" x1="503.73" y1="5.38" x2="503.73" y2="78.15"/>
      <line class="cls-36" x1="580.68" y1="6.43" x2="580.68" y2="79.2"/>
      <line class="cls-36" x1="428.92" y1="5.91" x2="503.73" y2="78.67"/>
      <line class="cls-36" x1="503.73" y1="5.91" x2="428.92" y2="78.67"/>
      <line class="cls-36" x1="580.68" y1="78.67" x2="503.73" y2="5.91"/>
      <line class="cls-36" x1="504.8" y1="78.67" x2="580.68" y2="5.91"/>
      <line class="cls-36" x1="655.48" y1="5.38" x2="655.48" y2="78.15"/>
      <line class="cls-36" x1="732.43" y1="6.43" x2="732.43" y2="79.2"/>
      <line class="cls-36" x1="580.68" y1="5.91" x2="655.48" y2="78.67"/>
      <line class="cls-36" x1="655.48" y1="5.91" x2="580.68" y2="78.67"/>
      <line class="cls-36" x1="732.43" y1="78.67" x2="655.48" y2="5.91"/>
      <line class="cls-36" x1="656.55" y1="78.67" x2="732.43" y2="5.91"/>
      <line class="cls-36" x1="807.24" y1="5.38" x2="807.24" y2="78.15"/>
      <line class="cls-36" x1="884.18" y1="6.43" x2="884.18" y2="79.2"/>
      <line class="cls-36" x1="732.43" y1="5.91" x2="807.24" y2="78.67"/>
      <line class="cls-36" x1="807.24" y1="5.91" x2="732.43" y2="78.67"/>
      <line class="cls-36" x1="884.18" y1="78.67" x2="807.24" y2="5.91"/>
      <line class="cls-36" x1="808.3" y1="78.67" x2="884.18" y2="5.91"/>
      <line class="cls-36" x1="960.06" y1="6.43" x2="960.06" y2="79.2"/>
      <line class="cls-36" x1="960.06" y1="78.67" x2="883.11" y2="5.91"/>
      <line class="cls-36" x1="884.18" y1="78.67" x2="960.06" y2="5.91"/>
      <line class="cls-36" x1="277.17" y1="78.67" x2="960.06" y2="78.67"/>
      <line class="cls-36" x1="1568.02" y1="5.5" x2="1568.02" y2="78.27"/>
      <line class="cls-36" x1="1491.08" y1="6.56" x2="1491.08" y2="79.33"/>
      <line class="cls-36" x1="1642.83" y1="6.03" x2="1568.02" y2="78.8"/>
      <line class="cls-36" x1="1491.08" y1="78.8" x2="1568.02" y2="6.03"/>
      <line class="cls-36" x1="1566.95" y1="78.8" x2="1491.08" y2="6.03"/>
      <line class="cls-36" x1="1416.27" y1="5.5" x2="1416.27" y2="78.27"/>
      <line class="cls-36" x1="1339.32" y1="6.56" x2="1339.32" y2="79.33"/>
      <line class="cls-36" x1="1491.08" y1="6.03" x2="1416.27" y2="78.8"/>
      <line class="cls-36" x1="1416.27" y1="6.03" x2="1491.08" y2="78.8"/>
      <line class="cls-36" x1="1339.32" y1="78.8" x2="1416.27" y2="6.03"/>
      <line class="cls-36" x1="1415.2" y1="78.8" x2="1339.32" y2="6.03"/>
      <line class="cls-36" x1="1264.52" y1="5.5" x2="1264.52" y2="78.27"/>
      <line class="cls-36" x1="1187.57" y1="6.56" x2="1187.57" y2="79.33"/>
      <line class="cls-36" x1="1339.32" y1="6.03" x2="1264.52" y2="78.8"/>
      <line class="cls-36" x1="1264.52" y1="6.03" x2="1339.32" y2="78.8"/>
      <line class="cls-36" x1="1187.57" y1="78.8" x2="1264.52" y2="6.03"/>
      <line class="cls-36" x1="1263.45" y1="78.8" x2="1187.57" y2="6.03"/>
      <line class="cls-36" x1="1112.76" y1="5.5" x2="1112.76" y2="78.27"/>
      <line class="cls-36" x1="1035.82" y1="6.56" x2="1035.82" y2="79.33"/>
      <line class="cls-36" x1="1187.57" y1="6.03" x2="1112.76" y2="78.8"/>
      <line class="cls-36" x1="1112.76" y1="6.03" x2="1187.57" y2="78.8"/>
      <line class="cls-36" x1="1035.82" y1="78.8" x2="1112.76" y2="6.03"/>
      <line class="cls-36" x1="1111.7" y1="78.8" x2="1035.82" y2="6.03"/>
      <line class="cls-36" x1="959.94" y1="6.56" x2="959.94" y2="79.33"/>
      <line class="cls-36" x1="959.94" y1="78.8" x2="1036.89" y2="6.03"/>
      <line class="cls-36" x1="1035.82" y1="78.8" x2="959.94" y2="6.03"/>
      <line class="cls-36" x1="1642.83" y1="78.8" x2="959.94" y2="78.8"/>
      <line class="cls-36" x1="1643.9" y1="6.03" x2="959.94" y2="6.03"/>
      <line class="cls-36" x1="1568.02" y1="6.03" x2="1642.83" y2="78.8"/>
      <line class="cls-36" x1="1644.62" y1="7.36" x2="1717.91" y2="77.32"/>
      <line class="cls-36" x1="1717.91" y1="7.36" x2="1643.6" y2="78.29"/>
      <rect class="cls-36" x="1643.6" y="6.39" width="76.4" height="71.9" transform="translate(3363.6 84.68) rotate(-180)"/>
      <line class="cls-36" x1="276.1" y1="5.91" x2="960.06" y2="5.91"/>
      <line class="cls-36" x1="351.98" y1="5.91" x2="277.17" y2="78.67"/>
      <line class="cls-36" x1="275.38" y1="7.24" x2="202.09" y2="77.2"/>
      <line class="cls-36" x1="202.09" y1="7.24" x2="276.4" y2="78.17"/>
      <rect class="cls-36" x="200" y="6.27" width="76.4" height="71.9"/>
    </g>
    <g id="Right_Tower" data-name="Right Tower">
      <rect class="cls-36" x="1643.72" y="653.57" width="76.11" height="70.65" transform="translate(3363.54 1377.8) rotate(-180)"/>
      <line class="cls-36" x1="1718.8" y1="654.55" x2="1644.19" y2="724.23"/>
      <line class="cls-36" x1="1644.75" y1="654.55" x2="1718.8" y2="724.5"/>
      <rect class="cls-36" x="1643.72" y="581.67" width="76.11" height="71.9" transform="translate(3363.54 1235.25) rotate(-180)"/>
      <line class="cls-36" x1="1718.8" y1="582.65" x2="1643.72" y2="653.57"/>
      <line class="cls-36" x1="1644.75" y1="582.65" x2="1718.8" y2="652.6"/>
      <rect class="cls-36" x="1643.72" y="509.77" width="76.11" height="71.9" transform="translate(3363.54 1091.45) rotate(-180)"/>
      <line class="cls-36" x1="1718.8" y1="510.75" x2="1643.72" y2="581.67"/>
      <line class="cls-36" x1="1644.75" y1="510.75" x2="1718.8" y2="580.7"/>
      <rect class="cls-36" x="1643.72" y="437.87" width="76.11" height="71.9" transform="translate(3363.54 947.65) rotate(-180)"/>
      <line class="cls-36" x1="1718.8" y1="438.85" x2="1643.72" y2="509.77"/>
      <line class="cls-36" x1="1644.75" y1="438.85" x2="1718.8" y2="508.8"/>
      <rect class="cls-36" x="1643.72" y="365.97" width="76.11" height="71.9" transform="translate(3363.54 803.85) rotate(-180)"/>
      <line class="cls-36" x1="1718.8" y1="366.95" x2="1643.72" y2="437.87"/>
      <line class="cls-36" x1="1644.75" y1="366.95" x2="1718.8" y2="436.9"/>
      <rect class="cls-36" x="1643.72" y="294.07" width="76.11" height="71.9" transform="translate(3363.54 660.05) rotate(-180)"/>
      <line class="cls-36" x1="1718.8" y1="295.05" x2="1643.72" y2="365.97"/>
      <line class="cls-36" x1="1644.75" y1="295.05" x2="1718.8" y2="365"/>
      <rect class="cls-36" x="1643.72" y="222.17" width="76.11" height="71.9" transform="translate(3363.54 516.25) rotate(-180)"/>
      <line class="cls-36" x1="1718.8" y1="223.15" x2="1643.72" y2="294.07"/>
      <line class="cls-36" x1="1644.75" y1="223.15" x2="1718.8" y2="293.1"/>
      <rect class="cls-36" x="1643.72" y="150.27" width="76.11" height="71.9" transform="translate(3363.54 372.45) rotate(-180)"/>
      <line class="cls-36" x1="1718.8" y1="151.25" x2="1643.72" y2="222.17"/>
      <line class="cls-36" x1="1644.75" y1="151.25" x2="1718.8" y2="221.2"/>
      <polyline class="cls-36" points="1643.89 150.19 1643.89 78.29 1720 78.29 1720 150.19"/>
      <line class="cls-36" x1="1718.97" y1="79.26" x2="1643.89" y2="150.19"/>
      <line class="cls-36" x1="1644.92" y1="79.26" x2="1718.97" y2="149.22"/>
      <rect class="cls-36" x="1643.6" y="723.61" width="76.11" height="70.65" transform="translate(3363.32 1517.88) rotate(-180)"/>
      <line class="cls-36" x1="1718.69" y1="724.58" x2="1644.07" y2="794.26"/>
      <line class="cls-36" x1="1644.63" y1="724.58" x2="1718.69" y2="794.54"/>
      <rect class="cls-36" x="1643.6" y="794.61" width="76.11" height="70.65" transform="translate(3363.32 1659.88) rotate(-180)"/>
      <line class="cls-36" x1="1718.69" y1="795.58" x2="1644.07" y2="865.26"/>
      <line class="cls-36" x1="1644.63" y1="795.58" x2="1718.69" y2="865.54"/>
    </g>
    <g id="Left_Tower" data-name="Left Tower">
      <rect class="cls-36" x="200.39" y="653.45" width="76" height="70.65"/>
      <line class="cls-36" x1="201.2" y1="654.42" x2="275.71" y2="724.1"/>
      <line class="cls-36" x1="275.15" y1="654.42" x2="201.2" y2="724.38"/>
      <rect class="cls-36" x="200.17" y="581.55" width="76" height="71.9"/>
      <line class="cls-36" x1="201.2" y1="582.52" x2="276.18" y2="653.45"/>
      <line class="cls-36" x1="275.15" y1="582.52" x2="201.2" y2="652.48"/>
      <rect class="cls-36" x="200.17" y="509.65" width="76" height="71.9"/>
      <line class="cls-36" x1="201.2" y1="510.62" x2="276.18" y2="581.55"/>
      <line class="cls-36" x1="275.15" y1="510.62" x2="201.2" y2="580.58"/>
      <rect class="cls-36" x="200.17" y="437.75" width="76" height="71.9"/>
      <line class="cls-36" x1="201.2" y1="438.72" x2="276.18" y2="509.65"/>
      <line class="cls-36" x1="275.15" y1="438.72" x2="201.2" y2="508.68"/>
      <rect class="cls-36" x="200.17" y="365.85" width="76" height="71.9"/>
      <line class="cls-36" x1="201.2" y1="366.82" x2="276.18" y2="437.75"/>
      <line class="cls-36" x1="275.15" y1="366.82" x2="201.2" y2="436.78"/>
      <rect class="cls-36" x="200.17" y="293.95" width="76" height="71.9"/>
      <line class="cls-36" x1="201.2" y1="294.92" x2="276.18" y2="365.85"/>
      <line class="cls-36" x1="275.15" y1="294.92" x2="201.2" y2="364.88"/>
      <rect class="cls-36" x="200.17" y="222.05" width="76" height="71.9"/>
      <line class="cls-36" x1="201.2" y1="223.02" x2="276.18" y2="293.95"/>
      <line class="cls-36" x1="275.15" y1="223.02" x2="201.2" y2="292.98"/>
      <rect class="cls-36" x="200.17" y="150.15" width="76" height="71.9"/>
      <line class="cls-36" x1="201.2" y1="151.12" x2="276.18" y2="222.05"/>
      <line class="cls-36" x1="275.15" y1="151.12" x2="201.2" y2="221.08"/>
      <polyline class="cls-36" points="276 150.07 276 78.17 200 78.17 200 150.07"/>
      <line class="cls-36" x1="201.03" y1="79.14" x2="276" y2="150.07"/>
      <line class="cls-36" x1="274.98" y1="79.14" x2="201.03" y2="149.1"/>
      <rect class="cls-36" x="200.39" y="724.17" width="76" height="70.65" transform="translate(476.79 1519) rotate(-180)"/>
      <line class="cls-36" x1="275.37" y1="725.15" x2="200.86" y2="794.83"/>
      <line class="cls-36" x1="201.42" y1="725.15" x2="275.37" y2="795.1"/>
      <rect class="cls-36" x="200.39" y="795.17" width="76" height="70.65" transform="translate(476.79 1661) rotate(-180)"/>
      <line class="cls-36" x1="275.37" y1="796.15" x2="200.86" y2="865.83"/>
      <line class="cls-36" x1="201.42" y1="796.15" x2="275.37" y2="866.1"/>
    </g>
  </g>
  <g id="Speakers">
    <g id="Right_Speakers" data-name="Right Speakers">
      <g id="Bottom">
        <rect id="Background" class="cls-34" x="1680" y="506.17" width="97.53" height="133.28" rx="3.12"/>
        <g id="Bass">
          <g>
            <path class="cls-35" d="M1728.67,562.87c18.66,0,33.75,14,33.75,31.34s-15.09,31.34-33.75,31.34-33.76-14-33.76-31.34S1710,562.87,1728.67,562.87Zm24.56,31.34c0-12.6-11-22.8-24.56-22.8s-24.57,10.2-24.57,22.8,11,22.81,24.57,22.81S1753.23,606.82,1753.23,594.21Z"/>
            <path class="cls-34" d="M1728.67,571.41c13.57,0,24.56,10.2,24.56,22.8s-11,22.81-24.56,22.81-24.57-10.2-24.57-22.81S1715.09,571.41,1728.67,571.41Zm8.06,23c.09-4.14-3.45-7.55-7.91-7.64a7.52,7.52,0,1,0-.32,15C1733,601.79,1736.64,598.51,1736.73,594.37Z"/>
            <path class="cls-35" d="M1728.82,586.73c4.46.09,8,3.5,7.91,7.64s-3.77,7.42-8.23,7.35a7.52,7.52,0,1,1,.32-15Z"/>
          </g>
        </g>
        <g id="Tweeter">
          <g>
            <path class="cls-35" d="M1728.66,515.64c10.67,0,19.29,8,19.29,17.9s-8.62,17.91-19.29,17.91-19.29-8-19.29-17.91S1718,515.64,1728.66,515.64Zm14,17.9c0-7.2-6.28-13-14-13s-14,5.83-14,13,6.28,13,14,13S1742.7,540.74,1742.7,533.54Z"/>
            <path class="cls-34" d="M1728.66,520.51c7.76,0,14,5.83,14,13s-6.28,13-14,13-14-5.83-14-13S1720.9,520.51,1728.66,520.51Zm4.61,13a4.63,4.63,0,1,0-4.61,4.29A4.45,4.45,0,0,0,1733.27,533.54Z"/>
            <path class="cls-35" d="M1728.66,529.27a4.29,4.29,0,1,1-4.62,4.27A4.45,4.45,0,0,1,1728.66,529.27Z"/>
          </g>
        </g>
      </g>
      <g id="Middle">
        <rect id="Background-2" data-name="Background" class="cls-34" x="1682.47" y="301.37" width="97.53" height="133.28" rx="3.12"/>
        <g id="Bass-2" data-name="Bass">
          <g>
            <path class="cls-35" d="M1731.14,358.06c18.66,0,33.76,14,33.76,31.35s-15.1,31.33-33.76,31.33-33.76-14-33.76-31.33S1712.48,358.06,1731.14,358.06Zm24.57,31.35c0-12.6-11-22.8-24.57-22.8s-24.57,10.2-24.57,22.8,11,22.8,24.57,22.8S1755.71,402,1755.71,389.41Z"/>
            <path class="cls-34" d="M1731.14,366.61c13.58,0,24.57,10.2,24.57,22.8s-11,22.8-24.57,22.8-24.57-10.2-24.57-22.8S1717.56,366.61,1731.14,366.61Zm8.06,23c.1-4.14-3.45-7.56-7.91-7.64a7.51,7.51,0,1,0-.32,15C1735.43,397,1739.11,393.69,1739.2,389.57Z"/>
            <path class="cls-35" d="M1731.29,381.93c4.46.08,8,3.5,7.91,7.64s-3.77,7.41-8.23,7.33a7.51,7.51,0,1,1,.32-15Z"/>
          </g>
        </g>
        <g id="Tweeter-2" data-name="Tweeter">
          <g>
            <path class="cls-35" d="M1731.14,310.84c10.65,0,19.29,8,19.29,17.91s-8.64,17.9-19.29,17.9-19.29-8-19.29-17.9S1720.47,310.84,1731.14,310.84Zm14,17.91c0-7.22-6.28-13-14-13s-14.05,5.82-14.05,13,6.28,13,14.05,13S1745.18,336,1745.18,328.75Z"/>
            <path class="cls-34" d="M1731.14,315.71c7.76,0,14,5.82,14,13s-6.28,13-14,13-14.05-5.82-14.05-13S1723.37,315.71,1731.14,315.71Zm4.61,13a4.63,4.63,0,1,0-4.61,4.27A4.46,4.46,0,0,0,1735.75,328.75Z"/>
            <path class="cls-35" d="M1731.14,324.46a4.29,4.29,0,1,1-4.62,4.29A4.46,4.46,0,0,1,1731.14,324.46Z"/>
          </g>
        </g>
      </g>
      <g id="Top">
        <rect id="Background-3" data-name="Background" class="cls-34" x="1682.47" y="99.45" width="97.53" height="133.28" rx="3.12"/>
        <g id="Bass-3" data-name="Bass">
          <g>
            <path class="cls-35" d="M1731.14,156.15c18.66,0,33.76,14,33.76,31.33s-15.1,31.35-33.76,31.35-33.76-14-33.76-31.35S1712.48,156.15,1731.14,156.15Zm24.57,31.35c0-12.6-11-22.8-24.57-22.8s-24.57,10.2-24.57,22.8,11,22.8,24.57,22.8S1755.71,200.1,1755.71,187.5Z"/>
            <path class="cls-34" d="M1731.14,164.7c13.58,0,24.57,10.2,24.57,22.8s-11,22.8-24.57,22.8-24.57-10.2-24.57-22.8S1717.56,164.7,1731.14,164.7Zm8.06,23c.1-4.15-3.45-7.57-7.91-7.64a7.51,7.51,0,1,0-.32,15C1735.43,195.07,1739.11,191.78,1739.2,187.66Z"/>
            <path class="cls-35" d="M1731.29,180c4.46.07,8,3.49,7.91,7.64s-3.77,7.41-8.23,7.33a7.51,7.51,0,1,1,.32-15Z"/>
          </g>
        </g>
        <g id="Tweeter-3" data-name="Tweeter">
          <g>
            <path class="cls-35" d="M1731.13,108.93c10.66,0,19.29,8,19.29,17.9s-8.63,17.9-19.29,17.9-19.29-8-19.29-17.9S1720.47,108.93,1731.13,108.93Zm14,17.9c0-7.2-6.28-13-14-13s-14,5.83-14,13,6.28,13,14,13S1745.17,134,1745.17,126.83Z"/>
            <path class="cls-34" d="M1731.13,113.8c7.76,0,14,5.83,14,13s-6.28,13-14,13-14-5.83-14-13S1723.37,113.8,1731.13,113.8Zm4.62,13a4.63,4.63,0,1,0-4.62,4.28A4.46,4.46,0,0,0,1735.75,126.83Z"/>
            <path class="cls-35" d="M1731.13,122.55a4.29,4.29,0,1,1-4.61,4.28A4.46,4.46,0,0,1,1731.13,122.55Z"/>
          </g>
        </g>
      </g>
    </g>
    <g id="Left_Speakers" data-name="Left Speakers">
      <g id="Bottom-2" data-name="Bottom">
        <rect id="Background-4" data-name="Background" class="cls-34" x="140" y="499.17" width="97.53" height="133.28" rx="3.12"/>
        <g id="Bass-4" data-name="Bass">
          <g>
            <path class="cls-35" d="M188.67,555.87c18.66,0,33.75,14,33.75,31.34s-15.09,31.34-33.75,31.34-33.76-14-33.76-31.34S170,555.87,188.67,555.87Zm24.56,31.34c0-12.6-11-22.8-24.56-22.8s-24.57,10.2-24.57,22.8,11,22.81,24.57,22.81S213.23,599.82,213.23,587.21Z"/>
            <path class="cls-34" d="M188.67,564.41c13.57,0,24.56,10.2,24.56,22.8S202.24,610,188.67,610s-24.57-10.2-24.57-22.81S175.09,564.41,188.67,564.41Zm8.06,23c.09-4.14-3.45-7.55-7.91-7.64a7.52,7.52,0,1,0-.32,15C193,594.79,196.64,591.51,196.73,587.37Z"/>
            <path class="cls-35" d="M188.82,579.73c4.46.09,8,3.5,7.91,7.64s-3.77,7.42-8.23,7.35a7.52,7.52,0,1,1,.32-15Z"/>
          </g>
        </g>
        <g id="Tweeter-4" data-name="Tweeter">
          <g>
            <path class="cls-35" d="M188.66,508.64c10.67,0,19.29,8,19.29,17.9s-8.62,17.91-19.29,17.91-19.29-8-19.29-17.91S178,508.64,188.66,508.64Zm14,17.9c0-7.2-6.28-13-14-13s-14,5.83-14,13,6.28,13,14,13S202.7,533.74,202.7,526.54Z"/>
            <path class="cls-34" d="M188.66,513.51c7.76,0,14,5.83,14,13s-6.28,13-14,13-14-5.83-14-13S180.9,513.51,188.66,513.51Zm4.61,13a4.63,4.63,0,1,0-4.61,4.29A4.45,4.45,0,0,0,193.27,526.54Z"/>
            <path class="cls-35" d="M188.66,522.27a4.29,4.29,0,1,1-4.62,4.27A4.45,4.45,0,0,1,188.66,522.27Z"/>
          </g>
        </g>
      </g>
      <g id="Middle-2" data-name="Middle">
        <rect id="Background-5" data-name="Background" class="cls-34" x="142.47" y="294.37" width="97.53" height="133.28" rx="3.12"/>
        <g id="Bass-5" data-name="Bass">
          <g>
            <path class="cls-35" d="M191.14,351.06c18.66,0,33.76,14,33.76,31.35s-15.1,31.33-33.76,31.33-33.76-14-33.76-31.33S172.48,351.06,191.14,351.06Zm24.57,31.35c0-12.6-11-22.8-24.57-22.8s-24.57,10.2-24.57,22.8,11,22.8,24.57,22.8S215.71,395,215.71,382.41Z"/>
            <path class="cls-34" d="M191.14,359.61c13.58,0,24.57,10.2,24.57,22.8s-11,22.8-24.57,22.8-24.57-10.2-24.57-22.8S177.56,359.61,191.14,359.61Zm8.06,23c.1-4.14-3.45-7.56-7.91-7.64a7.51,7.51,0,1,0-.32,15C195.43,390,199.11,386.69,199.2,382.57Z"/>
            <path class="cls-35" d="M191.29,374.93c4.46.08,8,3.5,7.91,7.64S195.43,390,191,389.9a7.51,7.51,0,1,1,.32-15Z"/>
          </g>
        </g>
        <g id="Tweeter-5" data-name="Tweeter">
          <g>
            <path class="cls-35" d="M191.14,303.84c10.65,0,19.29,8,19.29,17.91s-8.64,17.9-19.29,17.9-19.29-8-19.29-17.9S180.47,303.84,191.14,303.84Zm14,17.91c0-7.22-6.28-13-14-13s-14,5.82-14,13,6.28,13,14,13S205.18,329,205.18,321.75Z"/>
            <path class="cls-34" d="M191.14,308.71c7.76,0,14,5.82,14,13s-6.28,13-14,13-14-5.82-14-13S183.37,308.71,191.14,308.71Zm4.61,13a4.63,4.63,0,1,0-4.61,4.27A4.46,4.46,0,0,0,195.75,321.75Z"/>
            <path class="cls-35" d="M191.14,317.46a4.29,4.29,0,1,1-4.62,4.29A4.46,4.46,0,0,1,191.14,317.46Z"/>
          </g>
        </g>
      </g>
      <g id="Top-2" data-name="Top">
        <rect id="Background-6" data-name="Background" class="cls-34" x="142.47" y="92.45" width="97.53" height="133.28" rx="3.12"/>
        <g id="Bass-6" data-name="Bass">
          <g>
            <path class="cls-35" d="M191.14,149.15c18.66,0,33.76,14,33.76,31.33s-15.1,31.35-33.76,31.35-33.76-14-33.76-31.35S172.48,149.15,191.14,149.15Zm24.57,31.35c0-12.6-11-22.8-24.57-22.8s-24.57,10.2-24.57,22.8,11,22.8,24.57,22.8S215.71,193.1,215.71,180.5Z"/>
            <path class="cls-34" d="M191.14,157.7c13.58,0,24.57,10.2,24.57,22.8s-11,22.8-24.57,22.8-24.57-10.2-24.57-22.8S177.56,157.7,191.14,157.7Zm8.06,23c.1-4.15-3.45-7.57-7.91-7.64a7.51,7.51,0,1,0-.32,15C195.43,188.07,199.11,184.78,199.2,180.66Z"/>
            <path class="cls-35" d="M191.29,173c4.46.07,8,3.49,7.91,7.64s-3.77,7.41-8.23,7.33a7.51,7.51,0,1,1,.32-15Z"/>
          </g>
        </g>
        <g id="Tweeter-6" data-name="Tweeter">
          <g>
            <path class="cls-35" d="M191.13,101.93c10.66,0,19.29,8,19.29,17.9s-8.63,17.9-19.29,17.9-19.29-8-19.29-17.9S180.47,101.93,191.13,101.93Zm14,17.9c0-7.2-6.28-13-14-13s-14,5.83-14,13,6.28,13,14,13S205.17,127,205.17,119.83Z"/>
            <path class="cls-34" d="M191.13,106.8c7.76,0,14,5.83,14,13s-6.28,13-14,13-14-5.83-14-13S183.37,106.8,191.13,106.8Zm4.62,13a4.63,4.63,0,1,0-4.62,4.28A4.46,4.46,0,0,0,195.75,119.83Z"/>
            <path class="cls-35" d="M191.13,115.55a4.29,4.29,0,1,1-4.61,4.28A4.46,4.46,0,0,1,191.13,115.55Z"/>
          </g>
        </g>
      </g>
    </g>
  </g>
</svg>
