<?xml version="1.0" encoding="utf-8"?>
<!-- Generator: Adobe Illustrator 24.2.0, SVG Export Plug-In . SVG Version: 6.00 Build 0)  -->
<svg version="1.1" id="StreamParty_Logo" xmlns="http://www.w3.org/2000/svg" xmlns:xlink="http://www.w3.org/1999/xlink" x="0px"
	 y="0px" viewBox="0 0 1000 1000" style="enable-background:new 0 0 1000 1000;" xml:space="preserve">
<style type="text/css">
	.st0{fill:none;}
	.st1{fill:url(#SVGID_1_);}
	.st2{fill:url(#SVGID_2_);}
	.st3{fill:url(#SVGID_3_);}
	.st4{fill:url(#SVGID_4_);}
	.st5{fill:url(#SVGID_5_);}
	.st6{fill:url(#SVGID_6_);}
	.st7{fill:url(#SVGID_7_);}
</style>
<g id="Inner_Sine" transform="matrix(1,0,0,-1,1090,550)">
	<rect x="-713.1" y="271" class="st0" width="250.8" height="-105"/>
	<g>
		
			<linearGradient id="SVGID_1_" gradientUnits="userSpaceOnUse" x1="-1097.2087" y1="-444.1671" x2="-1094.8867" y2="-444.1671" gradientTransform="matrix(98 0 0 36.7615 106825 16547.6641)">
			<stop  offset="0" style="stop-color:#E78200"/>
			<stop  offset="1" style="stop-color:#650D88"/>
		</linearGradient>
		<path class="st1" d="M-473.9,179.2h-33.4c-4.5,0-7.2,3.1-9.9,8.1c-2.2-2.6-3.9-4.4-5.7-4.4c-4.4,0-8.2-0.2-11.5-0.2
			c-2.4-3-4.7-5-7.5-5.1c-11.3-0.2-25.5,0-25.6,0c-13.5,0.3-21.6,13.6-29.4,26.7c-6.8,11.3-13.8,22.8-22.7,22.8c0,0,0,0-0.1,0
			c-9.4,0-15.7-10-22.4-21.6c-7.7-13.4-15.6-26.3-30.4-26.3h-29v9.1h10.9c8,4.1,17.9,20.5,25.2,34.9c9.6,18.9,19.6,38.2,36.2,38.2
			c0,0,0.1,0,0.1,0c3.6,0,6.9-1,9.9-2.8c0.3-0.1,0.5-0.3,0.8-0.5c1.7-0.2,3.4-0.6,5-1.3c0.1,0-0.1,0,0,0c0.1,0.1,0.6,0.4,0.8,0.4
			c2.4,0.9,4.9,1.9,7.7,1.9c0,0,0.1,0,0.1,0c4.6,0,8.7-2,12.5-4.7c3.4-2.4,6.5-5.9,9.4-9.7c5.4-7.2,10.3-16.4,15-25.4
			c6.6-12.5,13.5-25.5,21.8-32.4c0.2-0.1,0.3-0.3,0.5-0.4c0.9,0,1.8,0,2.7,0c1.3,1.2,3.8,5,5.4,7.6c4.7,7.3,8.4,13.1,13.7,12.8
			c4.1-0.2,7-3.1,9.5-6.9c0,0.1,0.1,0.1,0.1,0.2c4.8,6.4,9.9,12.1,15,12.1c0.1,0,0.3,0,0.4,0c0.6,0,1.2-0.1,1.7-0.2
			c0.4-0.1,0.8-0.2,1.1-0.3c0.4,0,0.8,0.1,1.2,0c8.8-0.6,12.8-9.1,15.9-16.7c1.2-2.9,2.4-6.6,3.7-6.6h1.1V179.2z M-620.4,258.7
			c-2.7,1.4-5.6,2.4-8.7,2.4c-16.3,0-26.2-19.1-35.7-37.9c-7.1-14-14.5-28-24.6-34.9h6.2c0.5,0,1.5-0.1,2,0.1
			c10.3,5.5,17.2,18.2,24.4,32.2c9.4,18.4,19.3,37.3,36,37.3c0,0,0.6,0,0.6,0c0.3,0,0.3,0,0.7,0C-619.5,258-620.1,258.5-620.4,258.7
			z M-616.1,255.7c-1.6,0.5-3.1,1.1-4.8,1.1c0,0-0.1,0-0.1,0c-15.2,0-24.6-18.3-33.8-36.1c-6.6-12.9-13.4-25.5-22.7-32.4h4.9
			c9.4,0,15.8,10.1,22.5,21.8c4,6.9,8,13.5,13,18.7c0.2,0.3,0.5,0.4,0.8,0.6c0.2,0.4,0.4,0.7,0.6,1.1c5.6,10.4,12.2,20,20,24.7
			C-615.6,255.4-616.1,255.7-616.1,255.7z M-614.6,254.5c-0.1-0.1-0.3-0.1-0.4-0.2c-7.3-4.2-13.1-12.6-18.5-22.2
			c-0.1-0.1-0.1-0.3-0.2-0.4c0,0,0.1-0.2,0.1-0.1c3.9,3.1,8.4,4.7,13.9,4.7c0,0,0.1,0,0.1,0c14.2,0,22.5-13.9,30.6-27.4
			c6.6-11,13.3-22.2,21.7-22.4c0,0,0.1,0.1,0.4,0.1c0,0-0.1,0.1-0.1,0.1c-10.4,5.9-18.3,20.9-26,35.4c-6.5,12.2-13.1,24.7-21.2,32.1
			C-614.3,254.3-614.5,254.4-614.6,254.5z M-613.7,254.5c0.2-0.2,0.4-0.3,0.6-0.5c7.9-7.5,14.3-19.7,20.7-31.6
			c7.8-14.7,15.8-29.8,26.2-35.4c0.2-0.1,0.5-0.2,0.7-0.4c0.6,0,1.4,0,2.4,0c-0.2,0.1-0.3,0.2-0.5,0.3c-9.1,6.6-16.2,19.8-23.1,32.7
			C-594.7,234.4-602.9,249.6-613.7,254.5z M-547.8,186.8c-8,7.3-14.7,19.7-21.1,31.9c-4.7,8.9-9.5,18-14.9,25.1
			c-2.9,3.9-6,7-9.4,9.3c-3.5,2.5-7.4,3.8-11.5,3.8c0,0-0.1,0-0.1,0c-2.2,0-4.3-0.2-6.3-0.9c-0.1,0-0.2,0-0.4-0.1
			c0.1,0,0.2,0,0.3-0.1c10.8-5.8,18.7-20.7,26.5-35.2c7.5-14,15.2-28.4,25.1-33.6c0.4-0.2,0.8-0.4,1.3-0.6c3.3,0,7.1,0,10.9,0
			C-547.5,186.5-547.7,186.6-547.8,186.8z M-523.7,197.6c-1.6-1.5-4.3-5.7-6-8.3c-1-1.6-2-3.1-2.9-4.4c1.9,0,3.9,0,6,0
			c1.7,0.9,3.9,3.5,6.3,6.7c0.1,0.1,0.2,0.2,0.3,0.4C-521.3,194.2-522.7,196.7-523.7,197.6z M-518.6,189.1c-0.3,0.6-0.7,1.4-1.2,2.2
			c-0.1-0.1-0.1-0.2-0.2-0.3c-2-2.7-3.9-5-5.5-6.2c0.9,0,1.7,0,2.6,0c1,0,2.7,1.7,4.5,3.9C-518.4,188.9-518.5,189-518.6,189.1z
			 M-497.6,211.5c-0.4,0.1-0.8,0.1-1.2,0.1c-0.1,0-0.3,0-0.4,0c-4.8,0-10-5.9-14.7-12.1c0-0.1-0.1-0.1-0.1-0.2
			c0.5-0.8,1-1.7,1.5-2.6c0.1,0.1,0.2,0.2,0.3,0.4c4.5,6.2,9.4,12.5,14.5,14.1c0.1,0,0.3,0.1,0.4,0.1
			C-497.3,211.5-497.4,211.5-497.6,211.5z M-492.4,209.1c-0.2,0.1-0.3,0.1-0.5,0.1c-0.6,0.2-1.3,0.2-1.9,0.2
			c-5,0.3-11.1-7.6-16.1-14.6c-0.1-0.1-0.2-0.1-0.2-0.2c0.2-0.4,0.5-0.2,0.7-0.6c1.2-2.2,2.9-5.7,3.9-5.7h26.1
			c-1.1,0-2.1,3.9-3.1,6.4c-1.9,4.6-4.1,9.6-7.4,13.1C-491.4,208.4-491.9,208.7-492.4,209.1z M-480.9,194.1
			c-2.3,5.5-4.8,11-8.9,13.9c-0.3,0.2-0.7,0.3-1,0.5c0.4-0.4,0.7-0.8,1.1-1.2c3-3.5,5-8.1,6.8-12.4c1.1-2.7,2.2-6.6,3.3-6.6h1.9
			C-478.9,188.4-479.8,191.6-480.9,194.1z"/>
	</g>
</g>
<g id="Headphones" transform="matrix(1.4217,0,0,1.4217,1056.1419,381.7441)">
	<rect x="-536.3" y="-268.5" class="st0" width="290.3" height="305.8"/>
	<g>
		
			<linearGradient id="SVGID_2_" gradientUnits="userSpaceOnUse" x1="-746.0845" y1="435.5551" x2="-743.7625" y2="435.5551" gradientTransform="matrix(164.9127 0 0 -176.2965 122514.0938 76671.2109)">
			<stop  offset="0" style="stop-color:#650D88"/>
			<stop  offset="1" style="stop-color:#650D88"/>
		</linearGradient>
		<path class="st2" d="M-390-257.1c-57.1,0-105.7,36.3-123.1,86.7h-2.3l-4.7-21c-0.3-1.2-1.5-2-2.7-1.8c0,0,0,0,0,0
			c-1.3,0.3-2,1.5-1.8,2.7c0,0,0,0,0,0.1l4.6,20.5v40.6c0,3.3,1.9,6.3,4.6,7.8v1.3c0,5.3,1.1,13.3,2.9,18.5v0.1l8.3,26v0.1
			c1.5,4.4,2.7,12.4,2.7,17v13c-10.8,3.8-18.6,14-18.6,25.8c0,13.5,10.1,24.8,23.2,27v15.3c0,1.8,1.6,3.4,3.5,3.4h20.9
			c1.9,0,3.5-1.6,3.5-3.4V-62c0-1.8-1.6-3.4-3.5-3.4h-20.9c-1.9,0-3.5,1.6-3.5,3.4v3.4c0-5.3-1.1-13.3-2.9-18.5v-0.1l-8.3-26v-0.1
			c-1.5-4.4-2.7-12.4-2.7-17c5.1,0,9.3-4.1,9.3-9.1c0-60.5,49.9-109.5,111.5-109.5s111.5,49.1,111.5,109.5c0,5,4.2,9.1,9.3,9.1
			c0,4.7-1.2,12.7-2.7,17v0.1l-8.3,26v0.1c-1.8,5.2-2.9,13.1-2.9,18.5V-62c0-1.8-1.6-3.4-3.5-3.4h-20.9c-1.9,0-3.5,1.6-3.5,3.4v84.4
			c0,1.8,1.6,3.4,3.5,3.4h20.9c1.9,0,3.5-1.6,3.5-3.4V7.2C-270.1,5-260-6.3-260-19.8c0-11.9-7.8-22-18.6-25.8v-13
			c0-4.7,1.2-12.7,2.7-17v-0.1l8.3-26v-0.1c1.8-5.2,2.9-13.1,2.9-18.5v-1.3c2.8-1.6,4.6-4.5,4.6-7.8V-170l4.6-20.5
			c0.3-1.2-0.5-2.5-1.7-2.8c-0.3-0.1-0.7-0.1-1,0c-0.9,0.2-1.6,0.9-1.8,1.8l-4.7,21h-2.3C-284.4-220.8-332.9-257.1-390-257.1
			L-390-257.1z"/>
	</g>
</g>
<g id="Bottom_Sine">
	<g transform="matrix(1,0,0,1,1094,774)">
		<rect x="-712.4" y="121" class="st0" width="250.8" height="105"/>
		<g>
			
				<linearGradient id="SVGID_3_" gradientUnits="userSpaceOnUse" x1="-1101.2021" y1="221.3922" x2="-1098.8801" y2="221.3922" gradientTransform="matrix(98 0 0 -36.7615 107217 8313.0928)">
				<stop  offset="0" style="stop-color:#E78200"/>
				<stop  offset="1" style="stop-color:#650D88"/>
			</linearGradient>
			<path class="st3" d="M-473.3,134.2h-33.4c-4.5,0-7.2,3.1-9.9,8.1c-2.2-2.6-3.9-4.4-5.7-4.4c-4.4,0-8.2-0.2-11.5-0.2
				c-2.4-3-4.7-5-7.5-5.1c-11.3-0.2-25.5,0-25.6,0c-13.5,0.3-21.6,13.6-29.4,26.7c-6.8,11.3-13.8,22.8-22.7,22.8c0,0,0,0-0.1,0
				c-9.4,0-15.7-10-22.4-21.6c-7.7-13.4-15.6-26.3-30.4-26.3h-29v9.1h10.9c8,4.1,17.9,20.5,25.2,34.9c9.6,18.9,19.6,38.2,36.2,38.2
				c0,0,0.1,0,0.1,0c3.6,0,6.9-1,9.9-2.8c0.3-0.1,0.5-0.3,0.8-0.5c1.7-0.2,3.4-0.6,5-1.3c0.1,0-0.1,0,0,0c0.1,0.1,0.6,0.4,0.8,0.4
				c2.4,0.9,4.9,1.9,7.7,1.9c0,0,0.1,0,0.1,0c4.6,0,8.7-2,12.5-4.7c3.4-2.4,6.5-5.9,9.4-9.7c5.4-7.2,10.3-16.4,15-25.4
				c6.6-12.5,13.5-25.5,21.8-32.4c0.2-0.1,0.3-0.3,0.5-0.4c0.9,0,1.8,0,2.7,0c1.3,1.2,3.8,5,5.4,7.6c4.7,7.3,8.4,13.1,13.7,12.8
				c4.1-0.2,7-3.1,9.5-6.9c0,0.1,0.1,0.1,0.1,0.2c4.8,6.4,9.9,12.1,15,12.1c0.1,0,0.3,0,0.4,0c0.6,0,1.2-0.1,1.7-0.2
				c0.4-0.1,0.8-0.2,1.1-0.3c0.4,0,0.8,0.1,1.2,0c8.8-0.6,12.8-9.1,15.9-16.7c1.2-2.9,2.4-6.6,3.7-6.6h1.1V134.2z M-619.8,213.7
				c-2.7,1.4-5.6,2.4-8.7,2.4c-16.3,0-26.2-19.1-35.7-37.9c-7.1-14-14.5-28-24.6-34.9h6.2c0.5,0,1.5-0.1,2,0.1
				c10.3,5.5,17.2,18.2,24.4,32.2c9.4,18.4,19.3,37.3,36,37.3c0,0,0.6,0,0.6,0c0.3,0,0.3,0,0.7,0
				C-618.8,213-619.5,213.5-619.8,213.7z M-615.4,210.7c-1.6,0.5-3.1,1.1-4.8,1.1c0,0-0.1,0-0.1,0c-15.2,0-24.6-18.3-33.8-36.1
				c-6.6-12.9-13.4-25.5-22.7-32.4h4.9c9.4,0,15.8,10.1,22.5,21.8c4,6.9,8,13.5,13,18.7c0.2,0.3,0.5,0.4,0.8,0.6
				c0.2,0.4,0.4,0.7,0.6,1.1c5.6,10.4,12.2,20,20,24.7C-615,210.3-615.5,210.7-615.4,210.7z M-614,209.5c-0.1-0.1-0.3-0.1-0.4-0.2
				c-7.3-4.2-13.1-12.6-18.5-22.2c-0.1-0.1-0.1-0.3-0.2-0.4c0,0,0.1-0.2,0.1-0.1c3.9,3.1,8.4,4.7,13.9,4.7c0,0,0.1,0,0.1,0
				c14.2,0,22.5-13.9,30.6-27.4c6.6-11,13.3-22.2,21.7-22.4c0,0,0.1,0.1,0.4,0.1c0,0-0.1,0.1-0.1,0.1c-10.4,5.9-18.3,20.9-26,35.4
				c-6.5,12.2-13.1,24.7-21.2,32.1C-613.7,209.2-613.8,209.4-614,209.5z M-613,209.4c0.2-0.2,0.4-0.3,0.6-0.5
				c7.9-7.5,14.3-19.7,20.7-31.6c7.8-14.7,15.8-29.8,26.2-35.4c0.2-0.1,0.5-0.2,0.7-0.4c0.6,0,1.4,0,2.4,0c-0.2,0.1-0.3,0.2-0.5,0.3
				c-9.1,6.6-16.2,19.8-23.1,32.7C-594.1,189.3-602.2,204.6-613,209.4z M-547.2,141.7c-8,7.3-14.7,19.7-21.1,31.9
				c-4.7,8.9-9.5,18-14.9,25.1c-2.9,3.9-6,7-9.4,9.3c-3.5,2.5-7.4,3.8-11.5,3.8c0,0-0.1,0-0.1,0c-2.2,0-4.3-0.2-6.3-0.9
				c-0.1,0-0.2,0-0.4-0.1c0.1,0,0.2,0,0.3-0.1c10.8-5.8,18.7-20.7,26.5-35.2c7.5-14,15.2-28.4,25.1-33.6c0.4-0.2,0.8-0.4,1.3-0.6
				c3.3,0,7.1,0,10.9,0C-546.9,141.5-547,141.6-547.2,141.7z M-523.1,152.5c-1.6-1.5-4.3-5.7-6-8.3c-1-1.6-2-3.1-2.9-4.4
				c1.9,0,3.9,0,6,0c1.7,0.9,3.9,3.5,6.3,6.7c0.1,0.1,0.2,0.2,0.3,0.4C-520.6,149.2-522.1,151.6-523.1,152.5z M-517.9,144.1
				c-0.3,0.6-0.7,1.4-1.2,2.2c-0.1-0.1-0.1-0.2-0.2-0.3c-2-2.7-3.9-5-5.5-6.2c0.9,0,1.7,0,2.6,0c1,0,2.7,1.7,4.5,3.9
				C-517.8,143.8-517.8,143.9-517.9,144.1z M-496.9,166.5c-0.4,0.1-0.8,0.1-1.2,0.1c-0.1,0-0.3,0-0.4,0c-4.8,0-10-5.9-14.7-12.1
				c0-0.1-0.1-0.1-0.1-0.2c0.5-0.8,1-1.7,1.5-2.6c0.1,0.1,0.2,0.2,0.3,0.4c4.5,6.2,9.4,12.5,14.5,14.1c0.1,0,0.3,0.1,0.4,0.1
				C-496.7,166.4-496.8,166.5-496.9,166.5z M-491.7,164.1c-0.2,0.1-0.3,0.1-0.5,0.1c-0.6,0.2-1.3,0.2-1.9,0.2
				c-5,0.3-11.1-7.6-16.1-14.6c-0.1-0.1-0.2-0.1-0.2-0.2c0.2-0.4,0.5-0.2,0.7-0.6c1.2-2.2,2.9-5.7,3.9-5.7h26.1
				c-1.1,0-2.1,3.9-3.1,6.4c-1.9,4.6-4.1,9.6-7.4,13.1C-490.8,163.3-491.2,163.7-491.7,164.1z M-480.3,149.1
				c-2.3,5.5-4.8,11-8.9,13.9c-0.3,0.2-0.7,0.3-1,0.5c0.4-0.4,0.7-0.8,1.1-1.2c3-3.5,5-8.1,6.8-12.4c1.1-2.7,2.2-6.6,3.3-6.6h1.9
				C-478.2,143.3-479.2,146.5-480.3,149.1z"/>
		</g>
	</g>
	<g transform="matrix(0.7397,0,0,0.6048,1190.2122,775.8589)">
		<rect x="-788.4" y="207.2" class="st0" width="431.9" height="38.8"/>
		<g>
			
				<linearGradient id="SVGID_4_" gradientUnits="userSpaceOnUse" x1="-1614.974" y1="319.9156" x2="-1612.652" y2="319.9156" gradientTransform="matrix(130.7361 0 0 -4.3661 210365.4844 1623.0746)">
				<stop  offset="0" style="stop-color:#650D88"/>
				<stop  offset="1" style="stop-color:#650D88"/>
			</linearGradient>
			<rect x="-769.9" y="218.7" class="st4" width="410.4" height="15.2"/>
		</g>
	</g>
	<g transform="matrix(0.8039,0,0,0.6048,959.2337,776.8589)">
		<rect x="-1123.8" y="205.8" class="st0" width="431.9" height="38.8"/>
		<g>
			
				<linearGradient id="SVGID_5_" gradientUnits="userSpaceOnUse" x1="-1201.0883" y1="318.6335" x2="-1198.7662" y2="318.6335" gradientTransform="matrix(142.0829 0 0 -4.3661 169541.8906 1615.8556)">
				<stop  offset="0" style="stop-color:#E78200"/>
				<stop  offset="1" style="stop-color:#E78200"/>
			</linearGradient>
			<rect x="-1112.2" y="217.2" class="st5" width="410.4" height="15"/>
		</g>
	</g>
</g>
<g id="Party" transform="matrix(1.3229,0,0,1.3229,1145,621)">
	<path class="st0" d="M-865.5,188.5c331.5-2.3,424.4-2.3,755.9,0"/>
	
		<linearGradient id="SVGID_6_" gradientUnits="userSpaceOnUse" x1="-867.2012" y1="285.8241" x2="-864.8792" y2="285.8241" gradientTransform="matrix(413.0155 0 0 -122.9239 357318.7188 35242.2773)">
		<stop  offset="0" style="stop-color:#E78200"/>
		<stop  offset="1" style="stop-color:#E78200"/>
	</linearGradient>
	<path class="st6" d="M-686.4,55.4v13.1c0,6.6-0.8,12.5-2.5,17.7c-1.7,5.2-3.9,9.8-6.7,13.8s-6.1,7.4-9.8,10.2
		c-3.7,2.8-7.6,5.1-11.6,6.9c-4,1.8-8.1,3.1-12.2,3.9c-4.1,0.8-8,1.2-11.6,1.2l0,0h-66.7v-29h66.7c3.8-0.3,7.2-1.1,10.3-2.3
		c3.1-1.2,5.7-2.9,7.9-5c2.2-2.1,3.9-4.6,5.1-7.5s1.8-6.3,1.8-10l0,0V55.4c-0.4-3.7-1.2-7-2.4-10c-1.2-3-2.9-5.6-4.9-7.8
		c-2.1-2.1-4.6-3.8-7.5-5.1c-3-1.2-6.4-1.8-10.2-1.8l0,0h-66.4c-3.9,0-6.9,1-9,3c-2,2-3.1,4.9-3.1,8.7l0,0v119.1h-29.5V42.3
		c0-7.4,1.4-13.7,4.1-18.9s6.2-9.4,10.3-12.6c4.1-3.2,8.6-5.5,13.4-7c4.8-1.4,9.3-2.2,13.4-2.2l0,0h66.7c6.7,0,12.6,0.8,17.9,2.5
		c5.3,1.7,9.9,3.9,14,6.7c4,2.8,7.5,6,10.3,9.6c2.8,3.6,5.2,7.4,7,11.4c1.8,4,3.2,8,4,12C-686.8,48-686.4,51.8-686.4,55.4
		L-686.4,55.4z M-541.7,80.9v40.7c0,4-0.7,8.3-2.2,13s-3.8,8.9-7,12.9c-3.2,4-7.4,7.3-12.6,10c-5.2,2.7-11.5,4-18.9,4l0,0h-53.2
		c-4.1,0-8.5-0.7-13.2-2.1c-4.7-1.4-9.1-3.7-13.1-6.8c-4.1-3.2-7.4-7.3-10.1-12.4c-2.7-5.1-4.1-11.3-4.1-18.6l0,0
		c0-4,0.7-8.4,2.2-13c1.4-4.7,3.7-9,7-13c3.2-4,7.4-7.3,12.6-10c5.2-2.7,11.5-4,18.9-4l0,0h53.2v27.6h-53.2c-4,0-7.1,1.2-9.3,3.6
		c-2.2,2.4-3.3,5.4-3.3,9l0,0c0,3.8,1.3,6.7,3.8,8.9c2.5,2.1,5.5,3.2,9,3.2l0,0h52.9c4,0,7.1-1.2,9.3-3.6c2.2-2.4,3.3-5.3,3.3-8.9
		l0,0V80.9c0-3.8-1.2-6.8-3.6-9c-2.4-2.2-5.4-3.3-9-3.3l0,0H-647V41h64.7c4.1,0,8.5,0.7,13.2,2.1c4.7,1.4,9.1,3.7,13.1,6.9
		c4,3.1,7.4,7.3,10.1,12.4C-543.1,67.4-541.7,73.6-541.7,80.9L-541.7,80.9z M-409.3,41v29h-66.3c-4,0-7,1-9.1,3
		c-2,2-3.1,4.8-3.1,8.6l0,0v79.9h-29.5V81.5c0-5,0.6-9.4,1.9-13.4c1.3-3.9,3-7.4,5.2-10.4c2.2-3,4.6-5.6,7.4-7.7
		c2.8-2.1,5.7-3.9,8.8-5.2c3.1-1.3,6.2-2.3,9.3-3c3.1-0.6,6.1-0.9,8.8-0.9l0,0H-409.3z M-278.4,41v29h-51.5v91.5h-29.8V70h-38.3V41
		h38.3V1.7h29.8V41H-278.4z M-123.9,41v132c0,5-0.6,9.4-1.9,13.4c-1.3,4-3,7.5-5.1,10.5c-2.1,3-4.6,5.6-7.4,7.7s-5.7,3.8-8.8,5.2
		c-3,1.3-6.1,2.3-9.2,3c-3.1,0.6-6.1,0.9-8.8,0.9l0,0h-53.2v-29h53.2c3.9,0,6.9-1,8.8-3c2-2,2.9-4.9,2.9-8.7l0,0V41H-123.9z
		 M-165.2,132.5v29h-53.2c-4.2,0-8.8-0.7-13.6-2.1c-4.8-1.4-9.3-3.7-13.4-7c-4.2-3.2-7.6-7.4-10.3-12.6c-2.7-5.2-4.1-11.5-4.1-19
		l0,0V41h29.5v79.8c0,3.8,1,6.7,3.1,8.7c2,2,5.1,3,9.1,3l0,0H-165.2z"/>
</g>
<g id="Stream" transform="matrix(0.7727,0,0,0.7727,1111,568)">
	<path class="st0" d="M-1361.5,60.2c422.2-2.3,515-2.3,937.2,0"/>
	
		<linearGradient id="SVGID_7_" gradientUnits="userSpaceOnUse" x1="-1441.6119" y1="560.4163" x2="-1439.2899" y2="560.4163" gradientTransform="matrix(303.8332 0 0 -54.1045 436658.9688 30274.2363)">
		<stop  offset="0" style="stop-color:#650D88"/>
		<stop  offset="1" style="stop-color:#650D88"/>
	</linearGradient>
	<path class="st7" d="M-1188.1-13.9L-1188.1-13.9c0,5.7-0.7,10.9-2.2,15.4c-1.5,4.6-3.4,8.6-5.9,12.1c-2.4,3.5-5.2,6.4-8.5,8.9
		c-3.3,2.4-6.6,4.5-10.1,6c-3.5,1.6-7,2.7-10.6,3.4c-3.6,0.7-7,1.1-10.1,1.1l0,0h-113.7v-29h113.7c5.7,0,10.1-1.6,13.2-4.9
		c3.1-3.3,4.7-7.7,4.7-13.2l0,0c0-2.7-0.4-5.1-1.2-7.3c-0.8-2.2-2-4.2-3.6-5.8c-1.5-1.6-3.4-2.9-5.7-3.8c-2.2-0.9-4.7-1.3-7.4-1.3
		l0,0h-67.8c-4.8,0-9.9-0.8-15.4-2.5c-5.5-1.7-10.7-4.4-15.4-8.1c-4.7-3.7-8.7-8.6-11.8-14.6c-3.1-6-4.7-13.4-4.7-22.1l0,0
		c0-8.7,1.6-16,4.7-22c3.1-6,7.1-10.8,11.8-14.6c4.7-3.7,9.8-6.4,15.4-8.1c5.5-1.7,10.7-2.5,15.4-2.5l0,0h100.3v29h-100.3
		c-5.6,0-10,1.7-13.1,5c-3.1,3.3-4.7,7.8-4.7,13.3l0,0c0,5.6,1.6,10,4.7,13.2c3.1,3.2,7.5,4.8,13.1,4.8l0,0h67.8h0.2
		c3.2,0.1,6.5,0.5,10.1,1.3c3.6,0.8,7.1,2,10.6,3.6c3.5,1.6,6.9,3.7,10,6.2c3.2,2.5,6,5.5,8.5,9c2.4,3.5,4.4,7.5,5.8,12
		C-1188.9-24.8-1188.1-19.6-1188.1-13.9z M-1060.7-87.3v29h-51.5v91.5h-29.8v-91.5h-38.3v-29h38.3v-39.3h29.8v39.3H-1060.7z
		 M-934.7-87.3v29h-66.3c-4,0-7,1-9.1,3c-2,2-3.1,4.8-3.1,8.6l0,0v79.9h-29.5v-79.9c0-5,0.6-9.4,1.9-13.4c1.3-3.9,3-7.4,5.2-10.4
		c2.2-3,4.6-5.6,7.4-7.7c2.8-2.1,5.7-3.9,8.8-5.2c3.1-1.3,6.2-2.3,9.3-3c3.1-0.6,6.1-0.9,8.8-0.9l0,0H-934.7z M-784-47.4L-784-47.4
		c0,4-0.7,8.3-2.1,13c-1.4,4.6-3.8,8.9-7,12.9c-3.2,4-7.4,7.3-12.6,10c-5.2,2.7-11.5,4-18.9,4l0,0h-53.2v-27.5h53.2
		c4,0,7.1-1.2,9.3-3.6c2.2-2.4,3.3-5.4,3.3-9l0,0c0-3.8-1.2-6.8-3.7-8.9c-2.5-2.1-5.4-3.2-8.9-3.2l0,0h-53.2c-4,0-7.1,1.2-9.3,3.6
		c-2.2,2.4-3.3,5.4-3.3,9l0,0v40.5c0,3.9,1.2,6.9,3.7,9c2.5,2.2,5.5,3.2,9.1,3.2l0,0h52.9v27.6h-53.2c-4.1,0-8.5-0.7-13.2-2.1
		c-4.7-1.4-9.1-3.7-13.1-6.8c-4-3.2-7.4-7.3-10.1-12.4c-2.7-5.1-4.1-11.3-4.1-18.6l0,0v-40.7c0-4,0.7-8.3,2.2-13
		c1.4-4.6,3.8-9,7-12.9c3.2-4,7.4-7.3,12.6-10c5.2-2.7,11.5-4,18.9-4l0,0h53.2c4.1,0,8.5,0.7,13.2,2.1c4.7,1.4,9.1,3.7,13.2,6.9
		c4,3.1,7.4,7.3,10.1,12.4C-785.3-60.9-784-54.7-784-47.4z M-638.5-47.4v40.7c0,4-0.7,8.3-2.2,13c-1.4,4.6-3.8,8.9-7,12.9
		c-3.2,4-7.4,7.3-12.6,10c-5.2,2.7-11.5,4-18.9,4l0,0h-53.2c-4.1,0-8.5-0.7-13.2-2.1s-9.1-3.7-13.1-6.8c-4.1-3.2-7.4-7.3-10.1-12.4
		c-2.7-5.1-4.1-11.3-4.1-18.6l0,0c0-4,0.7-8.4,2.2-13c1.4-4.7,3.7-9,7-13c3.2-4,7.4-7.3,12.6-10c5.2-2.7,11.5-4,18.9-4l0,0h53.2
		v27.6h-53.2c-4,0-7.1,1.2-9.3,3.6c-2.2,2.4-3.3,5.4-3.3,9l0,0c0,3.8,1.3,6.7,3.8,8.9c2.5,2.1,5.5,3.2,9,3.2l0,0h52.9
		c4,0,7.1-1.2,9.3-3.6c2.2-2.4,3.3-5.3,3.3-8.9l0,0v-40.4c0-3.8-1.2-6.8-3.6-9c-2.4-2.2-5.4-3.3-9-3.3l0,0h-64.7v-27.5h64.7
		c4.1,0,8.5,0.7,13.2,2.1c4.7,1.4,9.1,3.7,13.1,6.9c4,3.1,7.4,7.3,10.1,12.4C-639.8-60.9-638.5-54.7-638.5-47.4L-638.5-47.4z
		 M-503.9-46.8v79.9h-29.5v-79.9c0-3.8-1-6.7-3.1-8.6c-2-2-5.1-3-9.1-3l0,0h-38.3v91.5h-29.5V-73c0-2,0.4-3.9,1.1-5.6
		c0.7-1.7,1.8-3.3,3.2-4.6c1.4-1.3,2.9-2.3,4.8-3.1c1.8-0.7,3.8-1.1,5.8-1.1l0,0h53.2c4.1,0,8.5,0.7,13.2,2.1
		c4.7,1.4,9.1,3.7,13.4,6.8l0,0l-25.9-8.9h65.8c2.8,0,5.7,0.3,8.8,0.9c3.1,0.6,6.2,1.6,9.2,3c3,1.3,6,3,8.8,5.2
		c2.8,2.1,5.3,4.7,7.4,7.7c2.1,3,3.8,6.5,5.1,10.4c1.3,3.9,1.9,8.4,1.9,13.4l0,0v79.9H-467v-79.9c0-3.8-1-6.7-2.9-8.6
		c-1.9-2-4.9-3-8.9-3l0,0h-26.5C-504.4-54.8-503.9-50.9-503.9-46.8L-503.9-46.8z"/>
</g>
</svg>
