<svg id="Layer_1" data-name="Layer 1" xmlns="http://www.w3.org/2000/svg" xmlns:xlink="http://www.w3.org/1999/xlink" viewBox="0 0 1000 1000">
  <defs>
    <style>
      .cls-1 {
        fill: none;
      }

      .cls-2 {
        fill: url(#linear-gradient);
      }

      .cls-3 {
        fill: url(#linear-gradient-2);
      }
    </style>
    <linearGradient id="linear-gradient" x1="-7.62" y1="1006.98" x2="-2.28" y2="1006.98" gradientTransform="translate(998 -36252.24) scale(98 36.76)" gradientUnits="userSpaceOnUse">
      <stop offset="0" stop-color="#e58325"/>
      <stop offset="1" stop-color="#642b84"/>
    </linearGradient>
    <linearGradient id="linear-gradient-2" x1="-5.02" y1="1000.34" x2="0.32" y2="1000.34" gradientTransform="matrix(164.91, 0, 0, -176.3, 899.34, 176862.65)" gradientUnits="userSpaceOnUse">
      <stop offset="0" stop-color="#642b84"/>
      <stop offset="1" stop-color="#642b84"/>
    </linearGradient>
  </defs>
  <g id="Inner_Sine" data-name="Inner Sine">
    <rect class="cls-1" x="224.3" y="647.06" width="576.91" height="241.46"/>
    <path class="cls-2" d="M774.51,858.27h-76.8c-10.35,0-16.55-7.09-22.75-18.59-5,5.89-9.06,10.09-13.06,10.12-10.06.05-18.77.54-26.36.54-5.45,7-10.72,11.59-17.25,11.71-26,.53-58.65-.07-59-.08-31-.66-49.63-31.27-67.62-61.4C476.15,774.51,460.07,748,439.37,748h-.14c-21.65,0-36.16,23-51.53,49.8-17.69,30.9-36,60.43-70,60.43H251v-21h25.1c18.3-9.52,41.1-47.25,57.86-80.19,22.15-43.54,45-87.79,83.39-87.79h.24a45.63,45.63,0,0,1,22.86,6.46c.61.34,1.2.77,1.8,1.15a43.92,43.92,0,0,1,11.5,2.89c.28.11-.21-.11.07,0,.34-.14,1.43-.86,1.77-1,5.52-2.19,11.39-4.27,17.67-4.27h.25c10.49,0,20,4.63,28.66,10.87C509.91,691,517,699,523.75,707.82c12.54,16.5,23.65,37.69,34.6,58.32,15.3,28.84,31,58.55,50,74.52.4.33.8.7,1.21,1,2.12,0,4.23,0,6.3-.06,3-2.82,8.64-11.51,12.47-17.45,10.8-16.76,19.29-30.08,31.55-29.45,9.42.43,16.14,7.11,21.85,15.86l.3-.41c11-14.69,22.85-27.92,34.46-27.91l1,0a26.93,26.93,0,0,1,3.9.55,21.65,21.65,0,0,1,2.57.72,17.63,17.63,0,0,1,2.81-.08c20.21,1.33,29.33,21,36.66,38.52,2.76,6.62,5.59,15.28,8.55,15.28h2.49ZM437.43,675.44c-6.2-3.14-12.94-5.56-20-5.56-37.49,0-60.28,44-82.24,87.13-16.42,32.3-33.29,64.52-56.55,80.27h14.27c1.17,0,3.35.28,4.5-.33,23.64-12.57,39.63-41.93,56.18-74.13,21.71-42.25,44.4-85.73,82.79-85.73l1.42-.08c.76,0,.76,0,1.5,0C439.64,677,438.18,675.82,437.43,675.44Zm10,6.82c-3.65-1.09-7.11-2.46-11-2.46h-.22c-35,0-56.69,42.17-77.66,83-15.26,29.67-30.89,58.76-52.15,74.51h11.32c21.74,0,36.28-23.34,51.67-50.24,9.12-15.92,18.38-31.07,29.87-43,.56-.59,1.16-.91,1.73-1.47.47-.89.94-1.68,1.41-2.56,13-23.91,28-46,46-56.82C448.42,683.11,447.31,682.32,447.41,682.26Zm3.4,2.78c-.29.16-.6.29-.9.46-16.7,9.61-30.16,29-42.47,51l-.5.91c.11-.08.21.42.31.33,9-7,19.42-10.73,31.95-10.73h.28c32.68,0,51.85,31.91,70.39,63,15.07,25.24,30.65,51.17,49.93,51.58a2.34,2.34,0,0,1,.84-.12c-.06,0-.12-.14-.18-.17-23.82-13.59-42.07-48-59.85-81.54-14.92-28.12-30.17-56.89-48.75-73.81C451.51,685.63,451.16,685.35,450.81,685Zm2.14.1c.43.38.86.76,1.29,1.16,18.11,17.22,33,45.31,47.59,72.81,17.92,33.78,36.33,68.48,60.26,81.47.53.29,1.08.55,1.62.83,1.47,0,3.31.08,5.44.11-.39-.26-.77-.44-1.15-.72-20.85-15.09-37.19-45.56-53.13-75.32C496.61,731.41,477.83,696.37,453,685.14Zm151.51,155.8c-18.5-16.69-33.72-45.36-48.55-73.33C545,747.12,534,726.28,521.63,710c-6.74-8.87-13.86-16-21.56-21.45a45.41,45.41,0,0,0-26.57-8.73h-.23a44.36,44.36,0,0,0-14.38,2c-.28.1-.54,0-.82.14.22.11.45.11.67.23,24.76,13.43,43.11,47.56,61,80.92,17.28,32.25,35,65.33,57.83,77.34,1,.5,1.92.89,2.9,1.32,7.49.07,16.25.1,25,0Zm55.47-24.85c-3.7,3.54-9.89,13.13-13.78,19.17-2.35,3.66-4.56,7.06-6.69,10.16l13.86,0c4-2.11,9-8.17,14.42-15.48l.6-.83C665.49,823.82,662.19,818.16,659.93,816.09Zm11.85,19.48c-.78-1.5-1.71-3.28-2.72-5.16-.17.22-.34.46-.5.68-4.7,6.31-9,11.51-12.75,14.29l6.05,0c2.38,0,6.15-3.81,10.34-9ZM720.08,784a25.24,25.24,0,0,0-2.65-.32l-.87,0c-11.06,0-23,13.58-33.71,27.82-.1.13-.18.26-.29.39,1.2,1.89,2.34,3.86,3.46,5.88l.6-.84C697,802.54,708.2,788.14,720,784.39c.3-.1.61-.17.92-.25Zm11.92,5.5c-.38-.11-.75-.13-1.13-.24a21.74,21.74,0,0,0-4.43-.54c-11.54-.78-25.46,17.53-37,33.5-.19.25-.38.14-.56.4.53,1,1.07.45,1.61,1.48,2.68,5.14,6.61,13.22,9,13.22h59.93c-2.48,0-4.77-8.86-7.22-14.7-4.39-10.49-9.45-22.12-17-30.19A32.23,32.23,0,0,0,732,789.46Zm26.39,34.6c-5.27-12.56-11-25.34-20.54-32.08a15.69,15.69,0,0,0-2.4-1.18c.84.85,1.65,1.82,2.42,2.75,6.81,8.15,11.53,18.59,15.66,28.46,2.57,6.14,5,15.27,7.52,15.27h4.41C763.05,837.28,760.83,829.89,758.39,824.06Z"/>
  </g>
  <path class="cls-3" d="M511.2,42.63c-186.82,0-345.55,118.66-402.51,283.58H101.1L85.68,257.42a7.61,7.61,0,0,0-9-5.85l-.08,0a7.46,7.46,0,0,0-5.74,8.92c0,.06,0,.12,0,.17l15,66.94V460.55a29.77,29.77,0,0,0,15.19,25.66v4.2c0,17.48,3.76,43.38,9.49,60.4V551l27.3,84.89v.23c4.86,14.32,8.78,40.45,8.78,55.74v42.45c-35.3,12.36-60.76,45.63-60.76,84.42,0,44.15,33,81,75.94,88.16v49.91a11.59,11.59,0,0,0,11.4,11.2H241.6A11.59,11.59,0,0,0,253,956.84V680.72a11.58,11.58,0,0,0-11.39-11.19H173.25a11.58,11.58,0,0,0-11.4,11.19v11.2c0-17.49-3.75-43.38-9.49-60.41v-.23l-27.29-84.89v-.23c-4.86-14.32-8.78-40.45-8.78-55.74,16.71,0,30.38-13.43,30.38-29.85,0-197.76,163.28-358.21,364.53-358.21S875.73,262.81,875.73,460.57c0,16.42,13.67,29.85,30.38,29.85,0,15.29-3.92,41.41-8.78,55.74v.23L870,631.28v.23c-5.74,17-9.5,42.92-9.5,60.41v-11.2a11.57,11.57,0,0,0-11.39-11.19H780.8a11.58,11.58,0,0,0-11.39,11.19V956.84A11.59,11.59,0,0,0,780.8,968h68.35a11.58,11.58,0,0,0,11.39-11.2V906.93c42.93-7.19,76-44,76-88.16,0-38.79-25.46-72-60.76-84.42V691.9c0-15.28,3.92-41.41,8.78-55.74v-.23L911.81,551v-.23c5.73-17,9.49-42.92,9.49-60.4v-4.2a29.77,29.77,0,0,0,15.19-25.66V327.62l15-66.94a7.45,7.45,0,0,0-5.59-9,7.62,7.62,0,0,0-3.19-.08,7.52,7.52,0,0,0-5.93,5.83l-15.42,68.79h-7.6C856.75,161.29,698,42.63,511.21,42.63"/>
</svg>
